<svg width="1798" height="1493" viewBox="0 0 1798 1493" fill="none" xmlns="http://www.w3.org/2000/svg">
<g opacity="0.25">
<path d="M1343.97 -0.000119583C1419.93 112.368 1495.9 224.736 1571.8 336.2C1437.75 347.275 1302.72 357.515 1168.67 368.59C1148.73 370.102 1129.64 370.641 1109.7 372.153C994.54 379.978 878.544 388.775 763.454 397.503C802.104 318.242 840.821 239.885 878.564 160.693C899.043 118.249 917.572 74.1358 936.169 30.9259C1072.1 20.6172 1208.03 10.3086 1343.97 -0.000119583Z" fill="#019DD7"/>
<path d="M936.17 30.9257C916.667 74.2043 898.975 117.345 878.566 160.693C840.823 239.885 802.105 318.242 763.456 397.502C761.78 399.447 759.13 400.556 756.411 400.763C623.129 409.962 489.846 419.161 356.632 429.263C379.212 378.482 401.793 327.7 425.348 277.754C459.039 205.23 493.706 133.541 528.372 61.8517C664.305 51.543 800.238 41.2343 936.17 30.9257Z" fill="#02BAF0"/>
<path d="M-9.03578e-05 1146.91C8.17137 1134.48 17.3176 1122.88 23.6766 1110.59C71.7616 1011.53 119.847 912.469 167.863 812.507C168.564 809.727 172.12 808.549 173.795 806.605C181.388 810.572 190.656 812.595 194.76 818.645C217.095 848.755 238.524 878.934 259.952 909.113C303.015 972.181 345.172 1035.32 388.166 1097.48C394.22 1105.2 406.344 1108.83 415.886 1114.46C409.801 1130.37 403.784 1147.18 396.793 1163.16C352.828 1256.46 308.863 1349.75 264.83 1442.14C257.838 1458.12 248.898 1472.43 237.65 1492.36C197.785 1435.41 159.938 1381.04 123.066 1327.49C88.2808 1277.43 53.4269 1226.46 18.6414 1176.39C14.5369 1170.34 7.01313 1167.28 1.23323 1163.17C0.890639 1158.66 0.479532 1153.24 -9.03578e-05 1146.91Z" fill="#CDEAF2"/>
<path d="M1043.06 1440.37C1042.85 1437.66 1042.65 1434.95 1042.44 1432.24C1045.09 1431.13 1048.65 1429.95 1051.3 1428.84C1184.58 1419.64 1316.89 1409.61 1450.17 1400.41C1450.38 1403.12 1450.58 1405.83 1450.85 1409.44C1314.92 1419.75 1178.99 1430.06 1043.06 1440.37Z" fill="#CDEAF2"/>
<path d="M1798 672.257C1788.7 693.862 1780.38 716.301 1770.17 737.975C1718.87 842.73 1667.51 946.58 1616.21 1051.33C1602.34 1048.75 1588.34 1044.36 1574.67 1044.49C1457.7 1052.45 1341.71 1061.25 1224.81 1070.11C1224.53 1066.5 1224.26 1062.89 1223.08 1059.34C1227.69 1048.09 1231.4 1036.9 1236.08 1026.55C1288.08 919.016 1339.18 811.551 1391.11 703.114C1527.95 692.737 1662.97 682.497 1798 672.257Z" fill="#0D6EAF"/>
<path d="M1796.94 672.978C1661.92 683.217 1526.89 693.457 1390.96 703.766C1381.5 687.218 1371.97 669.767 1361.68 654.192C1297.89 558.165 1233.26 463.111 1168.63 368.057C1302.68 356.982 1437.71 346.742 1571.76 335.667C1645.5 442.752 1720.15 549.768 1793.9 656.852C1796.89 660.26 1795.63 667.625 1796.94 672.978Z" fill="#028DC0"/>
<path d="M1224.77 1072.21C1341.67 1063.34 1458.57 1054.47 1574.64 1046.58C1588.23 1045.55 1602.3 1050.84 1616.17 1053.43C1567.45 1156.17 1518.73 1258.91 1470.92 1361.58C1464.63 1374.78 1457.44 1388.05 1451.21 1402.15C1317.93 1411.35 1185.62 1421.38 1052.34 1430.58C1054.44 1422.24 1055.57 1413.07 1059.48 1404.6C1088.63 1344.23 1116.8 1283.03 1146.85 1222.59C1171.24 1171.68 1198.49 1122.36 1224.77 1072.21Z" fill="#0167B2"/>
<path d="M1224.77 1072.2C1198.49 1122.35 1171.24 1171.67 1145.94 1222.66C1115.89 1283.09 1087.65 1343.39 1058.58 1404.66C1054.6 1412.23 1053.47 1421.41 1051.43 1430.65C1048.78 1431.76 1045.23 1432.94 1042.58 1434.04C964.798 1321.81 887.856 1208.61 810.076 1096.38C814.607 1096.04 819.976 1094.72 824.507 1094.38C955.002 1084.48 1086.4 1074.52 1216.9 1064.62C1218.64 1063.58 1220.46 1063.44 1223.11 1062.33C1223.31 1065.04 1223.59 1068.66 1224.77 1072.2Z" fill="#134A9E"/>
<path d="M416.861 1115.3C407.319 1109.66 394.358 1107.01 389.142 1098.32C345.241 1036.22 303.991 973.017 260.928 909.949C240.337 878.797 218.002 848.687 195.735 819.481C191.631 813.431 181.457 811.476 174.771 807.44C177.916 800.841 180.224 795.214 183.369 788.614C316.583 778.512 448.891 768.478 582.105 758.376C585.798 759.004 589.423 758.729 593.117 759.358L592.21 759.427C591.715 764.916 591.22 770.406 590.725 775.896C579.203 792.217 564.825 806.938 556.158 824.86C507.799 920.305 462.364 1018.25 416.861 1115.3Z" fill="#9AD9F0"/>
<path d="M589.75 775.059C590.245 769.57 590.74 764.08 591.235 758.59C607.615 758.257 624.064 758.827 640.376 757.59C753.722 749.903 867.906 741.243 981.252 733.556C977.68 746.549 975.989 760.307 970.468 771.63C937.408 840.471 903.306 907.574 871.221 977.25C854.025 1014.9 825.543 1047.96 825.275 1092.5C820.744 1092.85 815.376 1094.16 810.844 1094.51C736.263 988.393 662.519 881.309 589.75 775.059Z" fill="#1B1F64"/>
<path d="M581.131 757.539C447.916 767.641 315.608 777.675 182.394 787.778C212.872 720.95 243.418 655.025 274.802 588.128C291.298 553.256 307.725 517.48 325.126 482.539C333.024 466.493 343.777 452.047 353.555 436.766C362.328 444.279 371.938 450.82 379.035 460.277C400.396 489.553 420.85 518.897 441.304 548.241C487.633 618.331 533.963 688.421 581.131 757.539Z" fill="#80D0EE"/>
<path d="M581.13 757.54C534.869 688.354 487.633 618.332 440.466 549.215C420.012 519.87 399.489 489.623 378.198 461.251C371.169 452.697 361.559 446.156 352.718 437.74C353.418 434.961 355.025 432.113 355.726 429.334C489.008 420.135 622.222 410.032 756.411 400.764C729.848 459.117 702.378 517.539 675.747 574.988C647.576 636.189 620.312 697.321 592.074 757.619C588.449 757.894 584.824 758.169 581.13 757.54Z" fill="#53C5ED"/>
<path d="M981.32 734.46C989.05 740.235 999.361 743.996 1004.44 750.881C1076.1 854.489 1146.92 959.069 1217.67 1062.75C1087.17 1072.64 955.771 1082.61 825.276 1092.5C825.543 1047.96 854.025 1014.9 871.221 977.25C903.374 908.478 937.408 840.472 970.468 771.631C975.083 760.376 977.68 746.549 981.32 734.46Z" fill="#223484"/>
</g>
</svg>
