<svg width="316" height="69" viewBox="0 0 316 69" fill="none" xmlns="http://www.w3.org/2000/svg">
<path d="M69.6526 0C72.9356 5.75004 76.2186 11.5001 79.5016 17.2059C72.9356 17.2501 66.3253 17.2501 59.7593 17.2944C58.7833 17.2944 57.8516 17.2501 56.8756 17.2501C51.2413 17.2059 45.5626 17.2059 39.9283 17.2059C42.1021 13.4905 44.276 9.8193 46.4055 6.10389C47.559 4.11349 48.6237 2.03463 49.6885 0C56.3432 0 62.9979 0 69.6526 0Z" fill="#019DD7"/>
<path d="M49.6884 0C48.5793 2.03463 47.5589 4.06926 46.4054 6.10389C44.2759 9.8193 42.1021 13.4905 39.9282 17.2059C39.8395 17.2944 39.7064 17.3386 39.5733 17.3386C33.0517 17.2944 26.5301 17.2501 20.0084 17.2501C21.295 14.8616 22.5816 12.4732 23.9125 10.1289C25.8202 6.72312 27.7723 3.36156 29.7243 0C36.379 0 43.0337 0 49.6884 0Z" fill="#02BAF0"/>
<path d="M0 50.8648C0.443647 50.2898 0.931659 49.7591 1.28658 49.1841C3.99282 44.5398 6.69907 39.8955 9.40532 35.207C9.44968 35.0743 9.62714 35.0301 9.71587 34.9417C10.0708 35.1628 10.5144 35.2955 10.6919 35.6051C11.6679 37.1532 12.5996 38.7013 13.5312 40.2494C15.3945 43.4783 17.2135 46.7071 19.0768 49.8918C19.343 50.2898 19.9198 50.511 20.3634 50.8206C20.0085 51.5725 19.6536 52.3687 19.2543 53.1206C16.7699 57.4995 14.2854 61.8784 11.801 66.213C11.4017 66.965 10.9137 67.6284 10.2926 68.5573C8.56239 65.638 6.92089 62.8515 5.32376 60.1091C3.81536 57.5437 2.30696 54.9341 0.798565 52.3687C0.621106 52.0591 0.266188 51.8822 0 51.661C0 51.4398 0 51.1745 0 50.8648Z" fill="#CDEAF2"/>
<path d="M314.59 21.7169C314.279 22.115 313.969 22.5131 313.57 23.0439C313.215 22.6458 312.904 22.292 312.505 21.8496C312.372 22.5573 312.239 23.1766 312.017 24.1497C310.863 22.8227 311.706 21.4958 311.13 20.2573C310.775 20.3016 310.287 20.3016 309.754 20.39C309.71 21.5843 309.621 22.69 309.577 23.84C308.379 22.9554 308.911 21.8054 308.645 20.6996C308.335 20.4785 307.891 20.2131 307.447 19.9477C307.492 19.8592 307.536 19.7265 307.536 19.6381C309.089 19.6381 310.597 19.6381 312.327 19.6381C312.638 20.0804 313.037 20.6554 313.436 21.2304C314.413 21.0093 314.102 19.2842 315.477 19.5939C315.61 20.7439 315.743 21.9381 315.877 23.0881C315.877 23.3977 315.877 23.6631 315.877 23.9727C315.566 23.8843 315.211 23.84 314.767 23.7516C314.812 23.1323 314.812 22.5131 314.856 21.9381C314.856 21.8054 314.856 21.6727 314.812 21.54C314.767 21.4958 314.679 21.6285 314.59 21.7169Z" fill="#273887"/>
<path d="M49.6883 69C49.6883 68.8673 49.6883 68.7346 49.6883 68.6019C49.8214 68.5577 49.9989 68.5135 50.132 68.4692C56.6536 68.5135 63.1308 68.5135 69.6524 68.5577C69.6524 68.6904 69.6524 68.8231 69.6524 69C62.9977 69 56.343 69 49.6883 69Z" fill="#CDEAF2"/>
<path d="M315.877 23.0005C315.743 21.8505 315.61 20.6562 315.477 19.5062C315.61 19.3293 315.743 19.1966 315.877 19.0197C315.877 20.3466 315.877 21.6735 315.877 23.0005Z" fill="#0D6EAF"/>
<path d="M108.161 47.4597C108.161 53.2098 108.161 58.4732 108.161 63.9137C105.721 63.9137 103.37 63.9137 100.885 63.9137C100.841 63.5156 100.708 63.029 100.708 62.5425C100.708 53.254 100.575 43.9655 100.752 34.7212C100.885 27.423 104.612 20.4345 112.997 18.3557C120.361 16.5422 127.016 17.8249 132.029 23.9288C138.995 32.4211 136.377 48.3886 123.068 51.4847C118.187 52.6347 113.529 51.9271 109.536 48.6097C109.226 48.3443 108.871 48.0789 108.161 47.4597ZM127.948 34.8539C127.903 34.1904 127.859 33.5269 127.77 32.8635C127.194 28.3077 123.866 25.0788 118.853 24.5038C115.259 24.1057 110.734 25.9192 108.915 30.3423C108.072 32.3769 107.984 34.5 108.205 36.6231C109.004 43.3462 116.147 47.2386 122.269 44.3193C126.262 42.4174 127.815 39.0116 127.948 34.8539Z" fill="#223484"/>
<path d="M227.147 51.0426C225.195 51.2637 223.465 51.5733 221.69 51.6176C217.21 51.706 212.684 51.883 208.204 51.6618C206.03 51.5733 203.856 50.9099 201.815 50.0695C197.423 48.3002 196.048 45.0714 196.314 40.5156C196.713 33.9694 200.662 31.6693 207.006 31.0059C210.644 30.6078 214.37 30.9174 218.053 30.9174C218.541 30.9174 219.073 30.9174 219.561 30.9174C219.738 27.4232 218.186 25.0789 214.947 24.327C210.865 23.3981 206.74 23.3539 202.791 25.1231C202.259 25.3443 201.726 25.6097 201.194 25.8308C198.355 23.6635 198.576 20.4789 201.771 19.0193C203.235 18.3558 204.876 17.9577 206.429 17.825C210.2 17.4712 213.927 17.5596 217.653 18.5769C223.776 20.2135 227.147 24.4597 227.192 30.6963C227.236 37.0213 227.192 43.3464 227.192 49.7156C227.236 50.0695 227.192 50.4233 227.147 51.0426ZM219.827 36.6232C218.407 36.4463 217.121 36.1809 215.79 36.0925C212.862 35.9155 209.889 35.7386 207.05 36.7117C204.876 37.4636 203.767 39.1886 203.811 41.4444C203.856 43.6117 204.921 45.2041 207.139 45.8233C211.309 46.9291 215.524 46.6637 219.783 45.9118C219.827 42.8156 219.827 39.8963 219.827 36.6232Z" fill="#223484"/>
<path d="M176.216 34.8534C176.527 43.6996 169.34 51.9265 158.471 52.015C148.311 52.1035 140.503 44.4957 140.592 34.7207C140.636 24.9014 148.267 17.6917 158.471 17.6917C168.941 17.6475 176.571 25.7418 176.216 34.8534ZM158.382 24.2821C152.614 24.2821 148.355 28.7937 148.355 34.8976C148.355 40.7803 152.703 45.3804 158.293 45.3804C164.194 45.3804 168.453 41.0457 168.408 34.8534C168.408 27.511 163.306 24.2379 158.382 24.2821Z" fill="#223484"/>
<path d="M302.612 26.5824C298.441 23.9285 293.783 23.1323 288.903 23.4862C287.794 23.5746 286.685 23.7958 285.664 24.1939C284.023 24.7689 283.269 25.8747 283.313 27.3343C283.357 28.8824 284.289 29.8555 285.664 30.1651C288.016 30.6958 290.411 31.0497 292.807 31.4478C295.07 31.8459 297.288 32.2439 299.55 32.6863C300.127 32.8189 300.66 33.0401 301.236 33.2613C307.314 35.9593 308.645 43.5671 303.898 48.2114C302.035 50.0248 299.772 50.9979 297.243 51.4402C289.968 52.7672 283.002 51.7498 276.348 48.6094C276.037 48.4767 275.727 48.2114 275.283 47.9017C276.17 46.2652 277.058 44.6729 277.856 43.2132C280.917 44.0536 283.801 45.071 286.818 45.6902C289.79 46.3094 292.851 46.3537 295.824 45.5133C296.8 45.2036 297.909 44.5844 298.486 43.7882C299.728 41.9748 298.619 39.6748 296.179 39.0555C294.138 38.5248 291.964 38.3036 289.835 38.0382C286.995 37.6401 284.112 37.4632 281.405 36.269C278.388 34.942 276.303 32.7747 275.904 29.3689C275.505 25.565 276.614 22.4246 279.941 20.2131C282.071 18.7977 284.511 18.1342 286.995 17.8688C291.121 17.4708 295.247 17.5592 299.329 18.6208C300.393 18.8862 301.458 19.2842 302.39 19.815C305.673 21.6285 305.761 24.2381 302.612 26.5824Z" fill="#223484"/>
<path d="M190.058 51.0432C187.53 51.0432 185.267 51.0432 182.827 51.0432C182.783 50.3797 182.694 49.7163 182.694 49.097C182.694 35.2969 182.694 21.5411 182.694 7.74096C182.694 4.33517 183.847 3.22939 187.263 3.49478C188.195 3.53901 189.127 3.84863 190.058 4.02555C190.058 19.7718 190.058 35.2969 190.058 51.0432Z" fill="#273887"/>
<path d="M89.2174 34.5002C88.6851 35.5176 88.1971 36.5791 87.6203 37.5964C84.7366 42.5061 81.8529 47.3715 78.9692 52.2811C78.3037 52.1042 77.6383 51.8388 76.9728 51.7946C71.2497 51.7504 65.5711 51.7504 59.848 51.7504C59.848 51.5734 59.848 51.3965 59.8036 51.2196C60.0698 50.6888 60.2917 50.1581 60.5578 49.6715C63.4859 44.6292 66.3696 39.5868 69.2977 34.5002C75.9968 34.5002 82.6071 34.5002 89.2174 34.5002Z" fill="#0D6EAF"/>
<path d="M89.2174 34.5002C82.607 34.5002 75.9967 34.5002 69.342 34.5002C68.9427 33.6599 68.5434 32.7752 68.0998 31.9791C65.3492 27.0694 62.5542 22.204 59.7592 17.3386C66.3252 17.2944 72.9355 17.2944 79.5015 17.2501C82.6958 22.7348 85.9344 28.2194 89.1286 33.7041C89.2617 33.881 89.173 34.2349 89.2174 34.5002Z" fill="#028DC0"/>
<path d="M242.231 51.0434C239.702 51.0434 237.351 51.0434 234.867 51.0434C234.822 50.5126 234.734 49.9376 234.689 49.4068C234.689 43.3029 234.689 37.1548 234.689 31.0509C234.689 29.9451 234.689 28.8394 234.911 27.7336C235.931 21.9835 239.481 18.6662 245.736 17.8258C248.664 17.4277 251.636 17.5162 254.476 18.5335C258.158 19.8162 258.868 22.6912 256.206 25.6105C254.698 25.2566 253.234 24.6816 251.725 24.5489C250.084 24.4163 248.309 24.4163 246.712 24.8143C243.651 25.6547 242.586 28.1317 242.276 31.0509C242.142 32.2894 242.231 33.5721 242.231 34.8106C242.231 39.4548 242.231 44.0991 242.231 48.7433C242.231 49.4953 242.231 50.203 242.231 51.0434Z" fill="#223484"/>
<path d="M59.8925 51.7504C65.6155 51.7504 71.3386 51.7504 77.0173 51.7946C77.6827 51.7946 78.3482 52.1042 79.0137 52.2811C76.2631 57.1023 73.5125 61.9235 70.8062 66.7447C70.4513 67.3639 70.052 67.9832 69.6971 68.6466C63.1755 68.6024 56.6982 68.6024 50.1766 68.5582C50.3097 68.1601 50.3984 67.7178 50.6203 67.3197C52.2618 64.4889 53.8589 61.6139 55.5448 58.7831C56.9201 56.3946 58.4285 54.0946 59.8925 51.7504Z" fill="#0167B2"/>
<path d="M269.294 19.2412C269.294 29.9009 269.294 40.3837 269.294 51.0433C266.898 51.0433 264.547 51.0433 262.018 51.0433C261.973 50.2472 261.929 49.5395 261.929 48.8318C261.929 40.3394 262.062 31.8913 261.885 23.3989C261.796 18.5777 264.591 18.2239 267.83 18.7989C268.229 18.8431 268.673 19.02 269.294 19.2412Z" fill="#273887"/>
<path d="M270.181 8.53576C270.181 11.1896 268.229 13.18 265.656 13.1358C263.127 13.0916 261.264 11.1896 261.219 8.62422C261.219 5.97036 263.171 3.97996 265.745 4.02419C268.273 4.06842 270.181 6.01459 270.181 8.53576Z" fill="#273887"/>
<path d="M314.59 21.7167C314.679 21.6282 314.723 21.5398 314.812 21.4513C314.812 21.584 314.812 21.7167 314.856 21.8494C314.768 21.8052 314.679 21.7609 314.59 21.7167Z" fill="#0D6EAF"/>
<path d="M59.8924 51.7503C58.4283 54.0946 56.9199 56.3946 55.5003 58.7831C53.8144 61.6139 52.2173 64.4446 50.5758 67.3197C50.354 67.6735 50.2652 68.1158 50.1321 68.5581C49.999 68.6024 49.8216 68.6466 49.6885 68.6908C46.3168 62.9408 42.9894 57.1465 39.6177 51.3965C39.8395 51.3965 40.1057 51.3523 40.3275 51.3523C46.7161 51.3523 53.1489 51.3523 59.5375 51.3523C59.6262 51.308 59.7149 51.308 59.848 51.2638C59.848 51.3965 59.848 51.5734 59.8924 51.7503Z" fill="#134A9E"/>
<path d="M20.4079 50.8654C19.9642 50.5558 19.3431 50.3789 19.1213 49.9365C17.2136 46.7519 15.439 43.523 13.5757 40.2942C12.6884 38.7018 11.7124 37.1537 10.7363 35.6499C10.5589 35.3403 10.0709 35.2076 9.76032 34.9864C9.93778 34.6768 10.0709 34.4114 10.2483 34.1018C16.7699 34.1018 23.2472 34.1018 29.7688 34.1018C29.9463 34.146 30.1237 34.146 30.3012 34.1903H30.2568C30.2124 34.4557 30.1681 34.721 30.1237 34.9864C29.5026 35.7384 28.7484 36.4018 28.2604 37.2422C25.5542 41.7096 22.981 46.3096 20.4079 50.8654Z" fill="#9AD9F0"/>
<path d="M30.0793 34.9429C30.1237 34.6775 30.168 34.4121 30.2124 34.1467C31.011 34.191 31.8095 34.2794 32.6081 34.2794C38.1537 34.3237 43.7436 34.3237 49.2892 34.3679C49.0674 34.9871 48.9343 35.6506 48.6238 36.1814C46.7604 39.4102 44.8528 42.5506 43.0338 45.8237C42.0578 47.593 40.5494 49.0968 40.3719 51.2642C40.1501 51.2642 39.8839 51.3084 39.6621 51.3084C36.4235 45.868 33.2292 40.3833 30.0793 34.9429Z" fill="#1B1F64"/>
<path d="M29.7244 34.0576C23.2028 34.0576 16.7255 34.0576 10.2039 34.0576C11.9342 30.9172 13.6644 27.821 15.439 24.6806C16.3706 23.0441 17.3023 21.3633 18.2783 19.7267C18.722 18.9748 19.2987 18.3113 19.8311 17.6036C20.2304 18.0017 20.674 18.3556 20.9846 18.8421C21.9162 20.346 22.8035 21.8498 23.6908 23.3537C25.6872 26.9364 27.6836 30.5191 29.7244 34.0576Z" fill="#80D0EE"/>
<path d="M29.7244 34.0579C27.728 30.5194 25.6873 26.9367 23.6465 23.3982C22.7592 21.8944 21.8719 20.3463 20.9402 18.8867C20.6297 18.4444 20.186 18.0905 19.7868 17.6482C19.8311 17.5155 19.9199 17.3828 19.9642 17.2501C26.4858 17.2944 33.0074 17.2944 39.5734 17.3386C38.065 20.0809 36.5122 22.8232 35.0038 25.5213C33.4067 28.3964 31.854 31.2714 30.2568 34.1022C30.0794 34.1022 29.9019 34.1022 29.7244 34.0579Z" fill="#53C5ED"/>
<path d="M49.2892 34.4124C49.6441 34.722 50.1321 34.9431 50.3539 35.297C53.4595 40.6047 56.5206 45.9567 59.5818 51.2644C53.1933 51.2644 46.7604 51.2644 40.3719 51.2644C40.5493 49.0971 42.0577 47.5932 43.0337 45.824C44.8527 42.5951 46.7604 39.4105 48.6237 36.1816C48.8899 35.6508 49.0673 34.9874 49.2892 34.4124Z" fill="#223484"/>
</svg>
