<svg width="37" height="28" viewBox="0 0 37 28" fill="none" xmlns="http://www.w3.org/2000/svg">
<rect width="37" height="28" rx="2" fill="#223484"/>
<mask id="path-2-inside-1_15_231" fill="white">
<path d="M11.8567 5.6522L27.9795 13.5965C28.0674 13.6398 28.1414 13.7069 28.1932 13.7901C28.245 13.8733 28.2724 13.9694 28.2724 14.0674C28.2724 14.1654 28.245 14.2615 28.1932 14.3447C28.1414 14.4279 28.0674 14.495 27.9795 14.5383L11.8557 22.4826C11.7653 22.527 11.6642 22.5445 11.5642 22.533C11.4642 22.5215 11.3696 22.4815 11.2917 22.4178C11.2138 22.354 11.1559 22.2693 11.1248 22.1735C11.0938 22.0778 11.0909 21.9752 11.1165 21.8778L13.1839 14.0721L11.1154 6.25805C11.0894 6.16052 11.092 6.05755 11.123 5.96148C11.154 5.86541 11.212 5.78031 11.2901 5.71638C11.3683 5.65245 11.4632 5.61239 11.5635 5.60101C11.6638 5.58962 11.7652 5.6074 11.8557 5.6522H11.8567ZM12.4269 7.10435L14.1174 13.4904L14.1825 13.4778L14.2497 13.4736H21.5997C21.7309 13.4734 21.8574 13.5223 21.9543 13.6107C22.0513 13.6991 22.1116 13.8206 22.1235 13.9512C22.1353 14.0819 22.0978 14.2122 22.0184 14.3166C21.9389 14.421 21.8233 14.4919 21.6942 14.5152L21.5997 14.5236H14.2497C14.2173 14.5238 14.1849 14.521 14.1531 14.5152L12.4279 21.0315L26.5588 14.0679L12.4269 7.10435Z"/>
</mask>
<path d="M11.8567 5.6522L27.9795 13.5965C28.0674 13.6398 28.1414 13.7069 28.1932 13.7901C28.245 13.8733 28.2724 13.9694 28.2724 14.0674C28.2724 14.1654 28.245 14.2615 28.1932 14.3447C28.1414 14.4279 28.0674 14.495 27.9795 14.5383L11.8557 22.4826C11.7653 22.527 11.6642 22.5445 11.5642 22.533C11.4642 22.5215 11.3696 22.4815 11.2917 22.4178C11.2138 22.354 11.1559 22.2693 11.1248 22.1735C11.0938 22.0778 11.0909 21.9752 11.1165 21.8778L13.1839 14.0721L11.1154 6.25805C11.0894 6.16052 11.092 6.05755 11.123 5.96148C11.154 5.86541 11.212 5.78031 11.2901 5.71638C11.3683 5.65245 11.4632 5.61239 11.5635 5.60101C11.6638 5.58962 11.7652 5.6074 11.8557 5.6522H11.8567ZM12.4269 7.10435L14.1174 13.4904L14.1825 13.4778L14.2497 13.4736H21.5997C21.7309 13.4734 21.8574 13.5223 21.9543 13.6107C22.0513 13.6991 22.1116 13.8206 22.1235 13.9512C22.1353 14.0819 22.0978 14.2122 22.0184 14.3166C21.9389 14.421 21.8233 14.4919 21.6942 14.5152L21.5997 14.5236H14.2497C14.2173 14.5238 14.1849 14.521 14.1531 14.5152L12.4279 21.0315L26.5588 14.0679L12.4269 7.10435Z" fill="white"/>
<path d="M11.8567 5.6522L12.7407 3.85816L12.3227 3.6522H11.8567V5.6522ZM27.9795 13.5965L28.8635 11.8025L28.8635 11.8025L27.9795 13.5965ZM27.9795 14.5383L28.8634 16.3324L28.8635 16.3323L27.9795 14.5383ZM11.8557 22.4826L12.7375 24.2777L12.7396 24.2767L11.8557 22.4826ZM11.1165 21.8778L9.18313 21.3658L9.18229 21.3689L11.1165 21.8778ZM13.1839 14.0721L15.1172 14.5842L15.2528 14.0723L15.1173 13.5603L13.1839 14.0721ZM11.1154 6.25805L13.0488 5.74625L13.0478 5.74227L11.1154 6.25805ZM11.8557 5.6522L10.968 7.44442L11.3875 7.6522H11.8557V5.6522ZM14.1174 13.4904L12.184 14.0022L12.6623 15.8092L14.4974 15.454L14.1174 13.4904ZM14.1825 13.4778L14.0577 11.4817L13.929 11.4898L13.8024 11.5143L14.1825 13.4778ZM14.2497 13.4736V11.4736H14.1872L14.1249 11.4775L14.2497 13.4736ZM21.5997 13.4736V15.4737L21.6033 15.4736L21.5997 13.4736ZM21.9543 13.6107L20.6069 15.0886L21.9543 13.6107ZM21.6942 14.5152L21.8713 16.5074L21.9614 16.4994L22.0505 16.4833L21.6942 14.5152ZM21.5997 14.5236V16.5236H21.6884L21.7768 16.5158L21.5997 14.5236ZM14.2497 14.5236V12.5236L14.2404 12.5237L14.2497 14.5236ZM14.1531 14.5152L14.5074 12.5469L12.6918 12.22L12.2197 14.0034L14.1531 14.5152ZM12.4279 21.0315L10.4945 20.5197L9.36974 24.7682L13.312 22.8255L12.4279 21.0315ZM26.5588 14.0679L27.4429 15.8619L31.0835 14.0679L27.4428 12.2739L26.5588 14.0679ZM10.9727 7.44623L27.0955 15.3905L28.8635 11.8025L12.7407 3.85816L10.9727 7.44623ZM27.0954 15.3905C26.8484 15.2688 26.6404 15.0803 26.4949 14.8465L29.8914 12.7337C29.6425 12.3335 29.2864 12.0109 28.8635 11.8025L27.0954 15.3905ZM26.4949 14.8465C26.3495 14.6127 26.2724 14.3428 26.2724 14.0674H30.2724C30.2724 13.596 30.1404 13.134 29.8914 12.7337L26.4949 14.8465ZM26.2724 14.0674C26.2724 13.7921 26.3495 13.5222 26.4949 13.2883L29.8914 15.4011C30.1404 15.0008 30.2724 14.5388 30.2724 14.0674H26.2724ZM26.4949 13.2883C26.6404 13.0545 26.8484 12.8661 27.0954 12.7443L28.8635 16.3323C29.2864 16.124 29.6425 15.8014 29.8914 15.4011L26.4949 13.2883ZM27.0955 12.7443L10.9717 20.6886L12.7396 24.2767L28.8634 16.3324L27.0955 12.7443ZM10.9738 20.6876C11.2276 20.5629 11.5119 20.5138 11.7928 20.5461L11.3356 24.5199C11.8164 24.5752 12.3031 24.4912 12.7375 24.2777L10.9738 20.6876ZM11.7928 20.5461C12.0737 20.5784 12.3394 20.6908 12.5582 20.8698L10.0253 23.9657C10.3999 24.2722 10.8547 24.4646 11.3356 24.5199L11.7928 20.5461ZM12.5582 20.8698C12.777 21.0489 12.9398 21.2871 13.0271 21.556L9.22256 22.7911C9.37201 23.2514 9.65064 23.6592 10.0253 23.9657L12.5582 20.8698ZM13.0271 21.556C13.1144 21.8249 13.1226 22.1133 13.0506 22.3867L9.18229 21.3689C9.05913 21.837 9.07311 22.3307 9.22256 22.7911L13.0271 21.556ZM13.0498 22.3899L15.1172 14.5842L11.2506 13.5601L9.18313 21.3658L13.0498 22.3899ZM15.1173 13.5603L13.0488 5.74625L9.18201 6.76985L11.2505 14.5839L15.1173 13.5603ZM13.0478 5.74227C13.1209 6.01628 13.1135 6.30557 13.0264 6.57548L9.21959 5.34748C9.07054 5.80953 9.05786 6.30475 9.18306 6.77382L13.0478 5.74227ZM13.0264 6.57548C12.9394 6.84539 12.7763 7.08448 12.5569 7.2641L10.0234 4.16866C9.64773 4.47615 9.36864 4.88543 9.21959 5.34748L13.0264 6.57548ZM12.5569 7.2641C12.3374 7.44372 12.0708 7.55627 11.789 7.58825L11.3379 3.61376C10.8555 3.66851 10.3991 3.86117 10.0234 4.16866L12.5569 7.2641ZM11.789 7.58825C11.5072 7.62023 11.2222 7.57029 10.968 7.44442L12.7433 3.85997C12.3083 3.6445 11.8203 3.55901 11.3379 3.61376L11.789 7.58825ZM11.8557 7.6522H11.8567V3.6522H11.8557V7.6522ZM10.4935 7.61615L12.184 14.0022L16.0508 12.9786L14.3603 6.59254L10.4935 7.61615ZM14.4974 15.454L14.5625 15.4414L13.8024 11.5143L13.7373 11.5269L14.4974 15.454ZM14.3072 15.474L14.3744 15.4698L14.1249 11.4775L14.0577 11.4817L14.3072 15.474ZM14.2497 15.4736H21.5997V11.4736H14.2497V15.4736ZM21.6033 15.4736C21.2348 15.4743 20.8793 15.337 20.6069 15.0886L23.3018 12.1327C22.8355 11.7076 22.227 11.4725 21.596 11.4737L21.6033 15.4736ZM20.6069 15.0886C20.3345 14.8403 20.165 14.499 20.1317 14.1319L24.1153 13.7705C24.0583 13.1421 23.7681 12.5578 23.3018 12.1327L20.6069 15.0886ZM20.1317 14.1319C20.0984 13.7648 20.2037 13.3986 20.4269 13.1053L23.6098 15.528C23.992 15.0259 24.1723 14.3989 24.1153 13.7705L20.1317 14.1319ZM20.4269 13.1053C20.6502 12.812 20.9752 12.6129 21.3378 12.5472L22.0505 16.4833C22.6714 16.3708 23.2277 16.03 23.6098 15.528L20.4269 13.1053ZM21.5171 12.5231L21.4226 12.5315L21.7768 16.5158L21.8713 16.5074L21.5171 12.5231ZM21.5997 12.5236H14.2497V16.5236H21.5997V12.5236ZM14.2404 12.5237C14.3299 12.5233 14.4193 12.531 14.5074 12.5469L13.7987 16.4836C13.9506 16.5109 14.1046 16.5243 14.2589 16.5236L14.2404 12.5237ZM12.2197 14.0034L10.4945 20.5197L14.3613 21.5434L16.0865 15.0271L12.2197 14.0034ZM13.312 22.8255L27.4429 15.8619L25.6747 12.274L11.5438 19.2376L13.312 22.8255ZM27.4428 12.2739L13.3109 5.31032L11.5428 8.89837L25.6748 15.862L27.4428 12.2739Z" fill="white" mask="url(#path-2-inside-1_15_231)"/>
</svg>
