<svg width="24" height="24" viewBox="0 0 24 24" fill="none" xmlns="http://www.w3.org/2000/svg">
<mask id="mask0_15_145" style="mask-type:luminance" maskUnits="userSpaceOnUse" x="3" y="3" width="18" height="18">
<path d="M3 3H21V21H3V3Z" fill="white"/>
</mask>
<g mask="url(#mask0_15_145)">
<path d="M15.1698 13.0279H15.776M8.70001 13.0279H12.9853M8.70001 9.32786H16.1M19.8 6.88209V15.4684C19.8 16.5075 18.9577 17.3498 17.9187 17.3498H11.3934C11.2382 17.3498 11.0893 17.4115 10.9796 17.5212L8.95544 19.5454C8.79192 19.7089 8.57007 19.8008 8.33876 19.8008C7.85713 19.8008 7.46669 19.4103 7.46669 18.9287V17.9351C7.46669 17.6118 7.20464 17.3498 6.88136 17.3498C5.84232 17.3498 5 16.5075 5 15.4684V6.88209C5 5.84305 5.84232 5.00073 6.88136 5.00073H17.9187C18.9577 5.00073 19.8 5.84305 19.8 6.88209Z" stroke="#F4F4F4" stroke-width="1.65579" stroke-miterlimit="10" stroke-linecap="round" stroke-linejoin="round"/>
</g>
</svg>
