<svg width="16" height="11" viewBox="0 0 16 11" fill="none" xmlns="http://www.w3.org/2000/svg">
<path d="M5.75705 9.49753C5.16555 9.49744 4.60791 9.38986 4.08416 9.17479C3.5604 8.95973 3.10281 8.66765 2.71139 8.29853C2.31966 7.92912 2.00976 7.49746 1.78171 7.00355C1.55366 6.50964 1.43974 5.98394 1.43997 5.42645C1.43991 5.09479 1.47982 4.77249 1.5597 4.45953C1.63958 4.14658 1.75544 3.85263 1.90726 3.57768C2.05909 3.30273 2.24082 3.04662 2.45244 2.80937C2.66406 2.57212 2.90191 2.35914 3.16597 2.17044L6.42777 5.24637L5.75644 5.87943L3.16619 3.43678C2.92643 3.7081 2.73864 4.01153 2.60281 4.34709C2.46698 4.68265 2.3991 5.04249 2.39917 5.42661C2.39932 6.30099 2.72717 7.04727 3.38273 7.66548C4.03828 8.28368 4.82967 8.59285 5.7569 8.59301C6.68412 8.59316 7.47541 8.28424 8.13076 7.66626C8.78611 7.04827 9.11371 6.30209 9.11356 5.42772C9.11342 4.62118 8.83945 3.92586 8.29165 3.34174C7.74385 2.75763 7.05844 2.41259 6.23543 2.30663L6.23558 3.16593L5.27638 3.16577L5.27607 1.35672L5.75567 1.35679C6.34718 1.35689 6.90481 1.46447 7.42857 1.67953C7.95233 1.8946 8.40992 2.18668 8.80133 2.55579C9.19307 2.92521 9.50296 3.35687 9.73101 3.85078C9.95907 4.34469 10.073 4.87039 10.0728 5.42788C10.0729 5.98567 9.95896 6.51148 9.73107 7.00531C9.50318 7.49915 9.1936 7.93056 8.80231 8.29954C8.4107 8.66882 7.95305 8.96091 7.42936 9.1758C6.90567 9.39069 6.34824 9.49793 5.75705 9.49753ZM5.75682 8.14074C5.62094 8.14072 5.50694 8.09729 5.41485 8.01044C5.32275 7.92359 5.27685 7.81624 5.27715 7.6884C5.27712 7.56026 5.32315 7.45278 5.41522 7.36596C5.50728 7.27914 5.6211 7.23589 5.75667 7.23622C5.89256 7.23624 6.00655 7.27968 6.09865 7.36653C6.19074 7.45338 6.23664 7.56072 6.23634 7.68856C6.23637 7.8167 6.19034 7.92418 6.09828 8.011C6.00621 8.09782 5.89239 8.14107 5.75682 8.14074ZM8.15444 5.87982C8.01855 5.8798 7.90456 5.83636 7.81246 5.74951C7.72036 5.66267 7.67446 5.55532 7.67476 5.42748C7.67474 5.29934 7.72076 5.19186 7.81283 5.10504C7.9049 5.01822 8.01872 4.97497 8.15428 4.9753C8.29017 4.97532 8.40416 5.01876 8.49626 5.10561C8.58836 5.19245 8.63426 5.2998 8.63396 5.42764C8.63398 5.55578 8.58796 5.66326 8.49589 5.75008C8.40382 5.8369 8.29 5.88015 8.15444 5.87982ZM3.35844 5.87903C3.22256 5.87901 3.10856 5.83557 3.01647 5.74872C2.92437 5.66187 2.87847 5.55453 2.87877 5.42669C2.87874 5.29855 2.92477 5.19107 3.01684 5.10425C3.1089 5.01743 3.22272 4.97418 3.35829 4.97451C3.49418 4.97453 3.60817 5.01796 3.70027 5.10481C3.79236 5.19166 3.83826 5.29901 3.83797 5.42685C3.83799 5.55499 3.79196 5.66247 3.6999 5.74929C3.60783 5.83611 3.49401 5.87936 3.35844 5.87903Z" fill="#223484"/>
</svg>
