<svg width="11" height="11" viewBox="0 0 11 11" fill="none" xmlns="http://www.w3.org/2000/svg">
<g clip-path="url(#clip0_25_2628)">
<path fill-rule="evenodd" clip-rule="evenodd" d="M4.125 2.75C4.125 3.0235 4.01635 3.28581 3.82295 3.4792C3.62956 3.6726 3.36725 3.78125 3.09375 3.78125C2.82025 3.78125 2.55794 3.6726 2.36455 3.4792C2.17115 3.28581 2.0625 3.0235 2.0625 2.75C2.0625 2.4765 2.17115 2.21419 2.36455 2.0208C2.55794 1.8274 2.82025 1.71875 3.09375 1.71875C3.36725 1.71875 3.62956 1.8274 3.82295 2.0208C4.01635 2.21419 4.125 2.4765 4.125 2.75ZM5.15625 2.75C5.15625 3.29701 4.93895 3.82161 4.55216 4.20841C4.16536 4.5952 3.64076 4.8125 3.09375 4.8125C2.54674 4.8125 2.02214 4.5952 1.63534 4.20841C1.24855 3.82161 1.03125 3.29701 1.03125 2.75C1.03125 2.20299 1.24855 1.67839 1.63534 1.29159C2.02214 0.904798 2.54674 0.6875 3.09375 0.6875C3.64076 0.6875 4.16536 0.904798 4.55216 1.29159C4.93895 1.67839 5.15625 2.20299 5.15625 2.75ZM7.90625 6.53125C8.17975 6.53125 8.44206 6.4226 8.63545 6.2292C8.82885 6.03581 8.9375 5.7735 8.9375 5.5C8.9375 5.2265 8.82885 4.96419 8.63545 4.7708C8.44206 4.5774 8.17975 4.46875 7.90625 4.46875C7.63275 4.46875 7.37044 4.5774 7.17705 4.7708C6.98365 4.96419 6.875 5.2265 6.875 5.5C6.875 5.7735 6.98365 6.03581 7.17705 6.2292C7.37044 6.4226 7.63275 6.53125 7.90625 6.53125ZM7.90625 7.5625C8.45326 7.5625 8.97786 7.3452 9.36466 6.95841C9.75145 6.57161 9.96875 6.04701 9.96875 5.5C9.96875 4.95299 9.75145 4.42839 9.36466 4.04159C8.97786 3.6548 8.45326 3.4375 7.90625 3.4375C7.35924 3.4375 6.83464 3.6548 6.44784 4.04159C6.06105 4.42839 5.84375 4.95299 5.84375 5.5C5.84375 6.04701 6.06105 6.57161 6.44784 6.95841C6.83464 7.3452 7.35924 7.5625 7.90625 7.5625ZM3.09375 9.28125C3.36725 9.28125 3.62956 9.1726 3.82295 8.9792C4.01635 8.78581 4.125 8.5235 4.125 8.25C4.125 7.9765 4.01635 7.71419 3.82295 7.5208C3.62956 7.3274 3.36725 7.21875 3.09375 7.21875C2.82025 7.21875 2.55794 7.3274 2.36455 7.5208C2.17115 7.71419 2.0625 7.9765 2.0625 8.25C2.0625 8.5235 2.17115 8.78581 2.36455 8.9792C2.55794 9.1726 2.82025 9.28125 3.09375 9.28125ZM3.09375 10.3125C3.64076 10.3125 4.16536 10.0952 4.55216 9.70841C4.93895 9.32161 5.15625 8.79701 5.15625 8.25C5.15625 7.70299 4.93895 7.17839 4.55216 6.79159C4.16536 6.4048 3.64076 6.1875 3.09375 6.1875C2.54674 6.1875 2.02214 6.4048 1.63534 6.79159C1.24855 7.17839 1.03125 7.70299 1.03125 8.25C1.03125 8.79701 1.24855 9.32161 1.63534 9.70841C2.02214 10.0952 2.54674 10.3125 3.09375 10.3125Z" fill="#223484"/>
</g>
<defs>
<clipPath id="clip0_25_2628">
<rect width="11" height="11" fill="white"/>
</clipPath>
</defs>
</svg>
