<svg width="11" height="11" viewBox="0 0 11 11" fill="none" xmlns="http://www.w3.org/2000/svg">
<g clip-path="url(#clip0_25_2634)">
<path d="M2.52083 2.52083L3.89583 3.89583M7.10417 7.10417L8.47917 8.47917M8.47917 2.52083L7.10417 3.89583M3.89583 7.10417L2.52083 8.47917M5.04167 1.83333C5.04167 1.95489 5.08996 2.07147 5.17591 2.15742C5.26186 2.24338 5.37844 2.29167 5.5 2.29167C5.62156 2.29167 5.73814 2.24338 5.82409 2.15742C5.91004 2.07147 5.95833 1.95489 5.95833 1.83333C5.95833 1.71178 5.91004 1.5952 5.82409 1.50924C5.73814 1.42329 5.62156 1.375 5.5 1.375C5.37844 1.375 5.26186 1.42329 5.17591 1.50924C5.08996 1.5952 5.04167 1.71178 5.04167 1.83333ZM1.375 5.5C1.375 5.62156 1.42329 5.73814 1.50924 5.82409C1.5952 5.91004 1.71178 5.95833 1.83333 5.95833C1.95489 5.95833 2.07147 5.91004 2.15742 5.82409C2.24338 5.73814 2.29167 5.62156 2.29167 5.5C2.29167 5.37844 2.24338 5.26186 2.15742 5.17591C2.07147 5.08996 1.95489 5.04167 1.83333 5.04167C1.71178 5.04167 1.5952 5.08996 1.50924 5.17591C1.42329 5.26186 1.375 5.37844 1.375 5.5ZM8.70833 5.5C8.70833 5.62156 8.75662 5.73814 8.84258 5.82409C8.92853 5.91004 9.04511 5.95833 9.16667 5.95833C9.28822 5.95833 9.4048 5.91004 9.49076 5.82409C9.57671 5.73814 9.625 5.62156 9.625 5.5C9.625 5.37844 9.57671 5.26186 9.49076 5.17591C9.4048 5.08996 9.28822 5.04167 9.16667 5.04167C9.04511 5.04167 8.92853 5.08996 8.84258 5.17591C8.75662 5.26186 8.70833 5.37844 8.70833 5.5ZM5.04167 9.16667C5.04167 9.28822 5.08996 9.4048 5.17591 9.49076C5.26186 9.57671 5.37844 9.625 5.5 9.625C5.62156 9.625 5.73814 9.57671 5.82409 9.49076C5.91004 9.4048 5.95833 9.28822 5.95833 9.16667C5.95833 9.04511 5.91004 8.92853 5.82409 8.84258C5.73814 8.75662 5.62156 8.70833 5.5 8.70833C5.37844 8.70833 5.26186 8.75662 5.17591 8.84258C5.08996 8.92853 5.04167 9.04511 5.04167 9.16667Z" stroke="#223484" stroke-width="0.916667" stroke-linecap="round" stroke-linejoin="round"/>
</g>
<defs>
<clipPath id="clip0_25_2634">
<rect width="11" height="11" fill="white"/>
</clipPath>
</defs>
</svg>
