<svg width="20" height="20" viewBox="0 0 20 20" fill="none" xmlns="http://www.w3.org/2000/svg">
<path d="M0.0182821 2.09364C0.0194771 0.937354 0.957799 0.00183833 2.11408 0.00410603L17.8964 0.0350582C19.0527 0.0373259 19.9891 0.976519 19.9879 2.1328L19.9716 17.9063C19.9704 19.0626 19.0321 19.9981 17.8758 19.9958L2.09345 19.9649C0.93717 19.9626 0.000786838 19.0234 0.00198175 17.8671L0.0182821 2.09364Z" fill="#2196F3"/>
<g clip-path="url(#clip0_25_2732)">
<path d="M10.482 9.26729L9.57677 9.266L9.57548 10.1712L10.4807 10.1725L10.482 9.26729Z" fill="white"/>
<path d="M14.4754 4.97415L13.9319 4.97338L13.9332 4.06817L13.0273 4.06689L13.026 4.97209L7.04732 4.96358L7.04861 4.05838L6.14275 4.05709L6.14146 4.9623L5.59795 4.96152C4.84871 4.96046 4.23828 5.5687 4.23722 6.3174L4.22587 14.2832C4.2248 15.0319 4.83349 15.6419 5.58273 15.6429L8.59472 15.6472L8.66266 15.6473L10.2425 15.6496C9.92974 15.3908 9.65742 15.085 9.43617 14.7432L8.66395 14.7421L8.59601 14.742L5.58402 14.7377C5.33427 14.7374 5.13138 14.534 5.13173 14.2845L5.14024 8.31014L14.9236 8.32405L14.9223 9.22926L14.9222 9.27452L14.9222 9.27676C15.2636 9.49882 15.5689 9.77183 15.8269 10.0851L15.8281 9.27581L15.8281 9.23055L15.8323 6.33389C15.8333 5.5852 15.2246 4.97522 14.4754 4.97415ZM14.9248 7.41885L5.14153 7.40493L5.14308 6.31869C5.14344 6.06912 5.34691 5.86637 5.59666 5.86673L6.14017 5.8675L6.13888 6.77271L7.04475 6.77399L7.04604 5.86879L13.0247 5.87729L13.0234 6.7825L13.9293 6.78379L13.9306 5.87858L14.4741 5.87936C14.7239 5.87971 14.9267 6.08304 14.9264 6.3326L14.9248 7.41885Z" fill="white"/>
<path d="M12.769 9.54228C11.0832 9.53988 9.70976 10.9084 9.70736 12.593C9.70496 14.2776 11.0745 15.65 12.7603 15.6524C14.4461 15.6548 15.8195 14.2863 15.8219 12.6017C15.8243 10.9171 14.4548 9.54467 12.769 9.54228ZM12.7616 14.7472C11.5753 14.7455 10.6115 13.7797 10.6132 12.5943C10.6149 11.4088 11.5814 10.4458 12.7677 10.4475C13.954 10.4492 14.9178 11.415 14.9161 12.6004C14.9144 13.7858 13.9479 14.7489 12.7616 14.7472Z" fill="white"/>
<path d="M13.1978 11.0808L12.292 11.0795L12.2892 13.0484L13.965 13.0507L13.9663 12.1455L13.1963 12.1444L13.1978 11.0808Z" fill="white"/>
<path d="M8.67049 11.0747L7.76528 11.0734L7.76399 11.9786L8.6692 11.9799L8.67049 11.0747Z" fill="white"/>
<path d="M6.85491 11.0726L5.9497 11.0714L5.94841 11.9766L6.85362 11.9778L6.85491 11.0726Z" fill="white"/>
<path d="M6.859 9.26115L5.95379 9.25987L5.9525 10.1651L6.85771 10.1664L6.859 9.26115Z" fill="white"/>
<path d="M6.85491 12.8841L5.9497 12.8828L5.94841 13.7881L6.85362 13.7893L6.85491 12.8841Z" fill="white"/>
<path d="M8.67458 9.26524L7.76937 9.26395L7.76808 10.1692L8.67329 10.1704L8.67458 9.26524Z" fill="white"/>
<path d="M8.6664 12.8862L7.76119 12.8849L7.7599 13.7901L8.66511 13.7914L8.6664 12.8862Z" fill="white"/>
</g>
<defs>
<clipPath id="clip0_25_2732">
<path d="M4.20148 6.2891C4.20267 5.13282 5.14099 4.1973 6.29728 4.19957L13.705 4.2141C14.8613 4.21636 15.7977 5.15556 15.7965 6.31184L15.7867 15.8044L4.19167 15.7817L4.20148 6.2891Z" fill="white"/>
</clipPath>
</defs>
</svg>
