<svg width="18" height="18" viewBox="0 0 18 18" fill="none" xmlns="http://www.w3.org/2000/svg">
<path d="M8.4089 10.6036L10.0488 9.37478L8.4089 8.14597C8.34336 8.10036 8.29544 8.04236 8.27021 7.97806C8.24497 7.91376 8.24334 7.84554 8.2655 7.78061C8.28766 7.71568 8.33277 7.65642 8.3961 7.60909C8.45943 7.56176 8.53862 7.5281 8.62534 7.51167C8.7119 7.49504 8.80283 7.4962 8.88859 7.51503C8.97434 7.53385 9.05174 7.56964 9.11265 7.61863L11.1044 9.11111C11.1976 9.18107 11.25 9.2759 11.25 9.37478C11.25 9.47366 11.1976 9.56849 11.1044 9.63845L9.11265 11.1309C9.05179 11.18 8.97437 11.2159 8.88856 11.2349C8.80275 11.2538 8.71173 11.255 8.62507 11.2384C8.53841 11.2218 8.45934 11.188 8.39617 11.1405C8.33301 11.0931 8.28809 11.0337 8.26616 10.9687C8.24398 10.9039 8.24552 10.8357 8.27064 10.7715C8.29576 10.7072 8.34352 10.6492 8.4089 10.6036Z" fill="white"/>
<path d="M13.8844 15.75L3.36562 15.75C2.7498 15.75 2.25 15.2502 2.25 14.6344L2.25 4.11562C2.25 3.81974 2.36754 3.53598 2.57676 3.32676C2.78598 3.11754 3.06974 3 3.36562 3L13.8844 3C14.1803 3 14.464 3.11754 14.6732 3.32676C14.8825 3.53598 15 3.81974 15 4.11562L15 14.6344C15 15.2502 14.5002 15.75 13.8844 15.75ZM14.0437 14.6344L14.0437 4.11562C14.0437 4.02765 13.9724 3.95625 13.8844 3.95625L6.7125 3.95625L6.7125 14.7937L13.8844 14.7937C13.9266 14.7937 13.9672 14.777 13.9971 14.7471C14.027 14.7172 14.0437 14.6766 14.0437 14.6344ZM5.75625 3.95625H3.36562C3.32336 3.95625 3.28282 3.97304 3.25293 4.00293C3.22304 4.03282 3.20625 4.07336 3.20625 4.11562L3.20625 14.6344C3.20625 14.6766 3.22304 14.7172 3.25293 14.7471C3.28282 14.777 3.32336 14.7937 3.36562 14.7937H5.75625L5.75625 3.95625Z" fill="white"/>
</svg>
