<svg width="35" height="28" viewBox="0 0 35 28" fill="none" xmlns="http://www.w3.org/2000/svg">
<path d="M8.00371 13.9995C7.22381 13.9995 6.59157 14.5995 6.59157 15.3397C6.59157 16.0799 7.22381 16.6799 8.00371 16.6799C8.78364 16.6799 9.41586 16.0799 9.41586 15.3397C9.41586 14.5995 8.78364 13.9995 8.00371 13.9995Z" fill="black"/>
<path d="M10.8317 15.3397C10.8317 14.5995 11.4639 13.9995 12.2438 13.9995C13.0237 13.9995 13.6559 14.5995 13.6559 15.3397C13.6559 16.0799 13.0237 16.6799 12.2438 16.6799C11.4639 16.6799 10.8317 16.0799 10.8317 15.3397Z" fill="black"/>
<path d="M16.4761 13.9995C15.6961 13.9995 15.0639 14.5995 15.0639 15.3397C15.0639 16.0799 15.6961 16.6799 16.4761 16.6799C17.256 16.6799 17.8882 16.0799 17.8882 15.3397C17.8882 14.5995 17.256 13.9995 16.4761 13.9995Z" fill="black"/>
<path fill-rule="evenodd" clip-rule="evenodd" d="M3.60757 6.08768C1.61516 6.08768 0 7.74059 0 9.77955V20.1168C0 22.1557 1.61516 23.8087 3.60757 23.8087C3.61239 23.8087 3.61631 23.8126 3.61632 23.8174L3.62301 27.2631C3.6236 27.565 3.80375 27.8361 4.0779 27.9477C4.35204 28.0593 4.66494 27.9888 4.86799 27.7697L6.16538 26.3701C7.67926 24.7369 9.80538 23.8087 12.0323 23.8087H19.4809C21.4732 23.8087 23.0884 22.1557 23.0884 20.1168V9.77955C23.0884 7.74059 21.4732 6.08768 19.4809 6.08768H3.60757ZM1.44303 9.77955C1.44303 8.55617 2.41213 7.56443 3.60757 7.56443H19.4809C20.6763 7.56443 21.6454 8.55617 21.6454 9.77955V20.1168C21.6454 21.3402 20.6763 22.3319 19.4809 22.3319H8.22958C8.0316 22.3319 7.84234 22.4151 7.70612 22.5621L6.65686 23.6941C6.08724 24.3086 5.05952 23.9067 5.05789 23.0688C5.05711 22.6616 4.7343 22.3319 4.33639 22.3319H3.60757C2.41213 22.3319 1.44303 21.3402 1.44303 20.1168V9.77955Z" fill="#9E9E9E"/>
<path d="M26.2958 15.8256C30.9005 15.8256 34.6333 12.2829 34.6333 7.91278C34.6333 3.54267 30.9005 0 26.2958 0C21.6912 0 17.9584 3.54267 17.9584 7.91278C17.9584 12.2829 21.6912 15.8256 26.2958 15.8256Z" fill="#FF7363"/>
<path d="M26.0517 7.17575C26.0517 7.60773 25.9371 7.98372 25.7078 8.30371H25.7158L23.9078 10.9996H23.0679L24.3958 9.03968C24.2785 9.05035 24.1878 9.05568 24.1238 9.05568C23.5585 9.05568 23.0945 8.88236 22.7319 8.5357C22.3745 8.18371 22.1959 7.7304 22.1959 7.17575C22.1959 6.6211 22.3745 6.17045 22.7319 5.8238C23.0945 5.47181 23.5585 5.29581 24.1238 5.29581C24.6891 5.29581 25.1504 5.47181 25.5078 5.8238C25.8704 6.17045 26.0517 6.6211 26.0517 7.17575ZM23.2598 6.32778C23.0412 6.5411 22.9319 6.82376 22.9319 7.17575C22.9319 7.52774 23.0412 7.81306 23.2598 8.03172C23.4838 8.24505 23.7718 8.35171 24.1238 8.35171C24.4758 8.35171 24.7611 8.24505 24.9798 8.03172C25.2038 7.81306 25.3158 7.52774 25.3158 7.17575C25.3158 6.82376 25.2064 6.5411 24.9878 6.32778C24.7691 6.11445 24.4811 6.00779 24.1238 6.00779C23.7718 6.00779 23.4838 6.11445 23.2598 6.32778ZM30.1803 7.86373V8.5277H28.7883V9.91965H28.1244V8.5277H26.7404V7.86373H28.1244V6.47977H28.7883V7.86373H30.1803Z" fill="white"/>
</svg>
