<svg width="18" height="18" viewBox="0 0 18 18" fill="none" xmlns="http://www.w3.org/2000/svg">
<path d="M8.99986 1C9.617 0.999945 10.2107 1.23657 10.6586 1.66114C11.1064 2.08571 11.3744 2.66588 11.4074 3.28214L11.4106 3.41071H14.9463C15.0684 3.41075 15.186 3.45716 15.2753 3.54055C15.3646 3.62395 15.4188 3.73812 15.4272 3.85999C15.4355 3.98187 15.3972 4.10236 15.3202 4.19712C15.2431 4.29188 15.1329 4.35385 15.0119 4.3705L14.9463 4.375H14.2655L13.4812 14.0519C13.4323 14.6556 13.1579 15.2188 12.7126 15.6294C12.2674 16.04 11.6839 16.2679 11.0782 16.2679H6.9215C6.31583 16.2679 5.73234 16.04 5.28708 15.6294C4.84183 15.2188 4.56744 14.6556 4.5185 14.0519L3.73357 4.375H3.05343C2.93692 4.37499 2.82436 4.3328 2.73655 4.25622C2.64874 4.17964 2.59163 4.07386 2.57579 3.95843L2.57129 3.89286C2.57129 3.77635 2.61349 3.66378 2.69007 3.57597C2.76665 3.48817 2.87243 3.43106 2.98786 3.41521L3.05343 3.41071H6.58915C6.58915 2.77135 6.84313 2.15818 7.29523 1.70608C7.74732 1.25399 8.3605 1 8.99986 1ZM13.2986 4.375H4.70107L5.47957 13.9741C5.50897 14.3364 5.67363 14.6742 5.94081 14.9206C6.20799 15.1669 6.5581 15.3036 6.9215 15.3036H11.0782C11.4416 15.3036 11.7917 15.1669 12.0589 14.9206C12.3261 14.6742 12.4908 14.3364 12.5201 13.9741L13.298 4.375H13.2986ZM7.55343 6.78571C7.66994 6.78572 7.78251 6.82791 7.87032 6.90449C7.95812 6.98107 8.01523 7.08686 8.03107 7.20229L8.03557 7.26786V12.4107C8.03554 12.5329 7.98913 12.6505 7.90574 12.7397C7.82234 12.829 7.70817 12.8833 7.58629 12.8916C7.46442 12.8999 7.34393 12.8617 7.24917 12.7846C7.15441 12.7075 7.09244 12.5973 7.07579 12.4763L7.07129 12.4107V7.26786C7.07129 7.13998 7.12209 7.01735 7.21251 6.92693C7.30293 6.83651 7.42556 6.78571 7.55343 6.78571ZM10.4463 6.78571C10.5628 6.78572 10.6754 6.82791 10.7632 6.90449C10.851 6.98107 10.9081 7.08686 10.9239 7.20229L10.9284 7.26786V12.4107C10.9284 12.5329 10.882 12.6505 10.7986 12.7397C10.7152 12.829 10.601 12.8833 10.4792 12.8916C10.3573 12.8999 10.2368 12.8617 10.142 12.7846C10.0473 12.7075 9.9853 12.5973 9.96865 12.4763L9.96415 12.4107V7.26786C9.96415 7.13998 10.0149 7.01735 10.1054 6.92693C10.1958 6.83651 10.3184 6.78571 10.4463 6.78571ZM8.99986 1.96429C8.63335 1.96424 8.28049 2.10333 8.01259 2.35345C7.74469 2.60357 7.58173 2.94606 7.55665 3.31171L7.55343 3.41071H10.4463L10.4431 3.31171C10.418 2.94606 10.255 2.60357 9.98713 2.35345C9.71923 2.10333 9.36637 1.96424 8.99986 1.96429Z" fill="#F7442F"/>
</svg>
