<svg width="13" height="9" viewBox="0 0 13 9" fill="none" xmlns="http://www.w3.org/2000/svg">
<g clip-path="url(#clip0_25_2672)">
<path d="M8.68365 8.67281L8.683 7.56047L7.31833 7.55973L7.31789 6.81817L8.68256 6.81891L8.68191 5.70657L9.59169 5.70706L9.59234 6.8194L10.957 6.82014L10.9574 7.5617L9.59278 7.56096L9.59343 8.6733L8.68365 8.67281ZM3.22454 7.9283C2.97435 7.92816 2.76005 7.85537 2.58165 7.70993C2.40325 7.56449 2.31414 7.38992 2.31432 7.18624L2.31171 2.73687C2.31159 2.53295 2.40065 2.35836 2.57888 2.21311C2.75711 2.06786 2.97117 1.99542 3.22105 1.99581L3.67594 1.99605L3.67551 1.25449L4.58529 1.25498L4.58572 1.99655L7.31506 1.99802L7.31463 1.25646L8.22441 1.25695L8.22484 1.99852L8.67973 1.99876C8.92992 1.9989 9.14422 2.07169 9.32262 2.21713C9.50102 2.36257 9.59013 2.53713 9.58995 2.74082L9.59128 5.00258C9.43964 4.98396 9.288 4.9746 9.13637 4.97452C8.98474 4.97444 8.83312 4.98363 8.6815 5.00208L8.68104 4.22344L3.22236 4.22049L3.2241 7.18673L6.40833 7.18846C6.4084 7.31205 6.41985 7.43565 6.44267 7.55926C6.46548 7.68286 6.50725 7.80648 6.56798 7.93011L3.22454 7.9283ZM3.22192 3.47893L8.6806 3.48188L8.68017 2.74032L3.22149 2.73737L3.22192 3.47893Z" fill="#223484"/>
</g>
<defs>
<clipPath id="clip0_25_2672">
<rect width="12.3889" height="8.48394" rx="2" transform="matrix(1.04889 0.000567864 0.000615687 1.04889 0 0)" fill="white"/>
</clipPath>
</defs>
</svg>
