<svg width="17" height="17" viewBox="0 0 17 17" fill="none" xmlns="http://www.w3.org/2000/svg">
<g clip-path="url(#clip0_25_3070)">
<path d="M14.8737 5.66667C13.8112 5.66667 13.2445 6.65833 13.5279 7.4375L10.9779 9.9875C10.7654 9.91667 10.482 9.91667 10.2695 9.9875L8.42786 8.14583C8.7112 7.36667 8.14453 6.375 7.08203 6.375C6.09036 6.375 5.45287 7.36667 5.7362 8.14583L2.47786 11.3333C1.6987 11.1208 0.707031 11.6875 0.707031 12.75C0.707031 13.5292 1.34453 14.1667 2.1237 14.1667C3.11536 14.1667 3.75286 13.175 3.46953 12.3958L6.65703 9.1375C6.86953 9.20833 7.15286 9.20833 7.36536 9.1375L9.20703 10.9792C8.99453 11.6875 9.5612 12.75 10.6237 12.75C11.6862 12.75 12.2529 11.7583 11.9695 10.9792L14.5195 8.42917C15.2987 8.64167 16.2904 8.075 16.2904 7.08333C16.2904 6.30417 15.6529 5.66667 14.8737 5.66667ZM10.6237 6.375L11.2612 4.8875L12.7487 4.25L11.2612 3.6125L10.6237 2.125L9.9862 3.6125L8.4987 4.25L9.9862 4.8875L10.6237 6.375ZM2.47786 7.79167L2.83203 6.375L4.2487 6.02083L2.83203 5.66667L2.47786 4.25L2.1237 5.66667L0.707031 6.02083L2.1237 6.375L2.47786 7.79167Z" fill="#00B7A2"/>
</g>
<defs>
<clipPath id="clip0_25_3070">
<rect width="17" height="17" fill="white"/>
</clipPath>
</defs>
</svg>
