<svg width="15" height="15" viewBox="0 0 15 15" fill="none" xmlns="http://www.w3.org/2000/svg">
<path d="M11.4141 14.6113V12.7363H9.53906V11.4863H11.4141V9.61133H12.6641V11.4863H14.5391V12.7363H12.6641V14.6113H11.4141ZM3.91406 13.3613C3.57031 13.3613 3.27594 13.2388 3.03094 12.9938C2.78594 12.7488 2.66365 12.4547 2.66406 12.1113V4.61133C2.66406 4.26758 2.78656 3.9732 3.03156 3.7282C3.27656 3.4832 3.57073 3.36091 3.91406 3.36133H4.53906V2.11133H5.78906V3.36133H9.53906V2.11133H10.7891V3.36133H11.4141C11.7578 3.36133 12.0522 3.48383 12.2972 3.72883C12.5422 3.97383 12.6645 4.26799 12.6641 4.61133V8.42383C12.4557 8.39258 12.2474 8.37695 12.0391 8.37695C11.8307 8.37695 11.6224 8.39258 11.4141 8.42383V7.11133H3.91406V12.1113H8.28906C8.28906 12.3197 8.30469 12.528 8.33594 12.7363C8.36719 12.9447 8.42448 13.153 8.50781 13.3613H3.91406ZM3.91406 5.86133H11.4141V4.61133H3.91406V5.86133Z" fill="#223484"/>
</svg>
