<svg width="10" height="11" viewBox="0 0 10 11" fill="none" xmlns="http://www.w3.org/2000/svg">
<g clip-path="url(#clip0_25_2651)">
<path d="M3.5456 7.19186L3.1461 8.92383C3.12188 9.03841 3.06942 9.13096 2.98871 9.20147C2.90801 9.27199 2.81116 9.30724 2.69816 9.30724C2.54482 9.30724 2.41972 9.24114 2.32287 9.10892C2.22602 8.97671 2.19777 8.83128 2.23813 8.67263L2.5771 7.19186H1.25752C1.09611 7.19186 0.966975 7.12346 0.870125 6.98667C0.773275 6.84987 0.745027 6.69792 0.785381 6.5308C0.809594 6.4074 0.86609 6.31045 0.954869 6.23993C1.04365 6.16942 1.14453 6.13417 1.25752 6.13417H2.81923L3.30348 4.01878H1.9839C1.82248 4.01878 1.69335 3.95038 1.5965 3.81359C1.49965 3.67679 1.4714 3.52484 1.51176 3.35772C1.53597 3.23433 1.59246 3.13737 1.68124 3.06686C1.77002 2.99634 1.87091 2.96109 1.9839 2.96109H3.5456L3.94511 1.22912C3.96932 1.11453 4.02178 1.02199 4.10249 0.951472C4.1832 0.880959 4.28005 0.845703 4.39304 0.845703C4.54638 0.845703 4.67148 0.911809 4.76833 1.04402C4.86518 1.17623 4.89343 1.32166 4.85307 1.48032L4.5141 2.96109H6.45109L6.8506 1.22912C6.87481 1.11453 6.92727 1.02199 7.00798 0.951472C7.08869 0.880959 7.18554 0.845703 7.29853 0.845703C7.45188 0.845703 7.57697 0.911809 7.67382 1.04402C7.77067 1.17623 7.79892 1.32166 7.75857 1.48032L7.41959 2.96109H8.73917C8.90059 2.96109 9.02972 3.02931 9.12657 3.16575C9.22342 3.30219 9.25167 3.45433 9.21131 3.62215C9.1871 3.74554 9.13061 3.8425 9.04183 3.91301C8.95305 3.98352 8.85216 4.01878 8.73917 4.01878H7.17747L6.69322 6.13417H8.0128C8.17421 6.13417 8.30335 6.20256 8.4002 6.33936C8.49705 6.47615 8.52529 6.62811 8.48494 6.79522C8.46073 6.91862 8.40423 7.01558 8.31545 7.08609C8.22667 7.1566 8.12579 7.19186 8.0128 7.19186H6.45109L6.05159 8.92383C6.02738 9.03841 5.97492 9.13096 5.89421 9.20147C5.8135 9.27199 5.71665 9.30724 5.60366 9.30724C5.45031 9.30724 5.32522 9.24114 5.22837 9.10892C5.13152 8.97671 5.10327 8.83128 5.14362 8.67263L5.4826 7.19186H3.5456ZM3.78773 6.13417H5.72472L6.20897 4.01878H4.27197L3.78773 6.13417Z" fill="#223484"/>
</g>
<defs>
<clipPath id="clip0_25_2651">
<rect width="10" height="11" fill="white"/>
</clipPath>
</defs>
</svg>
