<svg width="12" height="11" viewBox="0 0 12 11" fill="none" xmlns="http://www.w3.org/2000/svg">
<g clip-path="url(#clip0_25_2698)">
<path d="M9.65143 4.1215C10.0597 4.12148 10.3907 3.81389 10.3907 3.43446C10.3907 3.05503 10.0597 2.74745 9.65142 2.74746C9.24313 2.74747 8.91214 3.05507 8.91214 3.4345C8.91215 3.81393 9.24314 4.12151 9.65143 4.1215Z" fill="#223484"/>
<path d="M5.95561 9.95992L3.36812 9.96L3.36812 9.27298L5.9556 9.2729C7.79013 9.27284 9.28236 7.88605 9.28234 6.18121L9.28233 4.80718L10.0216 4.80716L10.0216 6.18119C10.0216 8.26457 8.19748 9.95985 5.95561 9.95992Z" fill="#223484"/>
<path d="M5.21631 7.2116C4.19721 7.21163 3.3681 6.44116 3.36809 5.49411C3.36808 4.54705 4.19718 3.77654 5.21628 3.77651C6.23538 3.77647 7.06449 4.54694 7.0645 5.49399C7.06451 6.44105 6.23541 7.21156 5.21631 7.2116ZM5.21629 4.46352C4.6049 4.46354 4.10737 4.92592 4.10737 5.49409C4.10738 6.06225 4.60492 6.5246 5.2163 6.52458C5.82769 6.52456 6.32522 6.06218 6.32522 5.49402C6.32521 4.92585 5.82767 4.46351 5.21629 4.46352Z" fill="#223484"/>
<path d="M0.780493 8.24172C1.18879 8.2417 1.51978 7.93409 1.51979 7.55466C1.5198 7.17523 1.18882 6.86766 0.780524 6.86769C0.372229 6.86771 0.0412349 7.17532 0.0412266 7.55475C0.0412182 7.93418 0.372199 8.24175 0.780493 8.24172Z" fill="#223484"/>
<path d="M1.15237 6.18173L0.413084 6.18172L0.412906 4.80768C0.412637 2.7243 2.2366 1.02912 4.47847 1.02917L7.06596 1.02922L7.06604 1.71624L4.47856 1.71618C2.64403 1.71614 1.15197 3.10286 1.15219 4.80769L1.15237 6.18173Z" fill="#223484"/>
</g>
<defs>
<clipPath id="clip0_25_2698">
<rect width="11.485" height="10.9321" rx="2" transform="matrix(1.00551 0.000664634 0.00100136 1.00551 0 0)" fill="white"/>
</clipPath>
</defs>
</svg>
