<svg width="11" height="11" viewBox="0 0 11 11" fill="none" xmlns="http://www.w3.org/2000/svg">
<g clip-path="url(#clip0_25_2663)">
<path d="M5.45551 0.891968C5.37666 0.891961 5.29781 0.894017 5.21897 0.897516L5.23604 1.26841C5.3085 1.26512 5.38095 1.26327 5.45553 1.26327C7.98718 1.2635 10.0374 3.2481 10.0375 5.69871C10.0377 8.14931 7.9878 10.1335 5.45616 10.1333C3.54677 10.1331 1.91114 9.00464 1.22271 7.39765L1.81149 7.22649L0.779395 6.51886L0.373516 7.64305L0.85405 7.50489C1.59214 9.26246 3.37631 10.5044 5.45618 10.5046C8.19667 10.5049 10.4213 8.3515 10.4211 5.69874C10.4209 3.04598 8.19599 0.892217 5.45551 0.891968ZM4.79916 0.93399C4.51574 0.970063 4.24297 1.02883 3.9766 1.10884L4.09596 1.46138C4.33889 1.38838 4.59248 1.33457 4.85033 1.30159L4.79916 0.93399ZM3.5845 1.24577C3.32027 1.34992 3.06881 1.47511 2.83015 1.61949L3.03262 1.93326C3.25211 1.80043 3.48438 1.68514 3.72731 1.58945L3.5845 1.24577ZM2.48068 1.8509C2.25698 2.0132 2.04777 2.19342 1.85527 2.38965L2.13338 2.64298C2.31024 2.46209 2.50415 2.29626 2.70872 2.14673L2.60642 2.01119L2.48068 1.8509ZM3.96175 2.02802L3.86801 2.38777L8.49239 3.53263L8.58613 3.17371L3.96175 2.02802ZM1.57868 2.69657C1.40417 2.90696 1.24755 3.13385 1.11119 3.37106L1.4447 3.55262C1.57063 3.33191 1.7151 3.12358 1.8764 2.92763L1.57868 2.69657ZM4.29851 2.87834C4.21544 3.41466 4.35826 4.01701 4.60123 4.5121C4.73763 4.78853 4.90387 5.03196 5.06797 5.20937C5.15748 5.30633 5.24698 5.3806 5.32797 5.43424L5.21292 5.87154C5.1149 5.87979 4.99982 5.90453 4.87197 5.94784C4.63969 6.0262 4.37332 6.16232 4.11761 6.34176C3.65734 6.66352 3.23543 7.12348 3.04367 7.63298L6.61318 8.51824C6.69626 7.98192 6.55344 7.37957 6.31047 6.88448C6.17406 6.60805 6.00783 6.36462 5.84372 6.18721C5.75422 6.09025 5.66471 6.01598 5.58373 5.96234L5.69877 5.52504C5.79466 5.51473 5.91187 5.49205 6.03973 5.44874C6.272 5.37038 6.53837 5.23426 6.79408 5.05482C7.25435 4.73306 7.67626 4.2731 7.86802 3.7636L4.29851 2.87834ZM0.921765 3.73616C0.808199 3.98368 0.715092 4.23946 0.644787 4.50556L1.01729 4.59223C1.08185 4.34882 1.16728 4.11367 1.2719 3.88677L0.921765 3.73616ZM0.558722 4.90367C0.514202 5.16151 0.490566 5.42761 0.490585 5.69784L0.490586 5.7164L0.874168 5.71231L0.874167 5.69787C0.87415 5.44828 0.895869 5.2028 0.936981 4.96352L0.558722 4.90367ZM2.4193 7.86395L2.32556 8.22287L6.94994 9.36815L7.04368 9.00923L2.4193 7.86395Z" fill="#223484"/>
</g>
<defs>
<clipPath id="clip0_25_2663">
<rect width="10.1112" height="10.1928" rx="2" transform="matrix(1.07908 9.7851e-05 7.5708e-05 1.07908 0 0)" fill="white"/>
</clipPath>
</defs>
</svg>
