<svg width="23" height="23" viewBox="0 0 23 23" fill="none" xmlns="http://www.w3.org/2000/svg">
<g clip-path="url(#clip0_25_2799)">
<path d="M18.9068 6.63866L16.3613 4.09322C16.3017 4.03356 16.2209 4 16.1364 4H6.27274C5.57112 4 5 4.57079 5 5.27274V16.7273C5 17.4292 5.57112 18 6.27274 18H17.7273C18.4289 18 19 17.4292 19 16.7273V6.86364C19 6.77913 18.9664 6.69832 18.9068 6.63866ZM8.18183 4.63635H15.1818V8.45454C15.1818 8.80533 14.8966 9.09089 14.5455 9.09089H8.81818C8.46706 9.09089 8.18183 8.80533 8.18183 8.45454V4.63635ZM16.4546 17.3636H7.54545V11.6364H16.4546V17.3636ZM18.3636 16.7273C18.3636 17.0781 18.0784 17.3636 17.7273 17.3636H17.0909V11.3182C17.0909 11.1423 16.9486 11 16.7727 11H7.22728C7.05141 11 6.90909 11.1423 6.90909 11.3182V17.3636H6.27274C5.92161 17.3636 5.63638 17.0781 5.63638 16.7273V5.27274C5.63638 4.92194 5.92164 4.63638 6.27274 4.63638H7.54548V8.45457C7.54545 9.15649 8.11656 9.72728 8.81818 9.72728H14.5455C15.2471 9.72728 15.8182 9.15649 15.8182 8.45454V4.63635H16.0046L18.3636 6.9954V16.7273Z" fill="#2196F3"/>
<path d="M12.9539 8.45429H14.2267C14.4025 8.45429 14.5449 8.31197 14.5449 8.1361V5.59065C14.5449 5.41478 14.4025 5.27246 14.2267 5.27246H12.9539C12.7781 5.27246 12.6357 5.41478 12.6357 5.59065V8.1361C12.6357 8.31197 12.7781 8.45429 12.9539 8.45429ZM13.2721 5.90884H13.9085V7.81794H13.2721V5.90884Z" fill="#2196F3"/>
</g>
<defs>
<clipPath id="clip0_25_2799">
<rect width="14" height="14" fill="white" transform="translate(5 4)"/>
</clipPath>
</defs>
</svg>
