<svg width="156" height="34" viewBox="0 0 156 34" fill="none" xmlns="http://www.w3.org/2000/svg">
<path d="M34.3203 0C35.938 2.83329 37.5557 5.66659 39.1733 8.47809C35.938 8.49988 32.6808 8.49988 29.4455 8.52168C28.9645 8.52168 28.5055 8.49988 28.0245 8.49988C25.2483 8.47809 22.4501 8.47809 19.6739 8.47809C20.745 6.64734 21.8162 4.8384 22.8655 3.00765C23.4338 2.0269 23.9585 1.00255 24.4831 0C27.7622 0 31.0413 0 34.3203 0Z" fill="#019DD7"/>
<path d="M24.483 0C23.9365 1.00255 23.4337 2.0051 22.8654 3.00765C21.8161 4.83839 20.7449 6.64734 19.6738 8.47809C19.63 8.52168 19.5644 8.54347 19.4989 8.54347C16.2854 8.52168 13.0719 8.49988 9.85843 8.49988C10.4924 7.32298 11.1263 6.14607 11.7821 4.99096C12.7221 3.31277 13.684 1.65639 14.6459 0C17.9249 0 21.204 0 24.483 0Z" fill="#02BAF0"/>
<path d="M0 25.0631C0.218604 24.7798 0.459069 24.5183 0.633952 24.2349C1.96744 21.9465 3.30092 19.6581 4.63441 17.3478C4.65627 17.2825 4.74371 17.2607 4.78743 17.2171C4.96231 17.326 5.18092 17.3914 5.26836 17.544C5.74929 18.3068 6.20836 19.0696 6.66742 19.8324C7.58556 21.4234 8.48184 23.0144 9.39998 24.5836C9.53114 24.7798 9.81532 24.8888 10.0339 25.0413C9.85904 25.4118 9.68416 25.8041 9.48742 26.1746C8.26324 28.3323 7.03905 30.49 5.81487 32.6258C5.61813 32.9963 5.37766 33.3233 5.07161 33.7809C4.21906 32.3425 3.41022 30.9694 2.62325 29.6182C1.88 28.3541 1.13674 27.0682 0.393487 25.8041C0.306046 25.6516 0.131162 25.5644 0 25.4554C0 25.3464 0 25.2157 0 25.0631Z" fill="#CDEAF2"/>
<path d="M155.012 10.7C154.859 10.8962 154.706 11.0923 154.509 11.3539C154.334 11.1577 154.181 10.9834 153.984 10.7654C153.919 11.1141 153.853 11.4192 153.744 11.8987C153.175 11.2449 153.591 10.5911 153.307 9.9808C153.132 10.0026 152.891 10.0026 152.629 10.0462C152.607 10.6346 152.563 11.1795 152.542 11.7462C151.951 11.3103 152.214 10.7436 152.082 10.1988C151.929 10.0898 151.711 9.95901 151.492 9.82824C151.514 9.78465 151.536 9.71927 151.536 9.67568C152.301 9.67568 153.044 9.67568 153.897 9.67568C154.05 9.89363 154.247 10.177 154.443 10.4603C154.924 10.3513 154.771 9.50132 155.449 9.65389C155.515 10.2205 155.58 10.809 155.646 11.3757C155.646 11.5282 155.646 11.659 155.646 11.8116C155.493 11.768 155.318 11.7462 155.099 11.7026C155.121 11.3975 155.121 11.0923 155.143 10.809C155.143 10.7436 155.143 10.6782 155.121 10.6128C155.099 10.5911 155.055 10.6564 155.012 10.7Z" fill="#273887"/>
<path d="M24.4839 33.9999C24.4839 33.9345 24.4839 33.8691 24.4839 33.8037C24.5494 33.7819 24.6369 33.7601 24.7025 33.7383C27.9159 33.7601 31.1076 33.7601 34.321 33.7819C34.321 33.8473 34.321 33.9127 34.321 33.9999C31.042 33.9999 27.7629 33.9999 24.4839 33.9999Z" fill="#CDEAF2"/>
<path d="M155.647 11.3333C155.581 10.7666 155.516 10.1782 155.45 9.6115C155.516 9.52432 155.581 9.45894 155.647 9.37176C155.647 10.0256 155.647 10.6794 155.647 11.3333Z" fill="#0D6EAF"/>
<path d="M53.2952 23.3863C53.2952 26.2196 53.2952 28.8132 53.2952 31.4939C52.0928 31.4939 50.9342 31.4939 49.71 31.4939C49.6882 31.2978 49.6226 31.058 49.6226 30.8183C49.6226 26.2414 49.557 21.6646 49.6445 17.1095C49.7101 13.5134 51.5463 10.0698 55.6779 9.0455C59.3068 8.15192 62.5858 8.78396 65.0561 11.7916C68.4881 15.9762 67.1984 23.844 60.6403 25.3696C58.2356 25.9363 55.9403 25.5876 53.9728 23.953C53.8198 23.8222 53.6449 23.6915 53.2952 23.3863ZM63.0449 17.1749C63.023 16.848 63.0012 16.521 62.9575 16.1941C62.6733 13.9493 61.0337 12.3583 58.5635 12.0749C56.7928 11.8788 54.5631 12.7724 53.6668 14.9518C53.2514 15.9544 53.2077 17.0005 53.317 18.0467C53.7105 21.3594 57.23 23.2774 60.2468 21.8389C62.2142 20.9017 62.9793 19.2236 63.0449 17.1749Z" fill="#223484"/>
<path d="M111.924 25.1502C110.963 25.2592 110.11 25.4117 109.236 25.4335C107.028 25.4771 104.798 25.5643 102.59 25.4553C101.519 25.4117 100.448 25.0848 99.4421 24.6707C97.2779 23.7989 96.6002 22.2079 96.7314 19.9631C96.9282 16.7375 98.8737 15.6042 102 15.2773C103.792 15.0811 105.629 15.2337 107.443 15.2337C107.683 15.2337 107.946 15.2337 108.186 15.2337C108.274 13.5119 107.509 12.3568 105.913 11.9863C103.902 11.5286 101.869 11.5068 99.923 12.3786C99.6607 12.4876 99.3984 12.6183 99.1361 12.7273C97.737 11.6594 97.8463 10.0902 99.4202 9.37094C100.142 9.04402 100.95 8.84787 101.716 8.78249C103.574 8.60813 105.41 8.65172 107.246 9.153C110.263 9.9594 111.924 12.0517 111.946 15.1247C111.968 18.2413 111.946 21.358 111.946 24.4964C111.968 24.6707 111.946 24.8451 111.924 25.1502ZM108.317 18.0452C107.618 17.958 106.984 17.8272 106.328 17.7836C104.885 17.6965 103.421 17.6093 102.022 18.0888C100.95 18.4593 100.404 19.3093 100.426 20.4208C100.448 21.4887 100.972 22.2733 102.065 22.5785C104.12 23.1233 106.197 22.9926 108.296 22.622C108.317 21.0964 108.317 19.658 108.317 18.0452Z" fill="#223484"/>
<path d="M86.8291 17.1734C86.9821 21.5323 83.4407 25.5861 78.0849 25.6297C73.0789 25.6733 69.2315 21.9246 69.2752 17.108C69.297 12.2696 73.057 8.7171 78.0849 8.7171C83.244 8.6953 87.004 12.6837 86.8291 17.1734ZM78.0412 11.9645C75.1994 11.9645 73.1008 14.1875 73.1008 17.1952C73.1008 20.0939 75.2431 22.3605 77.9975 22.3605C80.9049 22.3605 83.0035 20.2246 82.9817 17.1734C82.9817 13.5555 80.4677 11.9427 78.0412 11.9645Z" fill="#223484"/>
<path d="M149.109 13.0986C147.054 11.7909 144.759 11.3986 142.354 11.573C141.808 11.6165 141.261 11.7255 140.759 11.9217C139.95 12.205 139.578 12.7499 139.6 13.4691C139.622 14.2319 140.081 14.7114 140.759 14.8639C141.917 15.1255 143.098 15.2998 144.278 15.496C145.393 15.6921 146.486 15.8883 147.601 16.1062C147.885 16.1716 148.147 16.2806 148.432 16.3895C151.427 17.719 152.082 21.4677 149.743 23.7561C148.825 24.6497 147.71 25.1292 146.464 25.3471C142.879 26.001 139.447 25.4997 136.168 23.9523C136.015 23.8869 135.862 23.7561 135.643 23.6036C136.081 22.7972 136.518 22.0125 136.911 21.2933C138.42 21.7074 139.841 22.2087 141.327 22.5138C142.792 22.8189 144.3 22.8407 145.765 22.4266C146.246 22.2741 146.792 21.969 147.076 21.5767C147.688 20.6831 147.142 19.5498 145.94 19.2446C144.934 18.9831 143.863 18.8741 142.814 18.7434C141.414 18.5472 139.994 18.46 138.66 17.8716C137.174 17.2177 136.146 16.1498 135.949 14.4716C135.753 12.5973 136.299 11.0499 137.939 9.96015C138.988 9.26273 140.19 8.93581 141.414 8.80504C143.447 8.60889 145.48 8.65248 147.492 9.17555C148.016 9.30632 148.541 9.50247 149 9.764C150.618 10.6576 150.661 11.9435 149.109 13.0986Z" fill="#223484"/>
<path d="M93.6505 25.1521C92.4045 25.1521 91.2896 25.1521 90.0873 25.1521C90.0654 24.8251 90.0217 24.4982 90.0217 24.1931C90.0217 17.3932 90.0217 10.6151 90.0217 3.81518C90.0217 2.137 90.5901 1.59213 92.2733 1.7229C92.7324 1.74469 93.1914 1.89726 93.6505 1.98443C93.6505 9.7433 93.6505 17.3932 93.6505 25.1521Z" fill="#273887"/>
<path d="M43.9612 17.0001C43.6989 17.5014 43.4585 18.0245 43.1743 18.5257C41.7533 20.9449 40.3324 23.3423 38.9115 25.7615C38.5836 25.6744 38.2557 25.5436 37.9278 25.5218C35.1078 25.5 32.3096 25.5 29.4896 25.5C29.4896 25.4128 29.4897 25.3256 29.4678 25.2385C29.599 24.9769 29.7083 24.7154 29.8394 24.4757C31.2822 21.9911 32.7031 19.5065 34.1459 17.0001C37.4468 17.0001 40.704 17.0001 43.9612 17.0001Z" fill="#0D6EAF"/>
<path d="M43.9616 16.9999C40.7044 16.9999 37.4472 16.9999 34.1681 16.9999C33.9714 16.5858 33.7747 16.15 33.556 15.7577C32.2007 13.3385 30.8235 10.9411 29.4463 8.54365C32.6816 8.52186 35.9388 8.52186 39.1742 8.50006C40.7481 11.2026 42.3439 13.9051 43.9179 16.6076C43.9835 16.6948 43.9397 16.8692 43.9616 16.9999Z" fill="#028DC0"/>
<path d="M119.357 25.1503C118.111 25.1503 116.953 25.1503 115.729 25.1503C115.707 24.8887 115.663 24.6054 115.641 24.3439C115.641 21.3362 115.641 18.3068 115.641 15.2991C115.641 14.7542 115.641 14.2094 115.75 13.6645C116.253 10.8312 118.002 9.19662 121.084 8.78253C122.527 8.58638 123.992 8.62996 125.391 9.13124C127.205 9.76328 127.555 11.1799 126.243 12.6184C125.5 12.444 124.779 12.1607 124.036 12.0953C123.227 12.0299 122.352 12.0299 121.565 12.2261C120.057 12.6402 119.532 13.8607 119.379 15.2991C119.314 15.9094 119.357 16.5414 119.357 17.1516C119.357 19.4401 119.357 21.7285 119.357 24.0169C119.357 24.3874 119.357 24.7362 119.357 25.1503Z" fill="#223484"/>
<path d="M29.5117 25.5002C32.3317 25.5002 35.1517 25.5002 37.9498 25.522C38.2777 25.522 38.6056 25.6745 38.9335 25.7617C37.5782 28.1373 36.2228 30.5129 34.8893 32.8885C34.7145 33.1937 34.5177 33.4988 34.3428 33.8257C31.1294 33.8039 27.9377 33.8039 24.7243 33.7821C24.7898 33.586 24.8336 33.368 24.9429 33.1719C25.7517 31.777 26.5387 30.3604 27.3694 28.9655C28.047 27.7886 28.7903 26.6553 29.5117 25.5002Z" fill="#0167B2"/>
<path d="M132.693 9.4806C132.693 14.7331 132.693 19.8984 132.693 25.1509C131.512 25.1509 130.354 25.1509 129.108 25.1509C129.086 24.7586 129.064 24.4099 129.064 24.0612C129.064 19.8766 129.13 15.7139 129.042 11.5293C128.998 9.15369 130.376 8.97933 131.971 9.26266C132.168 9.28445 132.387 9.37163 132.693 9.4806Z" fill="#273887"/>
<path d="M133.13 4.20525C133.13 5.51293 132.169 6.49368 130.901 6.47189C129.655 6.45009 128.737 5.51293 128.715 4.24884C128.715 2.94117 129.677 1.96041 130.944 1.98221C132.19 2.004 133.13 2.96296 133.13 4.20525Z" fill="#273887"/>
<path d="M155.012 10.7006C155.056 10.657 155.078 10.6135 155.122 10.5699C155.122 10.6352 155.122 10.7006 155.143 10.766C155.1 10.7442 155.056 10.7224 155.012 10.7006Z" fill="#0D6EAF"/>
<path d="M29.5116 25.4995C28.7902 26.6546 28.047 27.788 27.3474 28.9649C26.5167 30.3597 25.7298 31.7546 24.9209 33.1712C24.8116 33.3456 24.7679 33.5635 24.7023 33.7815C24.6367 33.8033 24.5493 33.825 24.4837 33.8468C22.8223 31.0135 21.1828 28.1585 19.5214 25.3252C19.6307 25.3252 19.7619 25.3034 19.8712 25.3034C23.0191 25.3034 26.1888 25.3034 29.3367 25.3034C29.3805 25.2816 29.4242 25.2816 29.4898 25.2598C29.4898 25.3252 29.4898 25.4123 29.5116 25.4995Z" fill="#134A9E"/>
<path d="M10.0565 25.0648C9.83788 24.9123 9.53184 24.8251 9.42254 24.6071C8.48254 23.0379 7.60812 21.4469 6.68999 19.8559C6.25278 19.0713 5.77185 18.3085 5.29092 17.5675C5.20348 17.4149 4.96301 17.3495 4.80999 17.2406C4.89743 17.088 4.96301 16.9572 5.05046 16.8047C8.26394 16.8047 11.4556 16.8047 14.669 16.8047C14.7565 16.8265 14.8439 16.8265 14.9314 16.8483H14.9095C14.8876 16.979 14.8658 17.1098 14.8439 17.2406C14.5379 17.6111 14.1662 17.938 13.9258 18.3521C12.5923 20.5533 11.3244 22.82 10.0565 25.0648Z" fill="#9AD9F0"/>
<path d="M14.8209 17.2185C14.8427 17.0877 14.8646 16.9569 14.8865 16.8262C15.2799 16.848 15.6734 16.8916 16.0669 16.8916C18.7995 16.9134 21.5539 16.9134 24.2864 16.9351C24.1771 17.2403 24.1115 17.5672 23.9585 17.8287C23.0404 19.4197 22.1004 20.9671 21.2041 22.5799C20.7232 23.4517 19.9799 24.1927 19.8925 25.2607C19.7832 25.2607 19.652 25.2825 19.5427 25.2825C17.9469 22.6017 16.373 19.8992 14.8209 17.2185Z" fill="#1B1F64"/>
<path d="M14.6455 16.7816C11.432 16.7816 8.24042 16.7816 5.02694 16.7816C5.8795 15.2342 6.73205 13.7086 7.60647 12.1611C8.06554 11.3547 8.52461 10.5265 9.00553 9.72015C9.22414 9.34964 9.50832 9.02272 9.77065 8.67401C9.96739 8.87016 10.186 9.04452 10.339 9.28426C10.7981 10.0253 11.2353 10.7663 11.6725 11.5073C12.6562 13.2727 13.6399 15.038 14.6455 16.7816Z" fill="#80D0EE"/>
<path d="M14.6457 16.782C13.662 15.0384 12.6564 13.2731 11.6508 11.5295C11.2136 10.7885 10.7764 10.0257 10.3173 9.30646C10.1643 9.08851 9.94572 8.91416 9.74898 8.69621C9.77084 8.63083 9.81456 8.56544 9.83642 8.50006C13.0499 8.52186 16.2634 8.52186 19.4987 8.54365C18.7555 9.89491 17.9904 11.2462 17.2471 12.5756C16.4601 13.9923 15.695 15.4089 14.908 16.8038C14.8206 16.8038 14.7331 16.8038 14.6457 16.782Z" fill="#53C5ED"/>
<path d="M24.2867 16.9571C24.4616 17.1097 24.7021 17.2187 24.8114 17.393C26.3416 20.0084 27.85 22.6455 29.3583 25.2609C26.2104 25.2609 23.0407 25.2609 19.8928 25.2609C19.9802 24.1929 20.7235 23.4519 21.2044 22.5801C22.1007 20.9891 23.0407 19.4199 23.9588 17.8289C24.09 17.5674 24.1774 17.2405 24.2867 16.9571Z" fill="#223484"/>
</svg>
