<svg width="12" height="11" viewBox="0 0 12 11" fill="none" xmlns="http://www.w3.org/2000/svg">
<g clip-path="url(#clip0_25_2622)">
<path fill-rule="evenodd" clip-rule="evenodd" d="M7.28504 2.74935C7.28513 3.03381 7.19176 3.31129 7.01779 3.54358C6.84383 3.77588 6.59783 3.95157 6.31366 4.04645V5.04104H7.77073C8.15717 5.04104 8.52778 5.18591 8.80103 5.44377C9.07429 5.70163 9.2278 6.05137 9.2278 6.41605V6.9523C9.55199 7.06043 9.82524 7.27323 9.99925 7.55309C10.1733 7.83296 10.2368 8.16186 10.1787 8.48168C10.1206 8.80149 9.9445 9.09161 9.68161 9.30076C9.41873 9.50991 9.08595 9.62463 8.74211 9.62463C8.39826 9.62463 8.06549 9.50991 7.8026 9.30076C7.53972 9.09161 7.36366 8.80149 7.30553 8.48168C7.24741 8.16186 7.31096 7.83296 7.48497 7.55309C7.65897 7.27323 7.93222 7.06043 8.25642 6.9523V6.41605C8.25642 6.29449 8.20525 6.17791 8.11416 6.09196C8.02308 6.006 7.89954 5.95771 7.77073 5.95771H3.88521C3.7564 5.95771 3.63286 6.006 3.54178 6.09196C3.4507 6.17791 3.39952 6.29449 3.39952 6.41605V6.9523C3.72372 7.06043 3.99697 7.27323 4.17097 7.55309C4.34498 7.83296 4.40854 8.16186 4.35041 8.48168C4.29229 8.80149 4.11622 9.09161 3.85334 9.30076C3.59046 9.50991 3.25768 9.62463 2.91384 9.62463C2.56999 9.62463 2.23722 9.50991 1.97433 9.30076C1.71145 9.09161 1.53538 8.80149 1.47726 8.48168C1.41913 8.16186 1.48269 7.83296 1.6567 7.55309C1.8307 7.27323 2.10395 7.06043 2.42815 6.9523V6.41605C2.42815 6.05137 2.58166 5.70163 2.85491 5.44377C3.12816 5.18591 3.49878 5.04104 3.88521 5.04104H5.34228V4.04645C5.09028 3.9625 4.86759 3.81478 4.69855 3.61945C4.52952 3.42411 4.42064 3.18868 4.38383 2.9389C4.34701 2.68911 4.38368 2.43458 4.48982 2.20313C4.59597 1.97168 4.76749 1.77223 4.98566 1.62657C5.20382 1.48091 5.46022 1.39466 5.72682 1.37724C5.99342 1.35983 6.25997 1.41191 6.49732 1.52781C6.73467 1.64371 6.93369 1.81895 7.07261 2.03439C7.21154 2.24983 7.28503 2.49716 7.28504 2.74935ZM5.82797 2.29102C5.69916 2.29102 5.57562 2.33931 5.48454 2.42526C5.39345 2.51122 5.34228 2.6278 5.34228 2.74935C5.34228 2.87091 5.39345 2.98749 5.48454 3.07345C5.57562 3.1594 5.69916 3.20769 5.82797 3.20769C5.95678 3.20769 6.08032 3.1594 6.17141 3.07345C6.26249 2.98749 6.31366 2.87091 6.31366 2.74935C6.31366 2.6278 6.26249 2.51122 6.17141 2.42526C6.08032 2.33931 5.95678 2.29102 5.82797 2.29102ZM2.91384 7.79106C2.78502 7.79106 2.66149 7.83935 2.5704 7.9253C2.47932 8.01126 2.42815 8.12784 2.42815 8.2494C2.42815 8.37095 2.47932 8.48753 2.5704 8.57349C2.66149 8.65944 2.78502 8.70773 2.91384 8.70773C3.04265 8.70773 3.16619 8.65944 3.25727 8.57349C3.34835 8.48753 3.39952 8.37095 3.39952 8.2494C3.39952 8.12784 3.34835 8.01126 3.25727 7.9253C3.16619 7.83935 3.04265 7.79106 2.91384 7.79106ZM8.74211 7.79106C8.61329 7.79106 8.48976 7.83935 8.39867 7.9253C8.30759 8.01126 8.25642 8.12784 8.25642 8.2494C8.25642 8.37095 8.30759 8.48753 8.39867 8.57349C8.48976 8.65944 8.61329 8.70773 8.74211 8.70773C8.87092 8.70773 8.99446 8.65944 9.08554 8.57349C9.17663 8.48753 9.2278 8.37095 9.2278 8.2494C9.2278 8.12784 9.17663 8.01126 9.08554 7.9253C8.99446 7.83935 8.87092 7.79106 8.74211 7.79106Z" fill="#223484"/>
</g>
<defs>
<clipPath id="clip0_25_2622">
<rect width="11.6157" height="10.9615" fill="white" transform="scale(1.00352)"/>
</clipPath>
</defs>
</svg>
