<svg width="10" height="10" viewBox="0 0 10 10" fill="none" xmlns="http://www.w3.org/2000/svg">
<path d="M3.33347 5.83402C3.21542 5.83402 3.1164 5.79402 3.0364 5.71402C2.9564 5.63402 2.91654 5.53513 2.91682 5.41736C2.91682 5.29931 2.95682 5.20028 3.03681 5.12028C3.11681 5.04028 3.2157 5.00042 3.33347 5.0007C3.45153 5.0007 3.55055 5.0407 3.63055 5.1207C3.71055 5.2007 3.75041 5.29958 3.75013 5.41736C3.75013 5.53541 3.71013 5.63444 3.63013 5.71444C3.55014 5.79443 3.45125 5.83429 3.33347 5.83402ZM5.0001 5.83402C4.88205 5.83402 4.78302 5.79402 4.70302 5.71402C4.62303 5.63402 4.58317 5.53513 4.58344 5.41736C4.58344 5.29931 4.62344 5.20028 4.70344 5.12028C4.78344 5.04028 4.88232 5.00042 5.0001 5.0007C5.11815 5.0007 5.21718 5.0407 5.29718 5.1207C5.37717 5.2007 5.41703 5.29958 5.41676 5.41736C5.41676 5.53541 5.37676 5.63444 5.29676 5.71444C5.21676 5.79443 5.11787 5.83429 5.0001 5.83402ZM6.66673 5.83402C6.54867 5.83402 6.44965 5.79402 6.36965 5.71402C6.28965 5.63402 6.24979 5.53513 6.25007 5.41736C6.25007 5.29931 6.29007 5.20028 6.37007 5.12028C6.45006 5.04028 6.54895 5.00042 6.66673 5.0007C6.78478 5.0007 6.8838 5.0407 6.9638 5.1207C7.0438 5.2007 7.08366 5.29958 7.08338 5.41736C7.08338 5.53541 7.04338 5.63444 6.96339 5.71444C6.88339 5.79443 6.7845 5.83429 6.66673 5.83402ZM2.0835 9.16727C1.85434 9.16727 1.6581 9.0856 1.49477 8.92227C1.33144 8.75894 1.24991 8.56284 1.25019 8.33395V2.50076C1.25019 2.2716 1.33186 2.07536 1.49519 1.91203C1.65851 1.7487 1.85462 1.66717 2.0835 1.66745H2.50016V1.24038C2.50016 1.12232 2.54016 1.0251 2.62016 0.948717C2.70016 0.87233 2.79904 0.834137 2.91682 0.834137C3.03487 0.834137 3.1339 0.874136 3.21389 0.954134C3.29389 1.03413 3.33375 1.13302 3.33347 1.25079V1.66745H6.66673V1.24038C6.66673 1.12232 6.70672 1.0251 6.78672 0.948717C6.86672 0.87233 6.96561 0.834137 7.08338 0.834137C7.20144 0.834137 7.30046 0.874136 7.38046 0.954134C7.46046 1.03413 7.50032 1.13302 7.50004 1.25079V1.66745H7.9167C8.14586 1.66745 8.3421 1.74911 8.50543 1.91244C8.66876 2.07577 8.75029 2.27188 8.75001 2.50076V8.33395C8.75001 8.56312 8.66834 8.75936 8.50502 8.92269C8.34169 9.08602 8.14558 9.16755 7.9167 9.16727H2.0835ZM2.0835 8.33395H7.9167V4.16739H2.0835V8.33395ZM2.0835 3.33408H7.9167V2.50076H2.0835V3.33408Z" fill="#223484"/>
</svg>
