<svg width="19" height="18" viewBox="0 0 19 18" fill="none" xmlns="http://www.w3.org/2000/svg">
<path d="M12.043 15.7313V13.4813H9.7852V11.9813H12.043V9.73125H13.5482V11.9813H15.8061V13.4813H13.5482V15.7313H12.043ZM3.01172 13.5V12H8.33643C8.2988 12.2625 8.28299 12.5125 8.28901 12.75C8.29503 12.9875 8.31711 13.2375 8.35524 13.5H3.01172ZM3.01172 10.5V9H10.2744C9.98589 9.2 9.72549 9.425 9.49319 9.675C9.26088 9.925 9.05717 10.2 8.88207 10.5H3.01172ZM3.01172 7.5V6H14.3009V7.5H3.01172ZM3.01172 4.5V3H14.3009V4.5H3.01172Z" fill="#223484"/>
</svg>
