<svg width="25" height="24" viewBox="0 0 25 24" fill="none" xmlns="http://www.w3.org/2000/svg">
<g clip-path="url(#clip0_25_3139)">
<path d="M12.0439 0C5.40289 0 0 5.3832 0 12C0 18.6168 5.40289 24 12.0439 24C18.6849 24 24.0878 18.6168 24.0878 12C24.0878 5.3832 18.6849 0 12.0439 0ZM12.0439 23.04C5.93403 23.04 0.963511 18.0874 0.963511 12C0.963511 5.91264 5.93403 0.96 12.0439 0.96C18.1535 0.96 23.1243 5.91264 23.1243 12C23.1243 18.0874 18.1535 23.04 12.0439 23.04Z" fill="white"/>
<path d="M18.1157 6.01613C18.1053 6.00341 18.0964 5.99021 18.0846 5.97821C18.0728 5.96645 18.0596 5.95781 18.047 5.94749C16.5023 4.42589 14.3806 3.48438 12.042 3.48438C9.70352 3.48438 7.5821 4.42565 6.0376 5.94725C6.02483 5.95758 6.01134 5.96645 5.99954 5.97821C5.98773 5.98997 5.97858 6.00365 5.96822 6.01638C4.44106 7.55549 3.49609 9.66918 3.49609 11.9991C3.49609 14.2719 4.38421 16.4086 5.99665 18.0161C5.99761 18.0173 5.99833 18.0185 5.99954 18.0197C6.09372 18.1136 6.21681 18.1604 6.34014 18.1604C6.46347 18.1604 6.58704 18.1136 6.68146 18.0197C6.68243 18.0188 6.68315 18.0176 6.68411 18.0164L8.20405 16.502C8.39218 16.3145 8.39218 16.0107 8.20405 15.8233C8.01593 15.6358 7.71073 15.6358 7.52285 15.8233L6.35242 16.9894C5.23523 15.7292 4.58149 14.1569 4.47647 12.4791H6.1325C6.39843 12.4791 6.61426 12.2641 6.61426 11.9991C6.61426 11.7341 6.39843 11.5191 6.1325 11.5191H4.47671C4.58558 9.79685 5.27618 8.23037 6.35459 7.01117L7.52261 8.17542C7.61679 8.26926 7.73988 8.31605 7.86345 8.31605C7.98678 8.31605 8.10987 8.26926 8.20405 8.17565C8.39218 7.98821 8.39218 7.68437 8.20405 7.49669L7.03603 6.33245C8.25969 5.25797 9.83214 4.57013 11.5604 4.46165V6.11141C11.5604 6.37637 11.7763 6.59141 12.0422 6.59141C12.3084 6.59141 12.524 6.37637 12.524 6.11141V4.46165C14.2525 4.57013 15.8249 5.25797 17.0486 6.33269L15.8806 7.49693C15.6925 7.68437 15.6925 7.98845 15.8806 8.1759C15.9748 8.2695 16.0979 8.31629 16.2212 8.31629C16.3445 8.31629 16.4678 8.2695 16.5618 8.17565L17.7298 7.01142C18.8085 8.23061 19.4988 9.79709 19.6077 11.5193H17.9517C17.6857 11.5193 17.4699 11.7344 17.4699 11.9993C17.4699 12.2643 17.6857 12.4793 17.9517 12.4793H19.6079C19.5027 14.1567 18.8492 15.7292 17.7325 16.9901L16.562 15.8237C16.3739 15.6363 16.069 15.6363 15.8808 15.8237C15.6927 16.0109 15.6927 16.315 15.8808 16.5025L17.4037 18.02C17.4978 18.1138 17.6209 18.1606 17.7443 18.1606H17.7445C17.8678 18.1606 17.9914 18.1138 18.0856 18.02C19.6992 16.4113 20.5883 14.2731 20.5883 11.9993C20.5881 9.66893 19.6431 7.55501 18.1157 6.01613Z" fill="white"/>
<path d="M17.1939 10.1471C17.4336 10.0321 17.5345 9.74533 17.4194 9.50653C17.304 9.26749 17.0157 9.16742 16.7762 9.28214L14.341 10.4495C13.8412 9.71677 12.9986 9.23438 12.0444 9.23438C10.5144 9.23438 9.26953 10.4745 9.26953 11.9992C9.26953 13.5237 10.5141 14.7637 12.0444 14.7637C13.5747 14.7637 14.8194 13.5237 14.8194 11.9992C14.8194 11.7669 14.7873 11.5425 14.7329 11.3267L17.1939 10.1471ZM12.0444 13.8037C11.0458 13.8037 10.233 12.9942 10.233 11.9992C10.233 11.0041 11.0455 10.1944 12.0444 10.1944C13.0431 10.1944 13.8556 11.0039 13.8556 11.9992C13.8558 12.9942 13.0431 13.8037 12.0444 13.8037Z" fill="white"/>
</g>
<defs>
<clipPath id="clip0_25_3139">
<rect width="24.0878" height="24" fill="white"/>
</clipPath>
</defs>
</svg>
