<svg width="30" height="30" viewBox="0 0 30 30" fill="none" xmlns="http://www.w3.org/2000/svg">
<path d="M15.0833 9.16602C11.8333 9.16602 9.25 11.7493 9.25 14.9993C9.25 18.2493 11.8333 20.8327 15.0833 20.8327C18.3333 20.8327 20.9167 18.2493 20.9167 14.9993C20.9167 11.7493 18.3333 9.16602 15.0833 9.16602ZM15.0833 19.166C12.75 19.166 10.9167 17.3327 10.9167 14.9993C10.9167 12.666 12.75 10.8327 15.0833 10.8327C17.4167 10.8327 19.25 12.666 19.25 14.9993C19.25 17.3327 17.4167 19.166 15.0833 19.166Z" fill="#171736"/>
<path d="M27.3327 12.2493L24.9993 11.4993L24.4993 10.2493L25.666 8.08268C25.916 7.58268 25.8327 6.91602 25.416 6.49935L23.416 4.49935C22.9993 4.08268 22.3327 3.99935 21.8327 4.24935L19.666 5.41602L18.416 4.91602L17.666 2.58268C17.4993 2.08268 16.9993 1.66602 16.416 1.66602H13.5827C12.9993 1.66602 12.4993 2.08268 12.416 2.66602L11.666 4.99935C11.166 5.08268 10.7493 5.24935 10.3327 5.49935L8.16602 4.33268C7.66602 4.08268 6.99935 4.16602 6.58268 4.58268L4.58268 6.58268C4.16602 6.99935 4.08268 7.66602 4.33268 8.16602L5.41602 10.2493C5.24935 10.666 5.08268 11.166 4.91602 11.5827L2.58268 12.3327C2.08268 12.4993 1.66602 12.9993 1.66602 13.5827V16.416C1.66602 16.9994 2.08268 17.4994 2.66602 17.666L4.99935 18.416L5.49935 19.666L4.33268 21.8327C4.08268 22.3327 4.16602 22.9993 4.58268 23.416L6.58268 25.416C6.99935 25.8327 7.66602 25.916 8.16602 25.666L10.3327 24.4993L11.5827 24.9993L12.3327 27.416C12.4993 27.916 12.9993 28.3327 13.5827 28.3327H16.416C16.9993 28.3327 17.4993 27.916 17.666 27.416L18.416 24.9993L19.666 24.4993L21.8327 25.666C22.3327 25.916 22.9993 25.8327 23.416 25.416L25.416 23.416C25.8327 22.9993 25.916 22.3327 25.666 21.8327L24.4993 19.666L24.9993 18.416L27.416 17.666C27.916 17.4994 28.3327 16.9994 28.3327 16.416V13.5827C28.3327 12.9993 27.916 12.416 27.3327 12.2493ZM26.666 16.166L23.666 17.0827L23.5827 17.4993L22.8327 19.2493L22.5827 19.666L24.0827 22.416L22.416 24.0827L19.666 22.5827L19.2493 22.8327C18.666 23.166 18.0827 23.416 17.4993 23.5827L17.0827 23.666L16.166 26.666H13.8327L12.916 23.666L12.4993 23.5827L10.7493 22.8327L10.3327 22.5827L7.58268 24.0827L5.91602 22.416L7.41602 19.666L7.16602 19.2493C6.83268 18.666 6.58268 18.0827 6.41602 17.4993L6.33268 17.0827L3.33268 16.166V13.8327L6.16602 12.9993L6.33268 12.5827C6.49935 11.916 6.74935 11.3327 7.08268 10.7493L7.33268 10.3327L5.91602 7.58268L7.58268 5.91602L10.2493 7.41602L10.666 7.16602C11.2493 6.83268 11.8327 6.58268 12.4993 6.41602L12.916 6.24935L13.8327 3.33268H16.166L17.0827 6.24935L17.4993 6.41602C18.0827 6.58268 18.666 6.83268 19.2493 7.16602L19.666 7.41602L22.416 5.91602L24.0827 7.58268L22.5827 10.3327L22.8327 10.7493C23.166 11.3327 23.416 11.916 23.5827 12.4993L23.666 12.916L26.666 13.8327V16.166Z" fill="#171736"/>
</svg>
