<svg width="34" height="34" viewBox="0 0 34 34" fill="none" xmlns="http://www.w3.org/2000/svg">
<g clip-path="url(#clip0_25_3146)">
<path d="M21.4598 18.5664V21.6433C21.4598 22.2615 20.4991 22.7986 19.0887 23.0695C18.4009 23.1965 17.703 23.259 17.0036 23.2562C14.5421 23.2562 12.5469 22.5344 12.5469 21.6433V18.5664C12.5469 19.4575 14.5421 20.1792 17.0036 20.1792C19.4651 20.1792 21.4598 19.4575 21.4598 18.5664Z" fill="#00ACEA"/>
<path d="M21.4598 18.503V18.5669C21.4598 19.458 19.4651 20.1797 17.0036 20.1797C14.5421 20.1797 12.5469 19.458 12.5469 18.5669V15.5117C12.5469 16.4028 14.5421 17.124 17.0036 17.124C19.4651 17.124 21.4598 16.4028 21.4598 15.5117V18.503Z" fill="#00ACEA" fill-opacity="0.2"/>
<path d="M21.4598 12.457V15.513C21.4598 16.4041 19.4651 17.1253 17.0036 17.1253C14.5421 17.1253 12.5469 16.4041 12.5469 15.513V12.457C12.5469 13.3476 14.5421 14.0699 17.0036 14.0699C19.4651 14.0699 21.4598 13.3476 21.4598 12.457Z" fill="#00ACEA"/>
<path d="M17.0036 10.8418C19.4643 10.8418 21.4598 11.5644 21.4598 12.4549C21.4598 13.3455 19.4643 14.0678 17.0036 14.0678C14.5429 14.0678 12.5469 13.3455 12.5469 12.4549C12.5469 11.5644 14.5421 10.8418 17.0036 10.8418Z" fill="#00ACEA" fill-opacity="0.2"/>
<path d="M0.244017 7.68127C0.162003 6.75028 0.216584 5.8125 0.405781 4.89734L0.407478 4.8897C0.678123 3.66798 1.21885 2.64536 2.01523 1.84954C3.11817 0.746037 4.63089 0.142248 6.51155 0.0554267C7.3594 0.0234697 8.2081 0.081162 9.04407 0.22709L8.84413 1.36821C8.09045 1.23642 7.3249 1.18439 6.56019 1.21295C4.98186 1.28563 3.72677 1.77573 2.83423 2.66883C2.19735 3.30514 1.76155 4.13518 1.53927 5.13631C1.37354 5.93948 1.32603 6.763 1.39786 7.58003L0.244017 7.68127Z" fill="#223484" fill-opacity="0.43"/>
<path d="M2.92394 15.7043C2.56054 15.0414 2.22711 14.3745 1.93271 13.7218L2.98871 13.2456C3.27095 13.8709 3.59052 14.5109 3.93978 15.1474L2.92394 15.7043ZM1.11088 11.6534C0.903864 11.0502 0.72711 10.437 0.582031 9.816L1.71042 9.55469C1.84702 10.1375 2.01274 10.7128 2.20703 11.2787L1.11088 11.6534Z" fill="#223484" fill-opacity="0.43"/>
<path d="M8.92216 23.7379C8.78076 23.5908 8.64077 23.4432 8.50219 23.2953C8.18517 22.9556 7.87889 22.618 7.59212 22.2913C7.54037 22.2322 7.48862 22.1731 7.43715 22.1137L8.31186 21.3544C8.36192 21.4121 8.41198 21.4695 8.4626 21.5269C8.74173 21.8448 9.0398 22.1737 9.34835 22.5043C9.48324 22.6485 9.61956 22.7922 9.75785 22.9358L8.92216 23.7379ZM6.03754 20.4121C5.95072 20.3004 5.86475 20.1887 5.77991 20.0767C5.41678 19.5987 5.06469 19.1137 4.73438 18.6335L5.68828 17.9766C6.00841 18.4415 6.34976 18.9121 6.70185 19.3759C6.78471 19.4848 6.86814 19.5934 6.95214 19.7017L6.03754 20.4121Z" fill="#223484" fill-opacity="0.43"/>
<path d="M27.0349 33.6351C26.6772 33.6351 26.3095 33.617 25.9314 33.5808C25.665 33.555 25.3899 33.52 25.1133 33.4761L25.2943 32.3325C25.5477 32.3723 25.7988 32.4049 26.0417 32.4278C27.0321 32.5228 27.9385 32.4798 28.7372 32.3002C29.7256 32.0774 30.5471 31.6438 31.1789 31.0121C32.4546 29.7366 32.9099 27.693 32.4959 25.1023C32.2748 23.7227 31.8141 22.2281 31.1263 20.6608L32.1871 20.1953C32.9145 21.8534 33.4034 23.4425 33.6396 24.9193C34.115 27.8921 33.5474 30.2821 31.9982 31.8313C31.2089 32.6204 30.1976 33.1583 28.9917 33.4303C28.3489 33.5706 27.6927 33.639 27.0349 33.6351Z" fill="#223484" fill-opacity="0.43"/>
<path d="M30.6056 19.5521C30.3666 19.0711 30.1039 18.5782 29.8242 18.0872L30.8304 17.5137C31.1212 18.0236 31.3946 18.5363 31.6432 19.0374L30.6056 19.5521Z" fill="#223484" fill-opacity="0.43"/>
<path d="M28.4756 15.9249C28.0752 15.3375 27.6535 14.7538 27.2225 14.1901L28.1425 13.4862C28.5865 14.0668 29.0206 14.6675 29.4329 15.2724L28.4756 15.9249ZM25.8764 12.5261C25.4148 11.9865 24.9321 11.4523 24.4414 10.9387L25.2794 10.1387C25.7844 10.6675 26.2813 11.2173 26.7567 11.7733L25.8764 12.5261Z" fill="#223484" fill-opacity="0.43"/>
<path d="M6.79668 33.8477C6.14396 33.848 5.49323 33.7809 4.85408 33.6483C3.62671 33.3782 2.60352 32.8375 1.80629 32.0406C0.702784 30.9373 0.0995604 29.4243 0.0124564 27.5434C-0.0195007 26.6958 0.0381916 25.8471 0.184402 25.0117L1.32524 25.2114C1.19345 25.9651 1.14142 26.7303 1.16998 27.4948C1.24294 29.0731 1.73276 30.3287 2.6253 31.2216C3.2633 31.8599 4.09475 32.2951 5.09645 32.5154C5.89877 32.6814 6.72088 32.7292 7.53706 32.6571L7.6383 33.8109C7.35776 33.8355 7.07722 33.8477 6.79668 33.8477Z" fill="#223484" fill-opacity="0.43"/>
<path d="M9.77303 33.4744L9.51172 32.346C10.0943 32.2094 10.6695 32.0437 11.2354 31.8494L11.6099 32.9455C11.0069 33.1525 10.3938 33.329 9.77303 33.4744ZM13.6786 32.124L13.2023 31.068C13.8276 30.7863 14.4676 30.4665 15.1045 30.1172L15.661 31.133C14.9981 31.4961 14.331 31.8299 13.6786 32.124Z" fill="#223484" fill-opacity="0.43"/>
<path d="M18.5906 29.3201L17.9336 28.3662C18.4042 28.0424 18.8748 27.7013 19.3323 27.3526C19.4418 27.2697 19.5504 27.1863 19.6581 27.1023L20.3688 28.0169C20.2571 28.104 20.1454 28.19 20.0334 28.2748C19.5617 28.6337 19.0761 28.9858 18.5906 29.3201ZM22.0708 26.6179L21.3117 25.7429C21.3691 25.6928 21.4268 25.6427 21.4842 25.5924C21.7995 25.315 22.1287 25.0166 22.4616 24.7064C22.6053 24.572 22.7489 24.4346 22.8926 24.2969L23.6949 25.1323C23.5476 25.2737 23.3999 25.414 23.252 25.5531C22.9101 25.8715 22.5727 26.1775 22.2486 26.4626C22.189 26.5149 22.1299 26.5667 22.0708 26.6179Z" fill="#223484" fill-opacity="0.43"/>
<path d="M33.4335 8.94301L32.2892 8.76201C32.3294 8.50862 32.3616 8.2572 32.3848 8.01455C32.4798 7.02474 32.4368 6.11806 32.2573 5.31999C32.0344 4.33073 31.6009 3.5089 30.9691 2.87711C29.6934 1.60194 27.6501 1.14663 25.059 1.56065C23.6795 1.78152 22.1849 2.24221 20.6176 2.93L20.1523 1.86976C21.8101 1.14238 23.3992 0.653413 24.876 0.417271C27.8492 -0.058408 30.2389 0.509465 31.7881 2.05867C32.5774 2.8477 33.1153 3.8593 33.3874 5.06574C33.5938 5.98401 33.6444 7.01342 33.5378 8.1257C33.5124 8.39153 33.4773 8.6667 33.4335 8.94301Z" fill="#223484" fill-opacity="0.43"/>
<path d="M17.994 4.25886L17.418 3.25405C17.9448 2.95201 18.4751 2.66836 18.9949 2.41016L19.5102 3.44777C19.0107 3.69551 18.5008 3.96841 17.994 4.25886Z" fill="#223484" fill-opacity="0.43"/>
<path d="M10.8977 9.61428L10.0977 8.77604C10.6262 8.27124 11.1766 7.77406 11.7323 7.29867L12.4854 8.17904C11.9455 8.64115 11.4113 9.12361 10.8977 9.61428ZM14.1491 6.83345L13.4455 5.91321C14.0264 5.46892 14.6274 5.03481 15.2317 4.62305L15.8839 5.58063C15.297 5.98023 14.7133 6.40189 14.1491 6.83345Z" fill="#223484" fill-opacity="0.43"/>
<path d="M23.7292 29.7833L22.6155 30.1023L23.1065 31.8161C21.7236 31.3786 20.3842 30.8138 19.1059 30.1283C17.3341 29.1815 15.6495 28.0805 14.0706 26.8384C12.8997 25.9216 11.7798 24.9414 10.7156 23.9023L9.90625 24.731C11.0001 25.7991 12.1514 26.8068 13.3553 27.7496C14.988 29.0341 16.7306 30.1724 18.5629 31.1515C19.6328 31.7213 20.7419 32.2148 21.8814 32.6283L20.824 32.9312L21.1427 34.0446L24.0827 33.203L24.1008 33.1979C24.2493 33.1563 24.3751 33.0573 24.4504 32.9227C24.5259 32.7881 24.5443 32.6289 24.5018 32.4807L23.7292 29.7833Z" fill="#00ACEA" fill-opacity="0.2"/>
<path d="M10.3373 1.38146L10.923 4.12015L12.0559 3.87807L11.6818 2.12835C12.7448 2.50533 13.7791 2.95923 14.7762 3.48695C16.5251 4.41002 18.1897 5.48468 19.7508 6.69849C20.4875 7.26664 21.229 7.88287 21.9547 8.52993C22.3503 8.88316 22.7556 9.25985 23.1597 9.65041C23.328 9.81246 23.5039 9.98497 23.6821 10.1631L24.5011 9.34413C24.3178 9.16087 24.1368 8.98299 23.964 8.81642C23.5497 8.41625 23.1331 8.02909 22.7259 7.6654C21.9796 7.00024 21.2168 6.36619 20.4606 5.78304C18.8466 4.52824 17.1255 3.41738 15.3175 2.46319C14.5695 2.06783 13.8011 1.71149 13.0158 1.39588L14.0367 1.17756L13.7943 0.0449219L10.7819 0.689153C10.4844 0.755329 10.2875 1.03898 10.33 1.34074C10.3319 1.35431 10.3345 1.36789 10.3373 1.38146Z" fill="#00ACEA" fill-opacity="0.2"/>
<path d="M9.29921 9.55298C9.09644 9.75575 8.92902 9.92628 8.77178 10.0895C8.3815 10.4933 7.99434 10.9099 7.62047 11.3279C6.9556 12.0739 6.32155 12.8366 5.73812 13.5934C4.48388 15.2074 3.37302 16.9283 2.41855 18.7362C2.02291 19.4843 1.66657 20.2524 1.35124 21.0377L1.13292 20.0168L0 20.2591L0.644231 23.2716C0.71069 23.5688 0.993778 23.7654 1.29553 23.7235C1.30939 23.7215 1.32325 23.7193 1.33682 23.7162L4.07579 23.1305L3.83343 21.9978L2.08371 22.372C2.46041 21.3086 2.91459 20.2744 3.44259 19.2775C4.36567 17.5287 5.44033 15.8641 6.65385 14.3027C7.22228 13.5657 7.83852 12.8242 8.48473 12.0991C8.84813 11.693 9.22483 11.2874 9.60549 10.8938C9.75792 10.7351 9.9211 10.5694 10.1185 10.3723L9.29921 9.55298Z" fill="#00ACEA" fill-opacity="0.2"/>
<path d="M33.998 12.912L33.1561 9.97169L33.151 9.95359C33.1091 9.8054 33.0102 9.67984 32.8755 9.60461C32.7412 9.52967 32.5823 9.51129 32.4341 9.55342L29.7367 10.3252L30.0551 11.4389L31.7689 10.9488C31.3311 12.3314 30.7664 13.6705 30.0811 14.9488C29.1346 16.7206 28.0339 18.4055 26.7916 19.9839C25.8744 21.155 24.8942 22.2751 23.8555 23.3396L24.6841 24.149C25.7522 23.0548 26.7596 21.903 27.7025 20.6994C28.9873 19.0667 30.1255 17.3244 31.1043 15.4921C31.6742 14.4216 32.1677 13.3128 32.5814 12.1731L32.8843 13.2307L33.998 12.912Z" fill="#00ACEA" fill-opacity="0.2"/>
</g>
<defs>
<clipPath id="clip0_25_3146">
<rect width="34" height="34" fill="white"/>
</clipPath>
</defs>
</svg>
