<svg width="11" height="11" viewBox="0 0 11 11" fill="none" xmlns="http://www.w3.org/2000/svg">
<g clip-path="url(#clip0_25_2677)">
<path d="M6.59825 10.0822C6.46887 10.0821 6.36049 10.0381 6.2731 9.95012C6.18571 9.86212 6.14185 9.75336 6.14151 9.62384C6.14148 9.49402 6.18528 9.38513 6.27293 9.29718C6.36058 9.20923 6.46893 9.16543 6.598 9.16578L7.88794 9.16616L6.83753 8.42127C6.73096 8.34488 6.66823 8.24741 6.64932 8.12889C6.63042 8.01036 6.65505 7.8978 6.72321 7.79122C6.79167 7.68432 6.88678 7.62127 7.00854 7.60206C7.1303 7.58286 7.24446 7.60779 7.35102 7.67685L8.41285 8.41029L7.96732 7.19593C7.92163 7.08136 7.92541 6.96682 7.97865 6.85228C8.03189 6.73775 8.11938 6.65759 8.24114 6.61181C8.36289 6.56602 8.48085 6.56988 8.59502 6.62337C8.70918 6.67686 8.78912 6.7647 8.83481 6.8869L9.26892 8.10126L9.61105 6.85277C9.64906 6.7306 9.71936 6.63714 9.82193 6.57242C9.9245 6.50769 10.0368 6.49428 10.1589 6.53219C10.2807 6.57041 10.3758 6.64116 10.4443 6.74443C10.5129 6.84769 10.5281 6.96026 10.4901 7.08213L9.69182 10.0831L6.59825 10.0822ZM2.28299 9.16448C2.03185 9.16441 1.81676 9.07454 1.63772 8.89487C1.45868 8.7152 1.36928 8.49952 1.36952 8.24781L1.36805 2.74942C1.36798 2.49741 1.45742 2.28163 1.63637 2.10206C1.81531 1.9225 2.0302 1.83291 2.28103 1.83329L2.73765 1.83343L2.73741 0.917033L3.65064 0.917306L3.65088 1.8337L6.39057 1.83452L6.39033 0.918125L7.30356 0.918399L7.3038 1.8348L7.76042 1.83493C8.01155 1.83501 8.22664 1.92488 8.40569 2.10455C8.58473 2.28422 8.67413 2.4999 8.67389 2.75161L8.67464 5.54662C8.52243 5.52367 8.37022 5.51217 8.21801 5.51212C8.06581 5.51207 7.91361 5.52348 7.76141 5.54635L7.76115 4.58413L2.28177 4.58249L2.28275 8.24809L5.47905 8.24904C5.47909 8.40178 5.49055 8.55451 5.51342 8.70725C5.53629 8.85999 5.57819 9.01274 5.63911 9.16549L2.28299 9.16448ZM2.28152 3.66609L7.7609 3.66773L7.76066 2.75133L2.28128 2.74969L2.28152 3.66609Z" fill="#223484"/>
</g>
<defs>
<clipPath id="clip0_25_2677">
<rect width="10.1576" height="10.1928" rx="2" transform="matrix(1.07888 0.000322744 0.000287838 1.07888 0 0)" fill="white"/>
</clipPath>
</defs>
</svg>
