<svg width="19" height="18" viewBox="0 0 19 18" fill="none" xmlns="http://www.w3.org/2000/svg">
<path d="M8.43953 10.6036L10.0854 9.37478L8.43953 8.14597C8.37374 8.10036 8.32565 8.04236 8.30032 7.97806C8.27499 7.91376 8.27336 7.84554 8.2956 7.78061C8.31784 7.71568 8.36312 7.65642 8.42668 7.60909C8.49024 7.56176 8.56972 7.5281 8.65675 7.51167C8.74363 7.49504 8.8349 7.4962 8.92096 7.51503C9.00703 7.53385 9.08471 7.56964 9.14585 7.61863L11.1449 9.11111C11.2384 9.18107 11.291 9.2759 11.291 9.37478C11.291 9.47366 11.2384 9.56849 11.1449 9.63845L9.14585 11.1309C9.08476 11.18 9.00706 11.2159 8.92094 11.2349C8.83482 11.2538 8.74346 11.255 8.65648 11.2384C8.56951 11.2218 8.49015 11.188 8.42675 11.1405C8.36336 11.0931 8.31828 11.0337 8.29626 10.9687C8.274 10.9039 8.27555 10.8357 8.30076 10.7715C8.32597 10.7072 8.37391 10.6492 8.43953 10.6036Z" fill="white"/>
<path d="M13.9355 15.75L3.37825 15.75C2.76017 15.75 2.25854 15.2502 2.25854 14.6344L2.25854 4.11562C2.25854 3.81974 2.37651 3.53598 2.58649 3.32676C2.79648 3.11754 3.08128 3 3.37825 3L13.9355 3C14.2324 3 14.5172 3.11754 14.7272 3.32676C14.9372 3.53598 15.0552 3.81974 15.0552 4.11562L15.0552 14.6344C15.0552 15.2502 14.5535 15.75 13.9355 15.75ZM14.0954 14.6344L14.0954 4.11562C14.0954 4.02765 14.0238 3.95625 13.9355 3.95625L6.73736 3.95625L6.73736 14.7937L13.9355 14.7937C13.9779 14.7937 14.0186 14.777 14.0486 14.7471C14.0786 14.7172 14.0954 14.6766 14.0954 14.6344ZM5.77761 3.95625H3.37825C3.33582 3.95625 3.29514 3.97304 3.26514 4.00293C3.23514 4.03282 3.21829 4.07336 3.21829 4.11562L3.21829 14.6344C3.21829 14.6766 3.23514 14.7172 3.26514 14.7471C3.29514 14.777 3.33582 14.7937 3.37825 14.7937H5.77761L5.77761 3.95625Z" fill="white"/>
</svg>
