<svg width="8" height="11" viewBox="0 0 8 11" fill="none" xmlns="http://www.w3.org/2000/svg">
<path d="M6.75173 4.22101L3.94444 4.21701L3.94984 0.423772C3.94994 0.350741 3.92365 0.279826 3.87524 0.222589C3.82684 0.165352 3.75917 0.125169 3.68328 0.108591C3.60739 0.0920125 3.52775 0.100017 3.45735 0.1313C3.38695 0.162583 3.32993 0.215298 3.2956 0.280852L0.134956 6.31409C0.109355 6.36329 0.0975088 6.41778 0.100531 6.47244C0.103554 6.52711 0.121345 6.58017 0.152236 6.62663C0.183126 6.67309 0.226104 6.71144 0.277135 6.73807C0.328166 6.76471 0.385578 6.77876 0.443983 6.7789L3.25127 6.7829L3.24587 10.5771C3.24593 10.6498 3.27218 10.7204 3.32036 10.7774C3.36854 10.8345 3.43585 10.8746 3.51138 10.8913C3.53722 10.8969 3.56365 10.8997 3.59017 10.8998C3.65467 10.8998 3.71789 10.8829 3.77265 10.851C3.8274 10.819 3.8715 10.7733 3.89992 10.7191L7.06056 4.68582C7.0861 4.63663 7.0979 4.58217 7.09486 4.52754C7.09182 4.47291 7.07404 4.41989 7.04318 4.37345C7.01233 4.32701 6.9694 4.28866 6.91843 4.262C6.86745 4.23534 6.8101 4.22124 6.75173 4.22101ZM3.93737 9.1818L3.94124 6.46057C3.94131 6.37491 3.90509 6.29272 3.84052 6.23207C3.77596 6.17142 3.68835 6.13728 3.59695 6.13715L0.996511 6.13345L3.25814 1.8183L3.25427 4.53934C3.25424 4.58177 3.26312 4.62379 3.28041 4.66301C3.29771 4.70223 3.32307 4.73787 3.35506 4.76791C3.38705 4.79794 3.42504 4.82177 3.46685 4.83805C3.50867 4.85433 3.55349 4.86272 3.59876 4.86276L6.1992 4.86647L3.93737 9.1818Z" fill="#2196F3" stroke="#2196F3" stroke-width="0.2"/>
</svg>
