<svg width="16" height="16" viewBox="0 0 16 16" fill="none" xmlns="http://www.w3.org/2000/svg">
<path d="M5 12.084C4.725 12.084 4.4895 11.9942 4.2935 11.8145C4.0975 11.6348 3.99967 11.4191 4 11.1673V6.58398C4 6.3319 4.098 6.11603 4.294 5.93636C4.49 5.75669 4.72533 5.66701 5 5.66732H5.5V4.75065C5.5 4.11662 5.74383 3.5761 6.2315 3.12907C6.71917 2.68204 7.30867 2.45868 8 2.45898C8.69167 2.45898 9.28133 2.6825 9.769 3.12953C10.2567 3.57655 10.5003 4.11693 10.5 4.75065V5.66732H11C11.275 5.66732 11.5105 5.75715 11.7065 5.93682C11.9025 6.11648 12.0003 6.33221 12 6.58398V11.1673C12 11.4194 11.902 11.6353 11.706 11.8149C11.51 11.9946 11.2747 12.0843 11 12.084H5ZM8 9.79232C8.275 9.79232 8.5105 9.70249 8.7065 9.52282C8.9025 9.34315 9.00033 9.12743 9 8.87565C9 8.62357 8.902 8.40769 8.706 8.22803C8.51 8.04836 8.27467 7.95868 8 7.95898C7.725 7.95898 7.4895 8.04882 7.2935 8.22849C7.0975 8.40815 6.99967 8.62387 7 8.87565C7 9.12774 7.098 9.34361 7.294 9.52328C7.49 9.70294 7.72533 9.79262 8 9.79232ZM6.5 5.66732H9.5V4.75065C9.5 4.36871 9.35417 4.04405 9.0625 3.77669C8.77083 3.50933 8.41667 3.37565 8 3.37565C7.58333 3.37565 7.22917 3.50933 6.9375 3.77669C6.64583 4.04405 6.5 4.36871 6.5 4.75065V5.66732Z" fill="#FF7363"/>
</svg>
