<svg width="10" height="10" viewBox="0 0 10 10" fill="none" xmlns="http://www.w3.org/2000/svg">
<path d="M7.19661 4.45801C7.11328 4.54134 7.01259 4.58134 6.89453 4.57801C6.77648 4.57467 6.67578 4.5312 6.59245 4.44759L5.41536 3.27051L5.41536 7.91634C5.41536 8.0344 5.37536 8.13342 5.29536 8.21342C5.21536 8.29342 5.11648 8.33328 4.9987 8.33301C4.88064 8.33301 4.78161 8.29301 4.70161 8.21301C4.62161 8.13301 4.58175 8.03412 4.58203 7.91634L4.58203 3.27051L3.39453 4.45801C3.3112 4.54134 3.21217 4.58301 3.09745 4.58301C2.98273 4.58301 2.88384 4.54134 2.80078 4.45801C2.71745 4.37467 2.67578 4.27565 2.67578 4.16092C2.67578 4.0462 2.71745 3.94731 2.80078 3.86426L4.70703 1.95801C4.7487 1.91634 4.79384 1.88676 4.84245 1.86926C4.89106 1.85176 4.94314 1.84314 4.9987 1.84342C5.05425 1.84342 5.10634 1.85217 5.15495 1.86967C5.20356 1.88717 5.2487 1.91662 5.29036 1.95801L7.20703 3.87467C7.28342 3.95106 7.32161 4.04648 7.32161 4.16092C7.32161 4.27537 7.27995 4.37439 7.19661 4.45801Z" fill="#00B7A2"/>
</svg>
