<svg width="253" height="44" viewBox="0 0 253 44" fill="none" xmlns="http://www.w3.org/2000/svg">
<rect x="0.5" y="0.5" width="252" height="43" rx="0.5" stroke="#2196F3"/>
<circle cx="19" cy="22.2051" r="7.5" stroke="#2196F3"/>
<path d="M39.558 27.196C38.0833 27.196 36.8653 26.706 35.904 25.726C34.9427 24.746 34.462 23.5373 34.462 22.1C34.462 20.6533 34.9427 19.4447 35.904 18.474C36.8653 17.494 38.0833 17.004 39.558 17.004C40.4447 17.004 41.2613 17.214 42.008 17.634C42.764 18.0447 43.352 18.6047 43.772 19.314L42.106 20.28C41.8633 19.8413 41.518 19.5007 41.07 19.258C40.622 19.006 40.118 18.88 39.558 18.88C38.606 18.88 37.836 19.1787 37.248 19.776C36.6693 20.3733 36.38 21.148 36.38 22.1C36.38 23.0427 36.6693 23.8127 37.248 24.41C37.836 25.0073 38.606 25.306 39.558 25.306C40.118 25.306 40.622 25.1847 41.07 24.942C41.5273 24.69 41.8727 24.3493 42.106 23.92L43.772 24.886C43.352 25.5953 42.7687 26.16 42.022 26.58C41.2753 26.9907 40.454 27.196 39.558 27.196ZM52.2178 27L51.6298 25.236H47.7238L47.1358 27H45.0498L48.4798 17.2H50.8738L54.3178 27H52.2178ZM48.3398 23.43H51.0278L49.6838 19.426L48.3398 23.43ZM59.3966 27.196C58.426 27.196 57.6093 26.9813 56.9466 26.552C56.284 26.1133 55.8173 25.5207 55.5466 24.774L57.1986 23.808C57.5813 24.8067 58.3326 25.306 59.4526 25.306C59.994 25.306 60.3906 25.208 60.6426 25.012C60.8946 24.816 61.0206 24.5687 61.0206 24.27C61.0206 23.9247 60.8666 23.6587 60.5586 23.472C60.2506 23.276 59.7 23.066 58.9066 22.842C58.468 22.7113 58.0946 22.5807 57.7866 22.45C57.488 22.3193 57.1846 22.1467 56.8766 21.932C56.578 21.708 56.3493 21.428 56.1906 21.092C56.032 20.756 55.9526 20.364 55.9526 19.916C55.9526 19.0293 56.2653 18.3247 56.8906 17.802C57.5253 17.27 58.286 17.004 59.1726 17.004C59.966 17.004 60.6613 17.2 61.2586 17.592C61.8653 17.9747 62.3366 18.5113 62.6726 19.202L61.0486 20.14C60.6566 19.3 60.0313 18.88 59.1726 18.88C58.7713 18.88 58.454 18.9733 58.2206 19.16C57.9966 19.3373 57.8846 19.5707 57.8846 19.86C57.8846 20.168 58.0106 20.42 58.2626 20.616C58.524 20.8027 59.0186 21.008 59.7466 21.232C60.0453 21.3253 60.2693 21.4 60.4186 21.456C60.5773 21.5027 60.7873 21.582 61.0486 21.694C61.3193 21.7967 61.5246 21.8947 61.6646 21.988C61.814 22.0813 61.982 22.2073 62.1686 22.366C62.3553 22.5247 62.4953 22.688 62.5886 22.856C62.6913 23.024 62.7753 23.2293 62.8406 23.472C62.9153 23.7053 62.9526 23.962 62.9526 24.242C62.9526 25.1473 62.6213 25.866 61.9586 26.398C61.3053 26.93 60.4513 27.196 59.3966 27.196ZM67.0764 25.152H71.2064V27H65.1444V17.2H71.1364V19.048H67.0764V21.134H70.7864V22.954H67.0764V25.152ZM80.4902 27L77.2002 17.2H79.3002L81.6942 24.732L84.0742 17.2H86.1882L82.8842 27H80.4902ZM95.9412 25.726C94.9518 26.706 93.7478 27.196 92.3292 27.196C90.9105 27.196 89.7065 26.706 88.7172 25.726C87.7372 24.7367 87.2472 23.528 87.2472 22.1C87.2472 20.672 87.7372 19.468 88.7172 18.488C89.7065 17.4987 90.9105 17.004 92.3292 17.004C93.7478 17.004 94.9518 17.4987 95.9412 18.488C96.9305 19.468 97.4252 20.672 97.4252 22.1C97.4252 23.528 96.9305 24.7367 95.9412 25.726ZM90.0752 24.41C90.6818 25.0073 91.4332 25.306 92.3292 25.306C93.2252 25.306 93.9765 25.0073 94.5832 24.41C95.1898 23.8033 95.4932 23.0333 95.4932 22.1C95.4932 21.1667 95.1898 20.3967 94.5832 19.79C93.9765 19.1833 93.2252 18.88 92.3292 18.88C91.4332 18.88 90.6818 19.1833 90.0752 19.79C89.4685 20.3967 89.1652 21.1667 89.1652 22.1C89.1652 23.0333 89.4685 23.8033 90.0752 24.41ZM101.715 25.152H105.453V27H99.783V17.2H101.715V25.152ZM111.054 27.196C109.962 27.196 109.066 26.888 108.366 26.272C107.666 25.656 107.316 24.83 107.316 23.794V17.2H109.234V23.64C109.234 24.1533 109.379 24.5593 109.668 24.858C109.967 25.1567 110.429 25.306 111.054 25.306C111.68 25.306 112.137 25.1567 112.426 24.858C112.725 24.5593 112.874 24.1533 112.874 23.64V17.2H114.806V23.794C114.806 24.83 114.456 25.656 113.756 26.272C113.056 26.888 112.156 27.196 111.054 27.196ZM127.137 17.2V27H125.219V20.644L122.461 25.194H122.237L119.479 20.658V27H117.547V17.2H119.535L122.349 21.834L125.149 17.2H127.137ZM131.895 25.152H136.025V27H129.963V17.2H135.955V19.048H131.895V21.134H135.605V22.954H131.895V25.152ZM146.541 17.2C147.483 17.2 148.277 17.5173 148.921 18.152C149.565 18.7867 149.887 19.566 149.887 20.49C149.887 21.414 149.565 22.1933 148.921 22.828C148.277 23.4627 147.483 23.78 146.541 23.78H144.819V27H142.887V17.2H146.541ZM146.541 21.974C146.951 21.974 147.292 21.834 147.563 21.554C147.833 21.2647 147.969 20.91 147.969 20.49C147.969 20.0607 147.833 19.706 147.563 19.426C147.292 19.146 146.951 19.006 146.541 19.006H144.819V21.974H146.541ZM157.52 27L155.546 23.598H154.076V27H152.144V17.2H156.064C156.97 17.2 157.74 17.5173 158.374 18.152C159.009 18.7867 159.326 19.552 159.326 20.448C159.326 21.0547 159.154 21.6193 158.808 22.142C158.463 22.6553 158.006 23.0427 157.436 23.304L159.606 27H157.52ZM154.076 19.006V21.904H156.064C156.428 21.904 156.741 21.764 157.002 21.484C157.264 21.1947 157.394 20.8493 157.394 20.448C157.394 20.0467 157.264 19.706 157.002 19.426C156.741 19.146 156.428 19.006 156.064 19.006H154.076ZM163.676 25.152H167.806V27H161.744V17.2H167.736V19.048H163.676V21.134H167.386V22.954H163.676V25.152ZM174.06 17.2C175.404 17.2 176.524 17.6713 177.42 18.614C178.325 19.5567 178.778 20.7187 178.778 22.1C178.778 23.4813 178.325 24.6433 177.42 25.586C176.524 26.5287 175.404 27 174.06 27H170.168V17.2H174.06ZM174.06 25.152C174.909 25.152 175.6 24.872 176.132 24.312C176.664 23.7427 176.93 23.0053 176.93 22.1C176.93 21.1947 176.664 20.462 176.132 19.902C175.6 19.3327 174.909 19.048 174.06 19.048H172.1V25.152H174.06ZM181.148 17.2H183.08V27H181.148V17.2ZM190.542 27.196C189.068 27.196 187.85 26.706 186.888 25.726C185.927 24.746 185.446 23.5373 185.446 22.1C185.446 20.6533 185.927 19.4447 186.888 18.474C187.85 17.494 189.068 17.004 190.542 17.004C191.429 17.004 192.246 17.214 192.992 17.634C193.748 18.0447 194.336 18.6047 194.756 19.314L193.09 20.28C192.848 19.8413 192.502 19.5007 192.054 19.258C191.606 19.006 191.102 18.88 190.542 18.88C189.59 18.88 188.82 19.1787 188.232 19.776C187.654 20.3733 187.364 21.148 187.364 22.1C187.364 23.0427 187.654 23.8127 188.232 24.41C188.82 25.0073 189.59 25.306 190.542 25.306C191.102 25.306 191.606 25.1847 192.054 24.942C192.512 24.69 192.857 24.3493 193.09 23.92L194.756 24.886C194.336 25.5953 193.753 26.16 193.006 26.58C192.26 26.9907 191.438 27.196 190.542 27.196ZM203.384 17.2V19.048H200.738V27H198.806V19.048H196.174V17.2H203.384ZM205.463 17.2H207.395V27H205.463V17.2ZM218.455 25.726C217.465 26.706 216.261 27.196 214.843 27.196C213.424 27.196 212.22 26.706 211.231 25.726C210.251 24.7367 209.761 23.528 209.761 22.1C209.761 20.672 210.251 19.468 211.231 18.488C212.22 17.4987 213.424 17.004 214.843 17.004C216.261 17.004 217.465 17.4987 218.455 18.488C219.444 19.468 219.939 20.672 219.939 22.1C219.939 23.528 219.444 24.7367 218.455 25.726ZM212.589 24.41C213.195 25.0073 213.947 25.306 214.843 25.306C215.739 25.306 216.49 25.0073 217.097 24.41C217.703 23.8033 218.007 23.0333 218.007 22.1C218.007 21.1667 217.703 20.3967 217.097 19.79C216.49 19.1833 215.739 18.88 214.843 18.88C213.947 18.88 213.195 19.1833 212.589 19.79C211.982 20.3967 211.679 21.1667 211.679 22.1C211.679 23.0333 211.982 23.8033 212.589 24.41ZM227.967 17.2H229.899V27H228.429L224.229 21.008V27H222.297V17.2H223.767L227.967 23.178V17.2Z" fill="#223484"/>
</svg>
