<svg width="391" height="44" viewBox="0 0 391 44" fill="none" xmlns="http://www.w3.org/2000/svg">
<rect x="0.5" y="0.5" width="390" height="43" rx="0.5" stroke="#2196F3"/>
<circle cx="19" cy="22.2051" r="7.5" stroke="#3B82F6"/>
<path d="M40.832 21.918C41.6907 22.4127 42.12 23.1593 42.12 24.158C42.12 24.9887 41.826 25.67 41.238 26.202C40.65 26.734 39.9267 27 39.068 27H34.91V17.2H38.774C39.614 17.2 40.3187 17.4613 40.888 17.984C41.4667 18.4973 41.756 19.1553 41.756 19.958C41.756 20.77 41.448 21.4233 40.832 21.918ZM38.774 19.006H36.842V21.162H38.774C39.0727 21.162 39.32 21.0593 39.516 20.854C39.7213 20.6487 39.824 20.392 39.824 20.084C39.824 19.776 39.726 19.5193 39.53 19.314C39.334 19.1087 39.082 19.006 38.774 19.006ZM39.068 25.194C39.3947 25.194 39.6653 25.0867 39.88 24.872C40.0947 24.648 40.202 24.368 40.202 24.032C40.202 23.7053 40.0947 23.4347 39.88 23.22C39.6653 22.996 39.3947 22.884 39.068 22.884H36.842V25.194H39.068ZM52.6326 25.726C51.6432 26.706 50.4392 27.196 49.0206 27.196C47.6019 27.196 46.3979 26.706 45.4086 25.726C44.4286 24.7367 43.9386 23.528 43.9386 22.1C43.9386 20.672 44.4286 19.468 45.4086 18.488C46.3979 17.4987 47.6019 17.004 49.0206 17.004C50.4392 17.004 51.6432 17.4987 52.6326 18.488C53.6219 19.468 54.1166 20.672 54.1166 22.1C54.1166 23.528 53.6219 24.7367 52.6326 25.726ZM46.7666 24.41C47.3732 25.0073 48.1246 25.306 49.0206 25.306C49.9166 25.306 50.6679 25.0073 51.2746 24.41C51.8812 23.8033 52.1846 23.0333 52.1846 22.1C52.1846 21.1667 51.8812 20.3967 51.2746 19.79C50.6679 19.1833 49.9166 18.88 49.0206 18.88C48.1246 18.88 47.3732 19.1833 46.7666 19.79C46.1599 20.3967 45.8566 21.1667 45.8566 22.1C45.8566 23.0333 46.1599 23.8033 46.7666 24.41ZM62.3959 17.2V19.048H59.7499V27H57.8179V19.048H55.1859V17.2H62.3959ZM70.0465 17.2H71.9645V27H70.0465V22.94H66.4065V27H64.4745V17.2H66.4065V21.092H70.0465V17.2ZM82.631 27.196C81.6603 27.196 80.8437 26.9813 80.181 26.552C79.5183 26.1133 79.0517 25.5207 78.781 24.774L80.433 23.808C80.8157 24.8067 81.567 25.306 82.687 25.306C83.2283 25.306 83.625 25.208 83.877 25.012C84.129 24.816 84.255 24.5687 84.255 24.27C84.255 23.9247 84.101 23.6587 83.793 23.472C83.485 23.276 82.9343 23.066 82.141 22.842C81.7023 22.7113 81.329 22.5807 81.021 22.45C80.7223 22.3193 80.419 22.1467 80.111 21.932C79.8123 21.708 79.5837 21.428 79.425 21.092C79.2663 20.756 79.187 20.364 79.187 19.916C79.187 19.0293 79.4997 18.3247 80.125 17.802C80.7597 17.27 81.5203 17.004 82.407 17.004C83.2003 17.004 83.8957 17.2 84.493 17.592C85.0997 17.9747 85.571 18.5113 85.907 19.202L84.283 20.14C83.891 19.3 83.2657 18.88 82.407 18.88C82.0057 18.88 81.6883 18.9733 81.455 19.16C81.231 19.3373 81.119 19.5707 81.119 19.86C81.119 20.168 81.245 20.42 81.497 20.616C81.7583 20.8027 82.253 21.008 82.981 21.232C83.2797 21.3253 83.5037 21.4 83.653 21.456C83.8117 21.5027 84.0217 21.582 84.283 21.694C84.5537 21.7967 84.759 21.8947 84.899 21.988C85.0483 22.0813 85.2163 22.2073 85.403 22.366C85.5897 22.5247 85.7297 22.688 85.823 22.856C85.9257 23.024 86.0097 23.2293 86.075 23.472C86.1497 23.7053 86.187 23.962 86.187 24.242C86.187 25.1473 85.8557 25.866 85.193 26.398C84.5397 26.93 83.6857 27.196 82.631 27.196ZM93.9508 17.2H95.8688V27H93.9508V22.94H90.3108V27H88.3788V17.2H90.3108V21.092H93.9508V17.2ZM98.6893 17.2H100.621V27H98.6893V17.2ZM109.287 19.048H105.367V21.372H109.175V23.22H105.367V27H103.435V17.2H109.287V19.048ZM118.177 17.2V19.048H115.531V27H113.599V19.048H110.967V17.2H118.177ZM128.648 17.2C129.992 17.2 131.112 17.6713 132.008 18.614C132.913 19.5567 133.366 20.7187 133.366 22.1C133.366 23.4813 132.913 24.6433 132.008 25.586C131.112 26.5287 129.992 27 128.648 27H124.756V17.2H128.648ZM128.648 25.152C129.497 25.152 130.188 24.872 130.72 24.312C131.252 23.7427 131.518 23.0053 131.518 22.1C131.518 21.1947 131.252 20.462 130.72 19.902C130.188 19.3327 129.497 19.048 128.648 19.048H126.688V25.152H128.648ZM135.736 17.2H137.668V27H135.736V17.2ZM143.678 27.196C142.707 27.196 141.891 26.9813 141.228 26.552C140.565 26.1133 140.099 25.5207 139.828 24.774L141.48 23.808C141.863 24.8067 142.614 25.306 143.734 25.306C144.275 25.306 144.672 25.208 144.924 25.012C145.176 24.816 145.302 24.5687 145.302 24.27C145.302 23.9247 145.148 23.6587 144.84 23.472C144.532 23.276 143.981 23.066 143.188 22.842C142.749 22.7113 142.376 22.5807 142.068 22.45C141.769 22.3193 141.466 22.1467 141.158 21.932C140.859 21.708 140.631 21.428 140.472 21.092C140.313 20.756 140.234 20.364 140.234 19.916C140.234 19.0293 140.547 18.3247 141.172 17.802C141.807 17.27 142.567 17.004 143.454 17.004C144.247 17.004 144.943 17.2 145.54 17.592C146.147 17.9747 146.618 18.5113 146.954 19.202L145.33 20.14C144.938 19.3 144.313 18.88 143.454 18.88C143.053 18.88 142.735 18.9733 142.502 19.16C142.278 19.3373 142.166 19.5707 142.166 19.86C142.166 20.168 142.292 20.42 142.544 20.616C142.805 20.8027 143.3 21.008 144.028 21.232C144.327 21.3253 144.551 21.4 144.7 21.456C144.859 21.5027 145.069 21.582 145.33 21.694C145.601 21.7967 145.806 21.8947 145.946 21.988C146.095 22.0813 146.263 22.2073 146.45 22.366C146.637 22.5247 146.777 22.688 146.87 22.856C146.973 23.024 147.057 23.2293 147.122 23.472C147.197 23.7053 147.234 23.962 147.234 24.242C147.234 25.1473 146.903 25.866 146.24 26.398C145.587 26.93 144.733 27.196 143.678 27.196ZM155.621 17.2V19.048H152.975V27H151.043V19.048H148.411V17.2H155.621ZM163.075 27L161.101 23.598H159.631V27H157.699V17.2H161.619C162.524 17.2 163.294 17.5173 163.929 18.152C164.564 18.7867 164.881 19.552 164.881 20.448C164.881 21.0547 164.708 21.6193 164.363 22.142C164.018 22.6553 163.56 23.0427 162.991 23.304L165.161 27H163.075ZM159.631 19.006V21.904H161.619C161.983 21.904 162.296 21.764 162.557 21.484C162.818 21.1947 162.949 20.8493 162.949 20.448C162.949 20.0467 162.818 19.706 162.557 19.426C162.296 19.146 161.983 19.006 161.619 19.006H159.631ZM167.299 17.2H169.231V27H167.299V17.2ZM177.967 21.918C178.825 22.4127 179.255 23.1593 179.255 24.158C179.255 24.9887 178.961 25.67 178.373 26.202C177.785 26.734 177.061 27 176.203 27H172.045V17.2H175.909C176.749 17.2 177.453 17.4613 178.023 17.984C178.601 18.4973 178.891 19.1553 178.891 19.958C178.891 20.77 178.583 21.4233 177.967 21.918ZM175.909 19.006H173.977V21.162H175.909C176.207 21.162 176.455 21.0593 176.651 20.854C176.856 20.6487 176.959 20.392 176.959 20.084C176.959 19.776 176.861 19.5193 176.665 19.314C176.469 19.1087 176.217 19.006 175.909 19.006ZM176.203 25.194C176.529 25.194 176.8 25.0867 177.015 24.872C177.229 24.648 177.337 24.368 177.337 24.032C177.337 23.7053 177.229 23.4347 177.015 23.22C176.8 22.996 176.529 22.884 176.203 22.884H173.977V25.194H176.203ZM185.107 27.196C184.015 27.196 183.119 26.888 182.419 26.272C181.719 25.656 181.369 24.83 181.369 23.794V17.2H183.287V23.64C183.287 24.1533 183.432 24.5593 183.721 24.858C184.02 25.1567 184.482 25.306 185.107 25.306C185.732 25.306 186.19 25.1567 186.479 24.858C186.778 24.5593 186.927 24.1533 186.927 23.64V17.2H188.859V23.794C188.859 24.83 188.509 25.656 187.809 26.272C187.109 26.888 186.208 27.196 185.107 27.196ZM198.081 17.2V19.048H195.435V27H193.503V19.048H190.871V17.2H198.081ZM200.16 17.2H202.092V27H200.16V17.2ZM213.152 25.726C212.163 26.706 210.959 27.196 209.54 27.196C208.121 27.196 206.917 26.706 205.928 25.726C204.948 24.7367 204.458 23.528 204.458 22.1C204.458 20.672 204.948 19.468 205.928 18.488C206.917 17.4987 208.121 17.004 209.54 17.004C210.959 17.004 212.163 17.4987 213.152 18.488C214.141 19.468 214.636 20.672 214.636 22.1C214.636 23.528 214.141 24.7367 213.152 25.726ZM207.286 24.41C207.893 25.0073 208.644 25.306 209.54 25.306C210.436 25.306 211.187 25.0073 211.794 24.41C212.401 23.8033 212.704 23.0333 212.704 22.1C212.704 21.1667 212.401 20.3967 211.794 19.79C211.187 19.1833 210.436 18.88 209.54 18.88C208.644 18.88 207.893 19.1833 207.286 19.79C206.679 20.3967 206.376 21.1667 206.376 22.1C206.376 23.0333 206.679 23.8033 207.286 24.41ZM222.664 17.2H224.596V27H223.126L218.926 21.008V27H216.994V17.2H218.464L222.664 23.178V17.2ZM238.214 27L237.626 25.236H233.72L233.132 27H231.046L234.476 17.2H236.87L240.314 27H238.214ZM234.336 23.43H237.024L235.68 19.426L234.336 23.43ZM247.935 17.2H249.867V27H248.397L244.197 21.008V27H242.265V17.2H243.735L247.935 23.178V17.2ZM256.577 17.2C257.921 17.2 259.041 17.6713 259.937 18.614C260.843 19.5567 261.295 20.7187 261.295 22.1C261.295 23.4813 260.843 24.6433 259.937 25.586C259.041 26.5287 257.921 27 256.577 27H252.685V17.2H256.577ZM256.577 25.152C257.427 25.152 258.117 24.872 258.649 24.312C259.181 23.7427 259.447 23.0053 259.447 22.1C259.447 21.1947 259.181 20.462 258.649 19.902C258.117 19.3327 257.427 19.048 256.577 19.048H254.617V25.152H256.577ZM272.814 27.196C271.339 27.196 270.121 26.706 269.16 25.726C268.199 24.746 267.718 23.5373 267.718 22.1C267.718 20.6533 268.199 19.4447 269.16 18.474C270.121 17.494 271.339 17.004 272.814 17.004C273.701 17.004 274.517 17.214 275.264 17.634C276.02 18.0447 276.608 18.6047 277.028 19.314L275.362 20.28C275.119 19.8413 274.774 19.5007 274.326 19.258C273.878 19.006 273.374 18.88 272.814 18.88C271.862 18.88 271.092 19.1787 270.504 19.776C269.925 20.3733 269.636 21.148 269.636 22.1C269.636 23.0427 269.925 23.8127 270.504 24.41C271.092 25.0073 271.862 25.306 272.814 25.306C273.374 25.306 273.878 25.1847 274.326 24.942C274.783 24.69 275.129 24.3493 275.362 23.92L277.028 24.886C276.608 25.5953 276.025 26.16 275.278 26.58C274.531 26.9907 273.71 27.196 272.814 27.196ZM285.474 27L284.886 25.236H280.98L280.392 27H278.306L281.736 17.2H284.13L287.574 27H285.474ZM281.596 23.43H284.284L282.94 19.426L281.596 23.43ZM292.652 27.196C291.682 27.196 290.865 26.9813 290.202 26.552C289.54 26.1133 289.073 25.5207 288.802 24.774L290.454 23.808C290.837 24.8067 291.588 25.306 292.708 25.306C293.25 25.306 293.646 25.208 293.898 25.012C294.15 24.816 294.276 24.5687 294.276 24.27C294.276 23.9247 294.122 23.6587 293.814 23.472C293.506 23.276 292.956 23.066 292.162 22.842C291.724 22.7113 291.35 22.5807 291.042 22.45C290.744 22.3193 290.44 22.1467 290.132 21.932C289.834 21.708 289.605 21.428 289.446 21.092C289.288 20.756 289.208 20.364 289.208 19.916C289.208 19.0293 289.521 18.3247 290.146 17.802C290.781 17.27 291.542 17.004 292.428 17.004C293.222 17.004 293.917 17.2 294.514 17.592C295.121 17.9747 295.592 18.5113 295.928 19.202L294.304 20.14C293.912 19.3 293.287 18.88 292.428 18.88C292.027 18.88 291.71 18.9733 291.476 19.16C291.252 19.3373 291.14 19.5707 291.14 19.86C291.14 20.168 291.266 20.42 291.518 20.616C291.78 20.8027 292.274 21.008 293.002 21.232C293.301 21.3253 293.525 21.4 293.674 21.456C293.833 21.5027 294.043 21.582 294.304 21.694C294.575 21.7967 294.78 21.8947 294.92 21.988C295.07 22.0813 295.238 22.2073 295.424 22.366C295.611 22.5247 295.751 22.688 295.844 22.856C295.947 23.024 296.031 23.2293 296.096 23.472C296.171 23.7053 296.208 23.962 296.208 24.242C296.208 25.1473 295.877 25.866 295.214 26.398C294.561 26.93 293.707 27.196 292.652 27.196ZM300.332 25.152H304.462V27H298.4V17.2H304.392V19.048H300.332V21.134H304.042V22.954H300.332V25.152ZM313.746 27L310.456 17.2H312.556L314.95 24.732L317.33 17.2H319.444L316.14 27H313.746ZM329.197 25.726C328.208 26.706 327.004 27.196 325.585 27.196C324.166 27.196 322.962 26.706 321.973 25.726C320.993 24.7367 320.503 23.528 320.503 22.1C320.503 20.672 320.993 19.468 321.973 18.488C322.962 17.4987 324.166 17.004 325.585 17.004C327.004 17.004 328.208 17.4987 329.197 18.488C330.186 19.468 330.681 20.672 330.681 22.1C330.681 23.528 330.186 24.7367 329.197 25.726ZM323.331 24.41C323.938 25.0073 324.689 25.306 325.585 25.306C326.481 25.306 327.232 25.0073 327.839 24.41C328.446 23.8033 328.749 23.0333 328.749 22.1C328.749 21.1667 328.446 20.3967 327.839 19.79C327.232 19.1833 326.481 18.88 325.585 18.88C324.689 18.88 323.938 19.1833 323.331 19.79C322.724 20.3967 322.421 21.1667 322.421 22.1C322.421 23.0333 322.724 23.8033 323.331 24.41ZM334.971 25.152H338.709V27H333.039V17.2H334.971V25.152ZM344.31 27.196C343.218 27.196 342.322 26.888 341.622 26.272C340.922 25.656 340.572 24.83 340.572 23.794V17.2H342.49V23.64C342.49 24.1533 342.635 24.5593 342.924 24.858C343.223 25.1567 343.685 25.306 344.31 25.306C344.935 25.306 345.393 25.1567 345.682 24.858C345.981 24.5593 346.13 24.1533 346.13 23.64V17.2H348.062V23.794C348.062 24.83 347.712 25.656 347.012 26.272C346.312 26.888 345.411 27.196 344.31 27.196ZM360.393 17.2V27H358.475V20.644L355.717 25.194H355.493L352.735 20.658V27H350.803V17.2H352.791L355.605 21.834L358.405 17.2H360.393ZM365.151 25.152H369.281V27H363.219V17.2H369.211V19.048H365.151V21.134H368.861V22.954H365.151V25.152Z" fill="#223484"/>
</svg>
