<svg width="196" height="44" viewBox="0 0 196 44" fill="none" xmlns="http://www.w3.org/2000/svg">
<rect width="196" height="44" rx="1" fill="#223484"/>
<circle cx="19" cy="22.2051" r="7.5" stroke="white"/>
<circle cx="19" cy="22" r="3" fill="white"/>
<path d="M38.256 27.196C37.2853 27.196 36.4687 26.9813 35.806 26.552C35.1433 26.1133 34.6767 25.5207 34.406 24.774L36.058 23.808C36.4407 24.8067 37.192 25.306 38.312 25.306C38.8533 25.306 39.25 25.208 39.502 25.012C39.754 24.816 39.88 24.5687 39.88 24.27C39.88 23.9247 39.726 23.6587 39.418 23.472C39.11 23.276 38.5593 23.066 37.766 22.842C37.3273 22.7113 36.954 22.5807 36.646 22.45C36.3473 22.3193 36.044 22.1467 35.736 21.932C35.4373 21.708 35.2087 21.428 35.05 21.092C34.8913 20.756 34.812 20.364 34.812 19.916C34.812 19.0293 35.1247 18.3247 35.75 17.802C36.3847 17.27 37.1453 17.004 38.032 17.004C38.8253 17.004 39.5207 17.2 40.118 17.592C40.7247 17.9747 41.196 18.5113 41.532 19.202L39.908 20.14C39.516 19.3 38.8907 18.88 38.032 18.88C37.6307 18.88 37.3133 18.9733 37.08 19.16C36.856 19.3373 36.744 19.5707 36.744 19.86C36.744 20.168 36.87 20.42 37.122 20.616C37.3833 20.8027 37.878 21.008 38.606 21.232C38.9047 21.3253 39.1287 21.4 39.278 21.456C39.4367 21.5027 39.6467 21.582 39.908 21.694C40.1787 21.7967 40.384 21.8947 40.524 21.988C40.6733 22.0813 40.8413 22.2073 41.028 22.366C41.2147 22.5247 41.3547 22.688 41.448 22.856C41.5507 23.024 41.6347 23.2293 41.7 23.472C41.7747 23.7053 41.812 23.962 41.812 24.242C41.812 25.1473 41.4807 25.866 40.818 26.398C40.1647 26.93 39.3107 27.196 38.256 27.196ZM49.5758 17.2H51.4938V27H49.5758V22.94H45.9358V27H44.0038V17.2H45.9358V21.092H49.5758V17.2ZM54.3143 17.2H56.2463V27H54.3143V17.2ZM64.9124 19.048H60.9924V21.372H64.8004V23.22H60.9924V27H59.0604V17.2H64.9124V19.048ZM73.8022 17.2V19.048H71.1562V27H69.2242V19.048H66.5922V17.2H73.8022ZM84.2727 17.2C85.6167 17.2 86.7367 17.6713 87.6327 18.614C88.538 19.5567 88.9907 20.7187 88.9907 22.1C88.9907 23.4813 88.538 24.6433 87.6327 25.586C86.7367 26.5287 85.6167 27 84.2727 27H80.3807V17.2H84.2727ZM84.2727 25.152C85.122 25.152 85.8127 24.872 86.3447 24.312C86.8767 23.7427 87.1427 23.0053 87.1427 22.1C87.1427 21.1947 86.8767 20.462 86.3447 19.902C85.8127 19.3327 85.122 19.048 84.2727 19.048H82.3127V25.152H84.2727ZM91.3612 17.2H93.2932V27H91.3612V17.2ZM99.3029 27.196C98.3322 27.196 97.5155 26.9813 96.8529 26.552C96.1902 26.1133 95.7235 25.5207 95.4529 24.774L97.1049 23.808C97.4875 24.8067 98.2389 25.306 99.3589 25.306C99.9002 25.306 100.297 25.208 100.549 25.012C100.801 24.816 100.927 24.5687 100.927 24.27C100.927 23.9247 100.773 23.6587 100.465 23.472C100.157 23.276 99.6062 23.066 98.8129 22.842C98.3742 22.7113 98.0009 22.5807 97.6929 22.45C97.3942 22.3193 97.0909 22.1467 96.7829 21.932C96.4842 21.708 96.2555 21.428 96.0969 21.092C95.9382 20.756 95.8589 20.364 95.8589 19.916C95.8589 19.0293 96.1715 18.3247 96.7969 17.802C97.4315 17.27 98.1922 17.004 99.0789 17.004C99.8722 17.004 100.568 17.2 101.165 17.592C101.772 17.9747 102.243 18.5113 102.579 19.202L100.955 20.14C100.563 19.3 99.9375 18.88 99.0789 18.88C98.6775 18.88 98.3602 18.9733 98.1269 19.16C97.9029 19.3373 97.7909 19.5707 97.7909 19.86C97.7909 20.168 97.9169 20.42 98.1689 20.616C98.4302 20.8027 98.9249 21.008 99.6529 21.232C99.9515 21.3253 100.176 21.4 100.325 21.456C100.484 21.5027 100.694 21.582 100.955 21.694C101.226 21.7967 101.431 21.8947 101.571 21.988C101.72 22.0813 101.888 22.2073 102.075 22.366C102.262 22.5247 102.402 22.688 102.495 22.856C102.598 23.024 102.682 23.2293 102.747 23.472C102.822 23.7053 102.859 23.962 102.859 24.242C102.859 25.1473 102.528 25.866 101.865 26.398C101.212 26.93 100.358 27.196 99.3029 27.196ZM111.246 17.2V19.048H108.6V27H106.668V19.048H104.036V17.2H111.246ZM118.7 27L116.726 23.598H115.256V27H113.324V17.2H117.244C118.149 17.2 118.919 17.5173 119.554 18.152C120.189 18.7867 120.506 19.552 120.506 20.448C120.506 21.0547 120.333 21.6193 119.988 22.142C119.643 22.6553 119.185 23.0427 118.616 23.304L120.786 27H118.7ZM115.256 19.006V21.904H117.244C117.608 21.904 117.921 21.764 118.182 21.484C118.443 21.1947 118.574 20.8493 118.574 20.448C118.574 20.0467 118.443 19.706 118.182 19.426C117.921 19.146 117.608 19.006 117.244 19.006H115.256ZM122.924 17.2H124.856V27H122.924V17.2ZM133.592 21.918C134.45 22.4127 134.88 23.1593 134.88 24.158C134.88 24.9887 134.586 25.67 133.998 26.202C133.41 26.734 132.686 27 131.828 27H127.67V17.2H131.534C132.374 17.2 133.078 17.4613 133.648 17.984C134.226 18.4973 134.516 19.1553 134.516 19.958C134.516 20.77 134.208 21.4233 133.592 21.918ZM131.534 19.006H129.602V21.162H131.534C131.832 21.162 132.08 21.0593 132.276 20.854C132.481 20.6487 132.584 20.392 132.584 20.084C132.584 19.776 132.486 19.5193 132.29 19.314C132.094 19.1087 131.842 19.006 131.534 19.006ZM131.828 25.194C132.154 25.194 132.425 25.0867 132.64 24.872C132.854 24.648 132.962 24.368 132.962 24.032C132.962 23.7053 132.854 23.4347 132.64 23.22C132.425 22.996 132.154 22.884 131.828 22.884H129.602V25.194H131.828ZM140.732 27.196C139.64 27.196 138.744 26.888 138.044 26.272C137.344 25.656 136.994 24.83 136.994 23.794V17.2H138.912V23.64C138.912 24.1533 139.057 24.5593 139.346 24.858C139.645 25.1567 140.107 25.306 140.732 25.306C141.357 25.306 141.815 25.1567 142.104 24.858C142.403 24.5593 142.552 24.1533 142.552 23.64V17.2H144.484V23.794C144.484 24.83 144.134 25.656 143.434 26.272C142.734 26.888 141.833 27.196 140.732 27.196ZM153.706 17.2V19.048H151.06V27H149.128V19.048H146.496V17.2H153.706ZM155.785 17.2H157.717V27H155.785V17.2ZM168.777 25.726C167.788 26.706 166.584 27.196 165.165 27.196C163.746 27.196 162.542 26.706 161.553 25.726C160.573 24.7367 160.083 23.528 160.083 22.1C160.083 20.672 160.573 19.468 161.553 18.488C162.542 17.4987 163.746 17.004 165.165 17.004C166.584 17.004 167.788 17.4987 168.777 18.488C169.766 19.468 170.261 20.672 170.261 22.1C170.261 23.528 169.766 24.7367 168.777 25.726ZM162.911 24.41C163.518 25.0073 164.269 25.306 165.165 25.306C166.061 25.306 166.812 25.0073 167.419 24.41C168.026 23.8033 168.329 23.0333 168.329 22.1C168.329 21.1667 168.026 20.3967 167.419 19.79C166.812 19.1833 166.061 18.88 165.165 18.88C164.269 18.88 163.518 19.1833 162.911 19.79C162.304 20.3967 162.001 21.1667 162.001 22.1C162.001 23.0333 162.304 23.8033 162.911 24.41ZM178.289 17.2H180.221V27H178.751L174.551 21.008V27H172.619V17.2H174.089L178.289 23.178V17.2Z" fill="white"/>
</svg>
