<svg width="28" height="28" viewBox="0 0 28 28" fill="none" xmlns="http://www.w3.org/2000/svg">
<path d="M17 12.25C17 12.0511 17.079 11.8603 17.2197 11.7197C17.3603 11.579 17.5511 11.5 17.75 11.5H21.25C21.4489 11.5 21.6397 11.579 21.7803 11.7197C21.921 11.8603 22 12.0511 22 12.25C22 12.4489 21.921 12.6397 21.7803 12.7803C21.6397 12.921 21.4489 13 21.25 13H17.75C17.5511 13 17.3603 12.921 17.2197 12.7803C17.079 12.6397 17 12.4489 17 12.25Z" fill="#223484"/>
<path d="M17.75 15C17.5511 15 17.3603 15.079 17.2197 15.2197C17.079 15.3603 17 15.5511 17 15.75C17 15.9489 17.079 16.1397 17.2197 16.2803C17.3603 16.421 17.5511 16.5 17.75 16.5H21.25C21.4489 16.5 21.6397 16.421 21.7803 16.2803C21.921 16.1397 22 15.9489 22 15.75C22 15.5511 21.921 15.3603 21.7803 15.2197C21.6397 15.079 21.4489 15 21.25 15H17.75Z" fill="#223484"/>
<path d="M15 12C15 12.3978 14.842 12.7794 14.5607 13.0607C14.2794 13.342 13.8978 13.5 13.5 13.5C13.1022 13.5 12.7207 13.342 12.4394 13.0607C12.1581 12.7794 12 12.3978 12 12C12 11.6022 12.1581 11.2206 12.4394 10.9393C12.7207 10.658 13.1022 10.5 13.5 10.5C13.8978 10.5 14.2794 10.658 14.5607 10.9393C14.842 11.2206 15 11.6022 15 12Z" fill="#223484"/>
<path d="M7.00001 14.5C6.73479 14.5 6.48044 14.6054 6.2929 14.7929C6.10536 14.9804 6.00001 15.2348 6.00001 15.5V16.5C6.00001 16.5 6.00001 18.5 8.75001 18.5C11.5 18.5 11.5 16.5 11.5 16.5V15.5C11.5 15.2348 11.3947 14.9804 11.2071 14.7929C11.0196 14.6054 10.7652 14.5 10.5 14.5H7.00001Z" fill="#223484"/>
<path d="M10.5 11.75C10.5 12.2141 10.3156 12.6592 9.98744 12.9874C9.65925 13.3156 9.21413 13.5 8.75 13.5C8.28587 13.5 7.84075 13.3156 7.51256 12.9874C7.18437 12.6592 7 12.2141 7 11.75C7 11.2859 7.18437 10.8408 7.51256 10.5126C7.84075 10.1844 8.28587 10 8.75 10C9.21413 10 9.65925 10.1844 9.98744 10.5126C10.3156 10.8408 10.5 11.2859 10.5 11.75Z" fill="#223484"/>
<path d="M13.5 17.5H12.285C12.3908 17.2388 12.4598 16.9642 12.49 16.684C12.494 16.638 12.497 16.599 12.498 16.568V16.555H12.5V15.5C12.5 15.136 12.402 14.794 12.232 14.5H14.5C14.7652 14.5 15.0195 14.6054 15.2071 14.7929C15.3946 14.9804 15.5 15.2348 15.5 15.5C15.5 16.0304 15.2893 16.5391 14.9142 16.9142C14.5391 17.2893 14.0304 17.5 13.5 17.5Z" fill="#223484"/>
<path d="M2.00396 7.75C2.00396 6.75544 2.39905 5.80161 3.10231 5.09835C3.80557 4.39509 4.7594 4 5.75396 4H22.25C23.2445 4 24.1983 4.39509 24.9016 5.09835C25.6049 5.80161 26 6.75544 26 7.75V20.25C26 21.2446 25.6049 22.1984 24.9016 22.9017C24.1983 23.6049 23.2445 24 22.25 24H5.75496C4.7604 24 3.80657 23.6049 3.10331 22.9017C2.40005 22.1984 2.00496 21.2446 2.00496 20.25V7.75H2.00396ZM5.75396 5.5C5.15722 5.5 4.58492 5.73705 4.16297 6.15901C3.74101 6.58097 3.50396 7.15326 3.50396 7.75V20.25C3.50396 20.8467 3.74101 21.419 4.16297 21.841C4.58492 22.2629 5.15722 22.5 5.75396 22.5H22.25C22.8467 22.5 23.419 22.2629 23.8409 21.841C24.2629 21.419 24.5 20.8467 24.5 20.25V7.75C24.5 7.15326 24.2629 6.58097 23.8409 6.15901C23.419 5.73705 22.8467 5.5 22.25 5.5H5.75496H5.75396Z" fill="#223484"/>
</svg>
