<svg width="510" height="45" viewBox="0 0 510 45" fill="none" xmlns="http://www.w3.org/2000/svg">
<rect x="0.5" y="0.5" width="509" height="44" fill="white"/>
<path d="M21.4375 22.35C21.8048 22.1264 22.1147 21.8201 22.3425 21.4555C22.5704 21.0909 22.71 20.6781 22.75 20.25C22.757 19.8629 22.6876 19.4782 22.5459 19.118C22.4042 18.7577 22.1928 18.4289 21.924 18.1503C21.6552 17.8717 21.3341 17.6488 20.9791 17.4943C20.6241 17.3399 20.2421 17.2568 19.855 17.25H14.9875V27.75H20.2375C20.6059 27.7461 20.9699 27.6696 21.3087 27.525C21.6475 27.3804 21.9546 27.1705 22.2122 26.9073C22.4699 26.644 22.6732 26.3326 22.8106 25.9907C22.9479 25.6489 23.0165 25.2834 23.0125 24.915V24.825C23.0128 24.3053 22.8647 23.7964 22.5857 23.358C22.3067 22.9195 21.9084 22.5699 21.4375 22.35ZM16.4875 18.75H19.6375C19.9572 18.7401 20.2722 18.8282 20.5403 19.0025C20.8084 19.1768 21.0168 19.4289 21.1375 19.725C21.2597 20.1208 21.2202 20.5489 21.0277 20.9157C20.8351 21.2825 20.5052 21.5582 20.11 21.6825C19.9566 21.7275 19.7975 21.7502 19.6375 21.75H16.4875V18.75ZM19.9375 26.25H16.4875V23.25H19.9375C20.2572 23.2401 20.5722 23.3282 20.8403 23.5025C21.1084 23.6768 21.3168 23.9289 21.4375 24.225C21.5597 24.6208 21.5202 25.0489 21.3277 25.4157C21.1351 25.7825 20.8052 26.0582 20.41 26.1825C20.2566 26.2275 20.0975 26.2502 19.9375 26.25Z" fill="black"/>
<path d="M46.8199 20.25H48.3199L46.6699 27.75H45.1699L46.8199 20.25ZM48.0799 17.25C47.9316 17.25 47.7866 17.294 47.6632 17.3764C47.5399 17.4588 47.4438 17.5759 47.387 17.713C47.3302 17.85 47.3154 18.0008 47.3443 18.1463C47.3733 18.2918 47.4447 18.4254 47.5496 18.5303C47.6545 18.6352 47.7881 18.7067 47.9336 18.7356C48.0791 18.7645 48.2299 18.7497 48.3669 18.6929C48.504 18.6361 48.6211 18.54 48.7035 18.4167C48.7859 18.2933 48.8299 18.1483 48.8299 18C48.8299 17.8011 48.7509 17.6103 48.6103 17.4697C48.4696 17.329 48.2788 17.25 48.0799 17.25Z" fill="black"/>
<path d="M80.25 28.5V30H69.75V28.5H80.25ZM78 23.4113C77.9753 23.9062 77.8284 24.3874 77.5723 24.8117C77.3162 25.2361 76.9591 25.5904 76.5326 25.8429C76.1062 26.0955 75.6239 26.2385 75.1287 26.2592C74.6335 26.2798 74.141 26.1775 73.695 25.9613C73.181 25.7389 72.7451 25.3681 72.4431 24.8964C72.1411 24.4247 71.9868 23.8737 72 23.3138V17.2538H70.5V23.4113C70.5254 24.1173 70.7166 24.8075 71.0583 25.4259C71.4 26.0443 71.8825 26.5735 72.4667 26.9708C73.0509 27.3681 73.7205 27.6222 74.4212 27.7126C75.1219 27.8031 75.8341 27.7272 76.5 27.4913C77.3858 27.196 78.1544 26.6259 78.6939 25.8638C79.2335 25.1017 79.5158 24.1874 79.5 23.2537V17.2538H78V23.4113ZM78 17.25H79.5H78ZM72 17.25H70.5H72Z" fill="black"/>
<path d="M97 22.7029H115V24.2029H110.634C110.871 24.7002 110.991 25.2451 110.984 25.7958C110.998 26.3183 110.886 26.8365 110.657 27.3065C110.428 27.7764 110.089 28.1843 109.669 28.4955C108.658 29.2072 107.438 29.5607 106.203 29.5C105.3 29.5061 104.406 29.3225 103.579 28.961C102.824 28.6477 102.169 28.1329 101.687 27.4728C101.242 26.8427 101.008 26.0885 101.016 25.3174V25.204H101.304V25.2029H101.645V25.204H103.02V25.3173C103.004 25.6687 103.074 26.0187 103.223 26.3374C103.371 26.6562 103.595 26.9343 103.874 27.148C104.552 27.6303 105.372 27.8697 106.202 27.8273C106.936 27.8752 107.664 27.6835 108.279 27.2811C108.507 27.1126 108.69 26.8908 108.812 26.6351C108.935 26.3794 108.992 26.0977 108.98 25.8145C108.996 25.541 108.946 25.2676 108.833 25.0179C108.721 24.7681 108.549 24.5493 108.333 24.3802C108.245 24.3161 108.153 24.257 108.059 24.2029H97V22.7029ZM110.345 17.5598C109.923 16.9048 109.327 16.3806 108.624 16.0462C107.839 15.6726 106.979 15.4857 106.111 15.5C104.9 15.448 103.709 15.824 102.747 16.5621C102.334 16.881 102.001 17.2915 101.774 17.7612C101.548 18.2309 101.433 18.747 101.44 19.2686C101.437 19.7628 101.547 20.2513 101.762 20.6964H104.358C104.275 20.6428 104.173 20.5906 104.106 20.5358C103.902 20.3857 103.737 20.1897 103.624 19.9637C103.51 19.7378 103.452 19.4882 103.453 19.2354C103.438 18.9468 103.492 18.6588 103.612 18.3958C103.732 18.1328 103.914 17.9026 104.141 17.7246C104.717 17.3251 105.411 17.1305 106.111 17.1722C106.872 17.1238 107.623 17.3624 108.217 17.8409C108.465 18.0747 108.659 18.3597 108.787 18.6761C108.914 18.9926 108.97 19.3329 108.953 19.6735V19.7869H110.956V19.6735C110.959 18.9249 110.747 18.1911 110.345 17.5598Z" fill="black"/>
<g clip-path="url(#clip0_6_92)">
<path d="M146.4 23.6205C146.4 23.6205 143.7 26.5455 143.7 28.3455C143.695 28.705 143.761 29.0619 143.894 29.396C144.027 29.73 144.225 30.0345 144.475 30.2922C144.982 30.8126 145.674 31.1106 146.4 31.1205C147.126 31.1304 147.826 30.8516 148.347 30.3452C148.604 30.0945 148.81 29.7955 148.952 29.4652C149.094 29.135 149.17 28.78 149.175 28.4205V28.3455C149.175 26.5455 146.4 23.6205 146.4 23.6205ZM145.297 22.6028L145.799 22.0598L144.075 17.25H142.575L138.825 27.75H140.325L141.397 24.75H143.605C144.114 23.9932 144.679 23.2754 145.294 22.6028H145.297ZM143.325 19.35L144.72 23.25H141.933L143.325 19.35Z" fill="black"/>
</g>
<path d="M170.438 22.6806L176.249 18.638L177.134 19.6099L172.563 25.0155L170.438 22.6806ZM168.691 22.989L172.092 26.7264C172.163 26.7962 172.247 26.8502 172.34 26.8849C172.433 26.9196 172.532 26.9343 172.631 26.9278C172.73 26.9214 172.826 26.894 172.914 26.8475C173.001 26.8011 173.078 26.7366 173.139 26.6583L178.727 20.0485C178.838 19.9262 178.901 19.7675 178.904 19.6022C178.907 19.4368 178.85 19.276 178.743 19.1497L176.858 17.0789C176.743 16.9606 176.588 16.8884 176.423 16.8758C176.258 16.8632 176.094 16.911 175.962 17.0104L168.857 21.9535C168.773 22.0067 168.702 22.0769 168.647 22.1598C168.593 22.2426 168.556 22.336 168.541 22.4339C168.525 22.5317 168.53 22.6318 168.556 22.7275C168.582 22.8232 168.628 22.9123 168.691 22.989ZM165.095 27.3958L169.308 28.125L170.418 27.1154L168.146 24.6194L165.095 27.3958Z" fill="black"/>
<path d="M197.875 25.5H199.375V25.875H198.625V26.625H199.375V27H197.875V27.75H200.125V24.75H197.875V25.5ZM198.625 20.25H199.375V17.25H197.875V18H198.625V20.25ZM197.875 21.75H199.225L197.875 23.325V24H200.125V23.25H198.775L200.125 21.675V21H197.875V21.75ZM201.625 18V19.5H212.125V18H201.625ZM201.625 27H212.125V25.5H201.625V27ZM201.625 23.25H212.125V21.75H201.625V23.25Z" fill="black"/>
<path d="M227 21.375C226.4 21.375 225.875 21.9 225.875 22.5C225.875 23.1 226.4 23.625 227 23.625C227.6 23.625 228.125 23.1 228.125 22.5C228.125 21.9 227.6 21.375 227 21.375ZM227 17.625C226.4 17.625 225.875 18.15 225.875 18.75C225.875 19.35 226.4 19.875 227 19.875C227.6 19.875 228.125 19.35 228.125 18.75C228.125 18.15 227.6 17.625 227 17.625ZM227 25.125C226.4 25.125 225.875 25.65 225.875 26.25C225.875 26.85 226.4 27.375 227 27.375C227.6 27.375 228.125 26.85 228.125 26.25C228.125 25.65 227.6 25.125 227 25.125ZM229.625 18V19.5H240.125V18H229.625ZM229.625 27H240.125V25.5H229.625V27ZM229.625 23.25H240.125V21.75H229.625V23.25Z" fill="black"/>
<path d="M254.25 22.5L256.5 24.75V20.25L254.25 22.5ZM254.25 27.75H267.75V26.25H254.25V27.75ZM254.25 18.75H267.75V17.25H254.25V18.75ZM258.75 21.75H267.75V20.25H258.75V21.75ZM258.75 24.75H267.75V23.25H258.75V24.75Z" fill="black"/>
<path d="M282.25 20.25V24.75L284.5 22.5L282.25 20.25ZM282.25 27.75H295.75V26.25H282.25V27.75ZM282.25 18.75H295.75V17.25H282.25V18.75ZM286.75 21.75H295.75V20.25H286.75V21.75ZM286.75 24.75H295.75V23.25H286.75V24.75Z" fill="black"/>
<path d="M320.8 22.5L323.5 25.2L322.45 26.25L319.75 23.55L317.05 26.25L316 25.2L318.7 22.5L316 19.8L317.05 18.75L319.75 21.45L322.45 18.75L323.5 19.8L320.8 22.5ZM326.734 28.2555L327.535 27.3956C327.682 27.2446 327.814 27.0901 327.938 26.939C328.058 26.7934 328.166 26.6387 328.262 26.4763C328.352 26.3261 328.425 26.1669 328.481 26.0012C328.535 25.84 328.562 25.6713 328.561 25.5016C328.564 25.2905 328.525 25.0811 328.446 24.885C328.373 24.7007 328.257 24.536 328.109 24.4038C327.951 24.2662 327.767 24.1624 327.568 24.099C327.09 23.9564 326.578 23.9682 326.107 24.1325C325.892 24.2138 325.696 24.3404 325.534 24.5036C325.377 24.6601 325.256 24.8481 325.178 25.0552C325.103 25.2551 325.063 25.4665 325.061 25.68L325.058 25.8577H326.213L326.218 25.6875C326.219 25.5925 326.232 25.4981 326.258 25.4066C326.283 25.3263 326.323 25.2514 326.375 25.1858C326.429 25.1255 326.495 25.0783 326.57 25.0478C326.738 24.981 326.925 24.9771 327.096 25.0368C327.158 25.0639 327.213 25.104 327.257 25.1544C327.303 25.2082 327.338 25.2701 327.36 25.3369C327.387 25.4181 327.401 25.503 327.401 25.5884C327.401 25.6556 327.393 25.7225 327.378 25.788C327.356 25.8662 327.324 25.9415 327.285 26.0122C327.227 26.1144 327.16 26.2117 327.087 26.3034C326.986 26.4344 326.879 26.5601 326.765 26.68L325.148 28.4449V29.25H328.75V28.2555H326.734Z" fill="black"/>
<path d="M348.8 22.5L351.5 25.2L350.45 26.25L347.75 23.55L345.05 26.25L344 25.2L346.7 22.5L344 19.8L345.05 18.75L347.75 21.45L350.45 18.75L351.5 19.8L348.8 22.5ZM355.484 20.0055L356.285 19.1456C356.432 18.9946 356.564 18.8401 356.688 18.689C356.808 18.5434 356.916 18.3887 357.012 18.2263C357.102 18.0762 357.175 17.9169 357.231 17.7512C357.285 17.59 357.312 17.4213 357.311 17.2516C357.314 17.0405 357.275 16.8311 357.196 16.635C357.123 16.4507 357.007 16.286 356.859 16.1538C356.701 16.0162 356.517 15.9124 356.318 15.849C355.84 15.7064 355.328 15.7182 354.857 15.8825C354.642 15.9638 354.446 16.0904 354.284 16.2536C354.127 16.4101 354.006 16.5981 353.928 16.8052C353.853 17.0051 353.813 17.2165 353.811 17.43L353.808 17.6077H354.963L354.968 17.4375C354.969 17.3425 354.982 17.2481 355.008 17.1566C355.033 17.0763 355.073 17.0014 355.125 16.9358C355.179 16.8755 355.245 16.8283 355.32 16.7977C355.488 16.731 355.675 16.7271 355.846 16.7868C355.908 16.8138 355.963 16.854 356.007 16.9044C356.053 16.9582 356.088 17.0201 356.11 17.0869C356.137 17.1681 356.151 17.2529 356.151 17.3384C356.151 17.4056 356.143 17.4725 356.128 17.538C356.106 17.6162 356.074 17.6915 356.035 17.7622C355.977 17.8643 355.91 17.9617 355.837 18.0534C355.736 18.1844 355.629 18.3101 355.515 18.43L353.898 20.1948V21H357.5V20.0055H355.484Z" fill="black"/>
<path d="M382.25 26.25H379.25C378.255 26.25 377.302 25.8549 376.598 25.1517C375.895 24.4484 375.5 23.4946 375.5 22.5C375.5 21.5054 375.895 20.5516 376.598 19.8483C377.302 19.1451 378.255 18.75 379.25 18.75H382.25V20.25H379.25C378.653 20.25 378.081 20.4871 377.659 20.909C377.237 21.331 377 21.9033 377 22.5C377 23.0967 377.237 23.669 377.659 24.091C378.081 24.5129 378.653 24.75 379.25 24.75H382.25V26.25ZM386.75 18.75H383.75V20.25H386.75C387.347 20.25 387.919 20.4871 388.341 20.909C388.763 21.331 389 21.9033 389 22.5C389 23.0967 388.763 23.669 388.341 24.091C387.919 24.5129 387.347 24.75 386.75 24.75H383.75V26.25H386.75C387.745 26.25 388.698 25.8549 389.402 25.1517C390.105 24.4484 390.5 23.4946 390.5 22.5C390.5 21.5054 390.105 20.5516 389.402 19.8483C388.698 19.1451 387.745 18.75 386.75 18.75ZM386 21.75H380V23.25H386V21.75Z" fill="black"/>
<path d="M417 18H411.75L410.25 16.5H405C404.175 16.5 403.5 17.175 403.5 18V27C403.5 27.825 404.175 28.5 405 28.5H417C417.825 28.5 418.5 27.825 418.5 27V19.5C418.5 18.675 417.825 18 417 18ZM417 27H405V18H409.65L411.15 19.5H417V27ZM415.5 25.5L412.65 21.75H412.5L410.325 24.6L408.75 22.575L406.5 25.5H415.5ZM409.5 20.625C409.5 20.025 408.975 19.5 408.375 19.5C407.775 19.5 407.25 20.025 407.25 20.625C407.25 21.225 407.775 21.75 408.375 21.75C408.975 21.75 409.5 21.225 409.5 20.625Z" fill="black"/>
<rect x="469" y="5" width="34" height="34" rx="1.81811" fill="#F8F8F8"/>
<path d="M484.111 19.6667V23.5556C484.111 23.9681 484.275 24.3638 484.567 24.6555C484.858 24.9472 485.254 25.1111 485.667 25.1111C486.079 25.1111 486.475 24.9472 486.767 24.6555C487.058 24.3638 487.222 23.9681 487.222 23.5556V18.1111C487.222 17.286 486.894 16.4947 486.311 15.9112C485.728 15.3278 484.936 15 484.111 15C483.286 15 482.495 15.3278 481.911 15.9112C481.328 16.4947 481 17.286 481 18.1111V24.3333C481 25.571 481.492 26.758 482.367 27.6332C483.242 28.5083 484.429 29 485.667 29C486.904 29 488.091 28.5083 488.966 27.6332C489.842 26.758 490.333 25.571 490.333 24.3333V16.5556" stroke="black" stroke-width="1.5" stroke-linecap="round" stroke-linejoin="round"/>
<rect x="0.5" y="0.5" width="509" height="44" stroke="#F2F2F2"/>
<defs>
<clipPath id="clip0_6_92">
<rect width="18" height="18" fill="white" transform="translate(135 13.5)"/>
</clipPath>
</defs>
</svg>
