<svg width="18" height="18" viewBox="0 0 18 18" fill="none" xmlns="http://www.w3.org/2000/svg">
<path d="M6.44256 3.26071C6.47918 2.63627 6.74343 2.04477 7.18819 1.60002C7.66841 1.11979 8.31973 0.850004 8.99887 0.85L6.44256 3.26071ZM6.44256 3.26071H3.05246V3.26036L3.04219 3.26107L2.97661 3.26557L2.97659 3.26522L2.96648 3.26661C2.81515 3.28738 2.67645 3.36226 2.57604 3.47738C2.47564 3.59251 2.42032 3.74009 2.42031 3.89285H2.41996L2.42066 3.90313L2.42516 3.9687L2.42482 3.96872L2.42621 3.97883C2.44698 4.13017 2.52185 4.26886 2.63698 4.36927C2.7521 4.46967 2.89969 4.52499 3.05245 4.525H3.05246H3.59427L4.36802 14.064C4.42 14.7053 4.71146 15.3035 5.18442 15.7396C5.65738 16.1758 6.27718 16.4179 6.92053 16.4179H11.0772C11.7206 16.4179 12.3404 16.1758 12.8133 15.7396C13.2863 15.3035 13.5778 14.7053 13.6298 14.064L14.4029 4.525H14.9453V4.52535L14.9556 4.52465L15.0212 4.52015L15.0212 4.5205L15.0313 4.5191C15.19 4.49727 15.3345 4.41602 15.4355 4.29178L15.3192 4.19712L15.4355 4.29178C15.5366 4.16754 15.5868 4.00956 15.5758 3.84977C15.5649 3.68998 15.4938 3.54029 15.3767 3.43095C15.2597 3.32161 15.1055 3.26076 14.9454 3.26071H14.9453H11.5554C11.5173 2.61111 11.2333 2.00018 10.7608 1.55228C10.285 1.1013 9.65442 0.849944 8.99888 0.85L6.44256 3.26071ZM4.86276 4.525H13.1344L12.3697 13.962C12.3697 13.962 12.3697 13.962 12.3697 13.962C12.3433 14.2867 12.1957 14.5895 11.9563 14.8103C11.7168 15.0311 11.403 15.1536 11.0773 15.1536H11.0772H6.92053H6.9205C6.59478 15.1536 6.28098 15.0311 6.04151 14.8103C5.80204 14.5895 5.65446 14.2867 5.62811 13.962C5.62811 13.962 5.62811 13.962 5.62811 13.962L4.86276 4.525ZM8.17975 7.19201L8.18009 7.19199L8.1787 7.18189C8.15793 7.03055 8.08306 6.89185 7.96793 6.79145C7.85281 6.69104 7.70522 6.63572 7.55246 6.63571C7.3848 6.63571 7.22401 6.70232 7.10546 6.82086C6.98691 6.93941 6.92031 7.1002 6.92031 7.26786V12.4107H6.91996L6.92066 12.421L6.92516 12.4866L6.92482 12.4866L6.92621 12.4967C6.94804 12.6554 7.02929 12.7999 7.15353 12.9009C7.27778 13.002 7.43575 13.0522 7.59554 13.0412C7.75533 13.0303 7.90502 12.9592 8.01436 12.8421C8.12371 12.7251 8.18455 12.5709 8.1846 12.4108V12.4107V7.26786H8.18495L8.18425 7.25759L8.17975 7.19201ZM11.0726 7.19202L11.0729 7.19199L11.0716 7.18189C11.0508 7.03055 10.9759 6.89185 10.8608 6.79145C10.7457 6.69104 10.5981 6.63572 10.4453 6.63571C10.2777 6.63571 10.1169 6.70232 9.99832 6.82086C9.87977 6.93941 9.81317 7.1002 9.81317 7.26786V12.4107H9.81282L9.81352 12.421L9.81802 12.4866L9.81767 12.4866L9.81907 12.4967C9.8409 12.6554 9.92215 12.7999 10.0464 12.9009C10.1706 13.002 10.3286 13.0522 10.4884 13.0412C10.6482 13.0303 10.7979 12.9592 10.9072 12.8421C11.0166 12.7251 11.0774 12.5709 11.0775 12.4108V12.4107V7.26786H11.0778L11.0771 7.25759L11.0726 7.19202ZM8.99887 2.11429H8.9989C9.3274 2.11425 9.64367 2.23891 9.88379 2.46309C10.1089 2.67325 10.2513 2.95615 10.2868 3.26071H7.71098C7.74645 2.95615 7.88889 2.67325 8.11398 2.46309C8.3541 2.23891 8.67036 2.11425 8.99887 2.11429Z" fill="#F7442F" stroke="#F7442F" stroke-width="0.3"/>
</svg>
