<svg width="24" height="22" viewBox="0 0 24 22" fill="none" xmlns="http://www.w3.org/2000/svg">
<g clip-path="url(#clip0_39_2927)">
<path d="M8.00033 17.666C7.63366 17.666 7.31966 17.5353 7.05833 17.274C6.79699 17.0127 6.66655 16.6989 6.66699 16.3327V9.66602C6.66699 9.29935 6.79766 8.98535 7.05899 8.72402C7.32033 8.46268 7.6341 8.33224 8.00033 8.33268H8.66699V6.99935C8.66699 6.07713 8.9921 5.2909 9.64233 4.64068C10.2925 3.99046 11.0785 3.66557 12.0003 3.66602C12.9225 3.66602 13.7088 3.99113 14.359 4.64135C15.0092 5.29157 15.3341 6.07757 15.3337 6.99935V8.33268H16.0003C16.367 8.33268 16.681 8.46335 16.9423 8.72468C17.2037 8.98602 17.3341 9.29979 17.3337 9.66602V16.3327C17.3337 16.6993 17.203 17.0133 16.9417 17.2747C16.6803 17.536 16.3665 17.6665 16.0003 17.666H8.00033ZM12.0003 14.3327C12.367 14.3327 12.681 14.202 12.9423 13.9407C13.2037 13.6793 13.3341 13.3656 13.3337 12.9993C13.3337 12.6327 13.203 12.3187 12.9417 12.0573C12.6803 11.796 12.3665 11.6656 12.0003 11.666C11.6337 11.666 11.3197 11.7967 11.0583 12.058C10.797 12.3193 10.6665 12.6331 10.667 12.9993C10.667 13.366 10.7977 13.68 11.059 13.9413C11.3203 14.2027 11.6341 14.3331 12.0003 14.3327ZM10.0003 8.33268H14.0003V6.99935C14.0003 6.44379 13.8059 5.97157 13.417 5.58268C13.0281 5.19379 12.5559 4.99935 12.0003 4.99935C11.4448 4.99935 10.9725 5.19379 10.5837 5.58268C10.1948 5.97157 10.0003 6.44379 10.0003 6.99935V8.33268Z" fill="#223484"/>
</g>
<defs>
<clipPath id="clip0_39_2927">
<rect width="16" height="16" fill="white" transform="translate(4 3)"/>
</clipPath>
</defs>
</svg>
