<svg width="13" height="12" viewBox="0 0 13 12" fill="none" xmlns="http://www.w3.org/2000/svg">
<path d="M0.923085 6.00077C0.922945 5.10952 1.15743 4.23394 1.60297 3.46204C2.0485 2.69014 2.68939 2.04912 3.4612 1.60344C4.23301 1.15775 5.10855 0.923096 5.99981 0.923061C6.89106 0.923026 7.76662 1.15761 8.53846 1.60324C8.64441 1.66348 8.76989 1.67936 8.88751 1.64743C9.00513 1.6155 9.10534 1.53834 9.16628 1.43279C9.22722 1.32724 9.24394 1.20188 9.21279 1.08405C9.18164 0.966218 9.10514 0.865494 9 0.803855C7.85618 0.14347 6.52642 -0.121048 5.21694 0.0513267C3.90747 0.223701 2.69146 0.823334 1.7575 1.75723C0.823546 2.69113 0.223835 3.9071 0.051377 5.21656C-0.121081 6.52602 0.143351 7.8558 0.803663 8.99967C1.46398 10.1435 2.48327 11.0376 3.70346 11.5431C4.92365 12.0486 6.27656 12.1374 7.55236 11.7957C8.82816 11.454 9.95556 10.7009 10.7597 9.6531C11.5639 8.60536 11.9998 7.32154 12 6.00077C12 5.87837 11.9514 5.76097 11.8648 5.67442C11.7783 5.58786 11.6609 5.53924 11.5385 5.53924C11.4161 5.53924 11.2987 5.58786 11.2121 5.67442C11.1256 5.76097 11.0769 5.87837 11.0769 6.00077C11.0769 7.34726 10.542 8.63859 9.58993 9.5907C8.63782 10.5428 7.34649 11.0777 6 11.0777C4.65352 11.0777 3.36219 10.5428 2.41008 9.5907C1.45797 8.63859 0.923085 7.34726 0.923085 6.00077Z" fill="#223484"/>
<path d="M12.8667 1.74766C12.909 1.70699 12.9425 1.65871 12.9654 1.60557C12.9882 1.55244 13 1.49548 13 1.43797C13 1.38045 12.9882 1.3235 12.9654 1.27037C12.9425 1.21723 12.909 1.16895 12.8667 1.12828C12.8245 1.08761 12.7743 1.05535 12.7191 1.03334C12.6639 1.01133 12.6047 1 12.5449 1C12.4852 1 12.426 1.01133 12.3708 1.03334C12.3156 1.05535 12.2654 1.08761 12.2232 1.12828L6.18203 6.94329L3.77685 4.62761C3.73459 4.58694 3.68443 4.55468 3.62921 4.53267C3.574 4.51066 3.51483 4.49933 3.45507 4.49933C3.39531 4.49933 3.33613 4.51066 3.28092 4.53267C3.22571 4.55468 3.17554 4.58694 3.13329 4.62761C3.09103 4.66828 3.05751 4.71656 3.03464 4.7697C3.01177 4.82283 3 4.87979 3 4.9373C3 4.99482 3.01177 5.05177 3.03464 5.10491C3.05751 5.15804 3.09103 5.20632 3.13329 5.24699L5.86025 7.87149C5.90246 7.91223 5.95262 7.94455 6.00783 7.9666C6.06305 7.98865 6.12225 8 6.18203 8C6.24181 8 6.301 7.98865 6.35622 7.9666C6.41144 7.94455 6.46159 7.91223 6.50381 7.87149L12.8667 1.74766Z" fill="#223484"/>
</svg>
