<svg width="13" height="13" viewBox="0 0 13 13" fill="none" xmlns="http://www.w3.org/2000/svg">
<path d="M4.61143 8.5L4.09207 10.5469C4.0606 10.6823 3.9924 10.7917 3.88748 10.875C3.78256 10.9583 3.65665 11 3.50976 11C3.31041 11 3.14779 10.9219 3.02188 10.7656C2.89598 10.6094 2.85925 10.4375 2.91172 10.25L3.35238 8.5H1.63693C1.42709 8.5 1.25922 8.41917 1.13331 8.2575C1.00741 8.09583 0.970684 7.91625 1.02314 7.71875C1.05462 7.57292 1.12806 7.45833 1.24348 7.375C1.35889 7.29167 1.49004 7.25 1.63693 7.25H3.66714L4.29667 4.75H2.58122C2.37137 4.75 2.2035 4.66917 2.0776 4.5075C1.95169 4.34583 1.91497 4.16625 1.96743 3.96875C1.99891 3.82292 2.07235 3.70833 2.18776 3.625C2.30318 3.54167 2.43433 3.5 2.58122 3.5H4.61143L5.13079 1.45312C5.16226 1.31771 5.23046 1.20833 5.33538 1.125C5.4403 1.04167 5.56621 1 5.7131 1C5.91244 1 6.07507 1.07812 6.20098 1.23438C6.32688 1.39062 6.3636 1.5625 6.31114 1.75L5.87048 3.5H8.38857L8.90793 1.45312C8.9394 1.31771 9.0076 1.20833 9.11252 1.125C9.21744 1.04167 9.34335 1 9.49024 1C9.68959 1 9.85221 1.07812 9.97812 1.23438C10.104 1.39062 10.1407 1.5625 10.0883 1.75L9.64762 3.5H11.3631C11.5729 3.5 11.7408 3.58063 11.8667 3.74188C11.9926 3.90313 12.0293 4.08292 11.9769 4.28125C11.9454 4.42708 11.8719 4.54167 11.7565 4.625C11.6411 4.70833 11.51 4.75 11.3631 4.75H9.33286L8.70333 7.25H10.4188C10.6286 7.25 10.7965 7.33083 10.9224 7.4925C11.0483 7.65417 11.085 7.83375 11.0326 8.03125C11.0011 8.17708 10.9276 8.29167 10.8122 8.375C10.6968 8.45833 10.5657 8.5 10.4188 8.5H8.38857L7.86921 10.5469C7.83774 10.6823 7.76954 10.7917 7.66462 10.875C7.5597 10.9583 7.43379 11 7.2869 11C7.08756 11 6.92493 10.9219 6.79902 10.7656C6.67312 10.6094 6.6364 10.4375 6.68886 10.25L7.12952 8.5H4.61143ZM4.92619 7.25H7.44429L8.07381 4.75H5.55571L4.92619 7.25Z" fill="#2196F3"/>
</svg>
