<svg width="13" height="13" viewBox="0 0 13 13" fill="none" xmlns="http://www.w3.org/2000/svg">
<path d="M12.7121 0.297805C12.6208 0.206395 12.5125 0.133874 12.3932 0.0843932C12.2739 0.0349123 12.146 0.00944264 12.0169 0.00944264C11.8878 0.00944264 11.7599 0.0349123 11.6406 0.0843932C11.5213 0.133874 11.413 0.206395 11.3217 0.297805L6.5 5.10968L1.67826 0.287944C1.58697 0.196654 1.4786 0.12424 1.35932 0.074834C1.24004 0.0254284 1.11221 9.61891e-10 0.983103 0C0.854 -9.61892e-10 0.726161 0.0254284 0.606885 0.074834C0.48761 0.12424 0.379233 0.196654 0.287944 0.287944C0.196654 0.379233 0.12424 0.48761 0.074834 0.606885C0.0254284 0.726161 -9.61891e-10 0.854 0 0.983103C9.61892e-10 1.11221 0.0254284 1.24004 0.074834 1.35932C0.12424 1.4786 0.196654 1.58697 0.287944 1.67826L5.10968 6.5L0.287944 11.3217C0.196654 11.413 0.12424 11.5214 0.074834 11.6407C0.0254284 11.76 0 11.8878 0 12.0169C0 12.146 0.0254284 12.2738 0.074834 12.3931C0.12424 12.5124 0.196654 12.6208 0.287944 12.7121C0.379233 12.8033 0.48761 12.8758 0.606885 12.9252C0.726161 12.9746 0.854 13 0.983103 13C1.11221 13 1.24004 12.9746 1.35932 12.9252C1.4786 12.8758 1.58697 12.8033 1.67826 12.7121L6.5 7.89032L11.3217 12.7121C11.413 12.8033 11.5214 12.8758 11.6407 12.9252C11.76 12.9746 11.8878 13 12.0169 13C12.146 13 12.2738 12.9746 12.3931 12.9252C12.5124 12.8758 12.6208 12.8033 12.7121 12.7121C12.8033 12.6208 12.8758 12.5124 12.9252 12.3931C12.9746 12.2738 13 12.146 13 12.0169C13 11.8878 12.9746 11.76 12.9252 11.6407C12.8758 11.5214 12.8033 11.413 12.7121 11.3217L7.89032 6.5L12.7121 1.67826C13.0868 1.30357 13.0868 0.6725 12.7121 0.297805Z" fill="#F6442F"/>
</svg>
