<svg width="105" height="22" viewBox="0 0 105 22" fill="none" xmlns="http://www.w3.org/2000/svg">
<rect width="105" height="22" rx="4" fill="#CBCBCB" fill-opacity="0.2"/>
<path d="M8.61143 12.5L8.09207 14.5469C8.0606 14.6823 7.9924 14.7917 7.88748 14.875C7.78256 14.9583 7.65665 15 7.50976 15C7.31041 15 7.14779 14.9219 7.02188 14.7656C6.89598 14.6094 6.85925 14.4375 6.91172 14.25L7.35238 12.5H5.63693C5.42709 12.5 5.25922 12.4192 5.13331 12.2575C5.00741 12.0958 4.97068 11.9163 5.02314 11.7188C5.05462 11.5729 5.12806 11.4583 5.24348 11.375C5.35889 11.2917 5.49004 11.25 5.63693 11.25H7.66714L8.29667 8.75H6.58122C6.37137 8.75 6.2035 8.66917 6.0776 8.5075C5.95169 8.34583 5.91497 8.16625 5.96743 7.96875C5.99891 7.82292 6.07235 7.70833 6.18776 7.625C6.30318 7.54167 6.43433 7.5 6.58122 7.5H8.61143L9.13079 5.45312C9.16226 5.31771 9.23046 5.20833 9.33538 5.125C9.4403 5.04167 9.56621 5 9.7131 5C9.91244 5 10.0751 5.07812 10.201 5.23438C10.3269 5.39062 10.3636 5.5625 10.3111 5.75L9.87048 7.5H12.3886L12.9079 5.45312C12.9394 5.31771 13.0076 5.20833 13.1125 5.125C13.2174 5.04167 13.3433 5 13.4902 5C13.6896 5 13.8522 5.07812 13.9781 5.23438C14.104 5.39062 14.1407 5.5625 14.0883 5.75L13.6476 7.5H15.3631C15.5729 7.5 15.7408 7.58063 15.8667 7.74188C15.9926 7.90313 16.0293 8.08292 15.9769 8.28125C15.9454 8.42708 15.8719 8.54167 15.7565 8.625C15.6411 8.70833 15.51 8.75 15.3631 8.75H13.3329L12.7033 11.25H14.4188C14.6286 11.25 14.7965 11.3308 14.9224 11.4925C15.0483 11.6542 15.085 11.8337 15.0326 12.0312C15.0011 12.1771 14.9276 12.2917 14.8122 12.375C14.6968 12.4583 14.5657 12.5 14.4188 12.5H12.3886L11.8692 14.5469C11.8377 14.6823 11.7695 14.7917 11.6646 14.875C11.5597 14.9583 11.4338 15 11.2869 15C11.0876 15 10.9249 14.9219 10.799 14.7656C10.6731 14.6094 10.6364 14.4375 10.6889 14.25L11.1295 12.5H8.61143ZM8.92619 11.25H11.4443L12.0738 8.75H9.55571L8.92619 11.25Z" fill="#2196F3"/>
<path d="M28.82 10.37C29.1267 10.53 29.3667 10.75 29.54 11.03C29.7133 11.31 29.8 11.6333 29.8 12C29.8 12.5733 29.5967 13.05 29.19 13.43C28.7833 13.81 28.2867 14 27.7 14H24.7V7H27.48C28.0533 7 28.5367 7.18667 28.93 7.56C29.33 7.92667 29.53 8.38667 29.53 8.94C29.53 9.54667 29.2933 10.0233 28.82 10.37ZM27.48 8.08H25.85V9.92H27.48C27.7333 9.92 27.9467 9.83333 28.12 9.66C28.2933 9.48 28.38 9.26 28.38 9C28.38 8.74 28.2933 8.52333 28.12 8.35C27.9467 8.17 27.7333 8.08 27.48 8.08ZM27.7 12.92C27.9667 12.92 28.19 12.8267 28.37 12.64C28.5567 12.4467 28.65 12.2133 28.65 11.94C28.65 11.6667 28.5567 11.4367 28.37 11.25C28.19 11.0567 27.9667 10.96 27.7 10.96H25.85V12.92H27.7ZM36.3635 14L35.8735 12.59H32.8935L32.4035 14H31.1535L33.6935 7H35.0735L37.6035 14H36.3635ZM33.2735 11.51H35.4935L34.3835 8.35L33.2735 11.51ZM41.5105 14.13C40.8371 14.13 40.2638 13.9767 39.7905 13.67C39.3238 13.3633 38.9971 12.9433 38.8105 12.41L39.8005 11.83C40.0805 12.6167 40.6605 13.01 41.5405 13.01C41.9738 13.01 42.2971 12.9267 42.5105 12.76C42.7305 12.5867 42.8405 12.3633 42.8405 12.09C42.8405 11.8033 42.7238 11.5867 42.4905 11.44C42.2571 11.2867 41.8438 11.12 41.2505 10.94C40.9171 10.84 40.6471 10.7467 40.4405 10.66C40.2338 10.5733 40.0138 10.4533 39.7805 10.3C39.5538 10.14 39.3838 9.94333 39.2705 9.71C39.1571 9.47667 39.1005 9.20333 39.1005 8.89C39.1005 8.27 39.3205 7.78 39.7605 7.42C40.2005 7.05333 40.7305 6.87 41.3505 6.87C41.9105 6.87 42.4005 7.00667 42.8205 7.28C43.2405 7.55333 43.5638 7.93 43.7905 8.41L42.8205 8.97C42.5271 8.31667 42.0371 7.99 41.3505 7.99C41.0171 7.99 40.7505 8.07 40.5505 8.23C40.3505 8.38333 40.2505 8.59333 40.2505 8.86C40.2505 9.12 40.3505 9.32667 40.5505 9.48C40.7571 9.62667 41.1271 9.78333 41.6605 9.95C41.9271 10.0367 42.1205 10.1033 42.2405 10.15C42.3671 10.19 42.5405 10.2567 42.7605 10.35C42.9871 10.4433 43.1571 10.5367 43.2705 10.63C43.3838 10.7233 43.5038 10.84 43.6305 10.98C43.7638 11.12 43.8571 11.28 43.9105 11.46C43.9638 11.64 43.9905 11.8433 43.9905 12.07C43.9905 12.7033 43.7605 13.2067 43.3005 13.58C42.8471 13.9467 42.2505 14.13 41.5105 14.13ZM47.0824 12.9H50.1824V14H45.9324V7H50.1324V8.1H47.0824V9.92H49.8824V11.01H47.0824V12.9ZM56.8852 12.9H59.7352V14H55.7352V7H56.8852V12.9ZM61.5887 7H62.7387V14H61.5887V7ZM69.3375 7H70.4875V14H69.5875L66.2875 9.25V14H65.1375V7H66.0375L69.3375 11.75V7ZM74.0355 12.9H77.1355V14H72.8855V7H77.0855V8.1H74.0355V9.92H76.8355V11.01H74.0355V12.9ZM82.6883 7H83.8383V14H82.6883V7ZM88.9871 7C89.9471 7 90.7438 7.33667 91.3771 8.01C92.0171 8.68333 92.3371 9.51333 92.3371 10.5C92.3371 11.48 92.0171 12.31 91.3771 12.99C90.7438 13.6633 89.9471 14 88.9871 14H86.2371V7H88.9871ZM88.9871 12.9C89.6471 12.9 90.1838 12.6733 90.5971 12.22C91.0171 11.7667 91.2271 11.1933 91.2271 10.5C91.2271 9.8 91.0171 9.22667 90.5971 8.78C90.1838 8.32667 89.6471 8.1 88.9871 8.1H87.3871V12.9H88.9871Z" fill="#2196F3"/>
</svg>
