<svg width="24" height="24" viewBox="0 0 24 24" fill="none" xmlns="http://www.w3.org/2000/svg">
<path fill-rule="evenodd" clip-rule="evenodd" d="M10.6293 5.51909C10.6298 5.58781 10.6169 5.65596 10.5911 5.71965C10.5653 5.78335 10.5272 5.84134 10.479 5.89032C10.4308 5.9393 10.3734 5.9783 10.3102 6.00511C10.2469 6.03191 10.1789 6.04599 10.1102 6.04653C8.9172 6.0563 8.03814 6.09537 7.3579 6.22863C6.69163 6.35909 6.25349 6.57328 5.91511 6.91165C5.51744 7.30932 5.2893 7.84653 5.1693 8.73955C5.04791 9.64653 5.04651 10.8389 5.04651 12.4979C5.04651 14.1584 5.04791 15.35 5.1693 16.257C5.2893 17.1493 5.51814 17.6872 5.91581 18.0849C6.31279 18.4826 6.85069 18.7107 7.74302 18.8307C8.64999 18.9521 9.84232 18.9535 11.5021 18.9535C13.1612 18.9535 14.3535 18.9521 15.2605 18.8307C16.1535 18.7107 16.6907 18.4819 17.0884 18.0842C17.4267 17.7465 17.6409 17.3084 17.7714 16.6421C17.9039 15.9612 17.943 15.0821 17.9535 13.8898C17.9546 13.751 18.0108 13.6184 18.1097 13.521C18.2086 13.4237 18.3421 13.3696 18.4809 13.3707C18.6197 13.3718 18.7523 13.428 18.8497 13.5269C18.947 13.6258 19.0011 13.7594 19 13.8981C18.9895 15.0877 18.9525 16.0561 18.7977 16.8437C18.6414 17.646 18.356 18.297 17.8279 18.8251C17.2042 19.4495 16.4081 19.7321 15.4 19.8674C14.4149 20 13.1528 20 11.5419 20H11.4616C9.85069 20 8.5886 20 7.60348 19.8674C6.59535 19.7321 5.8 19.4488 5.17558 18.8251C4.55116 18.2007 4.2686 17.4047 4.13256 16.3972C4 15.4114 4 14.1493 4 12.5384V12.4582C4 10.8472 4 9.58513 4.13256 8.60002C4.26791 7.59188 4.55116 6.79583 5.17558 6.17211C5.70302 5.64398 6.35465 5.35863 7.15697 5.20235C7.94395 5.04746 8.91232 5.00979 10.1012 5.00002C10.1699 4.99938 10.2382 5.0123 10.3019 5.03805C10.3657 5.06379 10.4238 5.10186 10.4728 5.15007C10.5219 5.19828 10.561 5.25568 10.5878 5.319C10.6146 5.38233 10.6287 5.45032 10.6293 5.51909ZM14.6186 5.15351C14.7167 5.05552 14.8497 5.00048 14.9884 5.00048C15.127 5.00048 15.26 5.05552 15.3581 5.15351L18.8465 8.64188C18.9445 8.73999 18.9995 8.87298 18.9995 9.01164C18.9995 9.15031 18.9445 9.2833 18.8465 9.38141L15.3581 12.8698C15.3102 12.9212 15.2525 12.9624 15.1883 12.991C15.1241 13.0196 15.0548 13.035 14.9845 13.0362C14.9143 13.0375 14.8445 13.0246 14.7793 12.9982C14.7142 12.9719 14.655 12.9327 14.6053 12.8831C14.5556 12.8334 14.5165 12.7742 14.4901 12.709C14.4638 12.6439 14.4509 12.5741 14.4521 12.5038C14.4534 12.4336 14.4688 12.3643 14.4974 12.3001C14.5259 12.2359 14.5672 12.1781 14.6186 12.1302L17.2139 9.5349H12.8953C11.8125 9.5349 11.1742 10.063 10.9502 10.2884L10.8163 10.4223L10.6837 10.5549C10.4584 10.7782 9.93023 11.4172 9.93023 12.5V14.593C9.93023 14.7318 9.8751 14.8649 9.77697 14.963C9.67884 15.0612 9.54575 15.1163 9.40697 15.1163C9.2682 15.1163 9.1351 15.0612 9.03697 14.963C8.93884 14.8649 8.88372 14.7318 8.88372 14.593V12.5C8.88372 11.0461 9.60023 10.1558 9.94488 9.81327L10.0774 9.68071L10.2086 9.54955C10.5512 9.2049 11.4414 8.48839 12.8953 8.48839H17.2139L14.6186 5.89304C14.5206 5.79493 14.4656 5.66194 14.4656 5.52328C14.4656 5.38461 14.5206 5.25162 14.6186 5.15351Z" fill="#F4F4F4" stroke="white" stroke-width="0.5"/>
</svg>
