<svg width="30" height="30" viewBox="0 0 30 30" fill="none" xmlns="http://www.w3.org/2000/svg">
<path d="M24.375 15.5494V13.125H22.5V15.9375C22.5001 16.1861 22.5989 16.4245 22.7747 16.6003L25.3125 19.1381V20.625H4.6875V19.1381L7.22531 16.6003C7.40114 16.4245 7.49995 16.1861 7.5 15.9375V12.1875C7.49739 10.8701 7.84247 9.57538 8.50039 8.43405C9.15832 7.29272 10.1058 6.34522 11.2471 5.68726C12.3884 5.02929 13.6831 4.68416 15.0005 4.68673C16.3179 4.6893 17.6113 5.03947 18.75 5.70187V3.60656C17.8576 3.21143 16.9084 2.95958 15.9375 2.86031V0.9375H14.0625V2.85938C11.7512 3.09462 9.60915 4.17855 8.05066 5.90155C6.49217 7.62455 5.62791 9.86422 5.625 12.1875V15.5494L3.08719 18.0872C2.91136 18.263 2.81255 18.5014 2.8125 18.75V21.5625C2.8125 21.8111 2.91127 22.0496 3.08709 22.2254C3.2629 22.4012 3.50136 22.5 3.75 22.5H10.3125V23.4375C10.3125 24.6807 10.8064 25.873 11.6854 26.7521C12.5645 27.6311 13.7568 28.125 15 28.125C16.2432 28.125 17.4355 27.6311 18.3146 26.7521C19.1936 25.873 19.6875 24.6807 19.6875 23.4375V22.5H26.25C26.4986 22.5 26.7371 22.4012 26.9129 22.2254C27.0887 22.0496 27.1875 21.8111 27.1875 21.5625V18.75C27.1874 18.5014 27.0886 18.263 26.9128 18.0872L24.375 15.5494ZM17.8125 23.4375C17.8125 24.1834 17.5162 24.8988 16.9887 25.4262C16.4613 25.9537 15.7459 26.25 15 26.25C14.2541 26.25 13.5387 25.9537 13.0113 25.4262C12.4838 24.8988 12.1875 24.1834 12.1875 23.4375V22.5H17.8125V23.4375Z" fill="#223484"/>
<path d="M23.5 13C27.0899 13 30 10.0899 30 6.5C30 2.91015 27.0899 0 23.5 0C19.9101 0 17 2.91015 17 6.5C17 10.0899 19.9101 13 23.5 13Z" fill="#FF7363"/>
<path d="M23.69 5.42C24.39 5.42 24.9667 5.64 25.42 6.08C25.8733 6.51333 26.1 7.07667 26.1 7.77C26.1 8.46333 25.8733 9.03 25.42 9.47C24.9667 9.91 24.39 10.13 23.69 10.13C22.9833 10.13 22.4033 9.91 21.95 9.47C21.5033 9.03 21.28 8.46333 21.28 7.77C21.28 7.23 21.42 6.76333 21.7 6.37L23.95 3H25.01L23.36 5.44C23.5067 5.42667 23.6167 5.42 23.69 5.42ZM22.61 8.84C22.89 9.10667 23.25 9.24 23.69 9.24C24.13 9.24 24.4867 9.10667 24.76 8.84C25.04 8.56667 25.18 8.21 25.18 7.77C25.18 7.33 25.04 6.97667 24.76 6.71C24.4867 6.44333 24.13 6.31 23.69 6.31C23.2433 6.31 22.8833 6.44333 22.61 6.71C22.3367 6.97667 22.2 7.33 22.2 7.77C22.2 8.21 22.3367 8.56667 22.61 8.84Z" fill="white"/>
</svg>
