<svg width="30" height="30" viewBox="0 0 30 30" fill="none" xmlns="http://www.w3.org/2000/svg">
<path d="M15.0833 9.16797C11.8333 9.16797 9.25 11.7513 9.25 15.0013C9.25 18.2513 11.8333 20.8346 15.0833 20.8346C18.3333 20.8346 20.9167 18.2513 20.9167 15.0013C20.9167 11.7513 18.3333 9.16797 15.0833 9.16797ZM15.0833 19.168C12.75 19.168 10.9167 17.3346 10.9167 15.0013C10.9167 12.668 12.75 10.8346 15.0833 10.8346C17.4167 10.8346 19.25 12.668 19.25 15.0013C19.25 17.3346 17.4167 19.168 15.0833 19.168Z" fill="#171736"/>
<path d="M27.3332 12.2513L24.9998 11.5013L24.4998 10.2513L25.6665 8.08464C25.9165 7.58464 25.8332 6.91797 25.4165 6.5013L23.4165 4.5013C22.9998 4.08464 22.3332 4.0013 21.8332 4.2513L19.6665 5.41797L18.4165 4.91797L17.6665 2.58464C17.4998 2.08464 16.9998 1.66797 16.4165 1.66797H13.5832C12.9998 1.66797 12.4998 2.08464 12.4165 2.66797L11.6665 5.0013C11.1665 5.08464 10.7498 5.2513 10.3332 5.5013L8.1665 4.33464C7.6665 4.08464 6.99984 4.16797 6.58317 4.58464L4.58317 6.58464C4.1665 7.0013 4.08317 7.66797 4.33317 8.16797L5.4165 10.2513C5.24984 10.668 5.08317 11.168 4.9165 11.5846L2.58317 12.3346C2.08317 12.5013 1.6665 13.0013 1.6665 13.5846V16.418C1.6665 17.0013 2.08317 17.5013 2.6665 17.668L4.99984 18.418L5.49984 19.668L4.33317 21.8346C4.08317 22.3346 4.1665 23.0013 4.58317 23.418L6.58317 25.418C6.99984 25.8346 7.6665 25.918 8.1665 25.668L10.3332 24.5013L11.5832 25.0013L12.3332 27.418C12.4998 27.918 12.9998 28.3346 13.5832 28.3346H16.4165C16.9998 28.3346 17.4998 27.918 17.6665 27.418L18.4165 25.0013L19.6665 24.5013L21.8332 25.668C22.3332 25.918 22.9998 25.8346 23.4165 25.418L25.4165 23.418C25.8332 23.0013 25.9165 22.3346 25.6665 21.8346L24.4998 19.668L24.9998 18.418L27.4165 17.668C27.9165 17.5013 28.3332 17.0013 28.3332 16.418V13.5846C28.3332 13.0013 27.9165 12.418 27.3332 12.2513ZM26.6665 16.168L23.6665 17.0846L23.5832 17.5013L22.8332 19.2513L22.5832 19.668L24.0832 22.418L22.4165 24.0846L19.6665 22.5846L19.2498 22.8346C18.6665 23.168 18.0832 23.418 17.4998 23.5846L17.0832 23.668L16.1665 26.668H13.8332L12.9165 23.668L12.4998 23.5846L10.7498 22.8346L10.3332 22.5846L7.58317 24.0846L5.9165 22.418L7.4165 19.668L7.1665 19.2513C6.83317 18.668 6.58317 18.0846 6.4165 17.5013L6.33317 17.0846L3.33317 16.168V13.8346L6.1665 13.0013L6.33317 12.5846C6.49984 11.918 6.74984 11.3346 7.08317 10.7513L7.33317 10.3346L5.9165 7.58464L7.58317 5.91797L10.2498 7.41797L10.6665 7.16797C11.2498 6.83464 11.8332 6.58464 12.4998 6.41797L12.9165 6.2513L13.8332 3.33464H16.1665L17.0832 6.2513L17.4998 6.41797C18.0832 6.58464 18.6665 6.83464 19.2498 7.16797L19.6665 7.41797L22.4165 5.91797L24.0832 7.58464L22.5832 10.3346L22.8332 10.7513C23.1665 11.3346 23.4165 11.918 23.5832 12.5013L23.6665 12.918L26.6665 13.8346V16.168Z" fill="#171736"/>
</svg>
