<svg width="18" height="18" viewBox="0 0 18 18" fill="none" xmlns="http://www.w3.org/2000/svg">
<path fill-rule="evenodd" clip-rule="evenodd" d="M8.24479 2.48898C8.24531 2.55371 8.23308 2.61791 8.20879 2.67791C8.18449 2.73792 8.14862 2.79254 8.10322 2.83868C8.05781 2.88482 8.00376 2.92156 7.94416 2.94681C7.88455 2.97206 7.82056 2.98532 7.75583 2.98583C6.632 2.99504 5.80392 3.03184 5.16314 3.15737C4.53551 3.28026 4.12278 3.48203 3.80404 3.80077C3.42943 4.17538 3.21452 4.68143 3.10148 5.52266C2.98713 6.37703 2.98581 7.5002 2.98581 9.06304C2.98581 10.6272 2.98713 11.7497 3.10148 12.6041C3.21452 13.4446 3.43009 13.9514 3.80469 14.326C4.17865 14.7006 4.68535 14.9155 5.52592 15.0285C6.38029 15.1429 7.50346 15.1442 9.06696 15.1442C10.6298 15.1442 11.753 15.1429 12.6073 15.0285C13.4486 14.9155 13.9546 14.6999 14.3292 14.3253C14.648 14.0072 14.8497 13.5945 14.9726 12.9669C15.0975 12.3254 15.1343 11.4973 15.1442 10.3742C15.1452 10.2434 15.1981 10.1185 15.2913 10.0268C15.3845 9.93509 15.5103 9.88416 15.641 9.88521C15.7717 9.88625 15.8967 9.93919 15.9884 10.0324C16.0801 10.1255 16.131 10.2513 16.13 10.3821C16.1201 11.5026 16.0853 12.4148 15.9394 13.1568C15.7922 13.9126 15.5234 14.5258 15.0259 15.0233C14.4383 15.6115 13.6884 15.8776 12.7388 16.0051C11.8108 16.13 10.6219 16.13 9.10442 16.13H9.02884C7.51135 16.13 6.32246 16.13 5.39448 16.0051C4.44481 15.8776 3.6956 15.6108 3.1074 15.0233C2.51919 14.4351 2.25303 13.6852 2.12487 12.7362C2 11.8075 2 10.6187 2 9.10116V9.02558C2 7.50808 2 6.31919 2.12487 5.39122C2.25237 4.44155 2.51919 3.69168 3.1074 3.10413C3.60425 2.60662 4.21808 2.33783 4.97387 2.19061C5.7152 2.04471 6.6274 2.00922 7.74729 2.00002C7.81207 1.99941 7.87634 2.01159 7.93642 2.03584C7.99649 2.06009 8.0512 2.09595 8.09741 2.14136C8.14361 2.18678 8.18042 2.24085 8.2057 2.3005C8.23099 2.36015 8.24428 2.4242 8.24479 2.48898ZM12.0027 2.14461C12.0951 2.0523 12.2204 2.00046 12.351 2.00046C12.4816 2.00046 12.6069 2.0523 12.6994 2.14461L15.9854 5.43065C16.0777 5.52307 16.1295 5.64835 16.1295 5.77897C16.1295 5.90959 16.0777 6.03487 15.9854 6.12729L12.6994 9.41333C12.6542 9.46176 12.5998 9.5006 12.5393 9.52754C12.4789 9.55448 12.4136 9.56897 12.3474 9.57014C12.2812 9.5713 12.2155 9.55913 12.1541 9.53434C12.0928 9.50955 12.037 9.47265 11.9902 9.42584C11.9434 9.37904 11.9065 9.32328 11.8817 9.26191C11.8569 9.20053 11.8447 9.13479 11.8459 9.06861C11.8471 9.00243 11.8616 8.93716 11.8885 8.8767C11.9154 8.81623 11.9543 8.76182 12.0027 8.71669L14.4475 6.27188H10.3794C9.35942 6.27188 8.75807 6.76938 8.54711 6.98166L8.42092 7.10784L8.29605 7.23271C8.08378 7.44302 7.58627 8.04502 7.58627 9.06501V11.0366C7.58627 11.1674 7.53434 11.2927 7.4419 11.3852C7.34946 11.4776 7.22409 11.5295 7.09336 11.5295C6.96264 11.5295 6.83726 11.4776 6.74483 11.3852C6.65239 11.2927 6.60046 11.1674 6.60046 11.0366V9.06501C6.60046 7.69539 7.27541 6.85679 7.60007 6.5341L7.72494 6.40923L7.8485 6.28568C8.17119 5.96102 9.00978 5.28606 10.3794 5.28606H14.4475L12.0027 2.84125C11.9104 2.74883 11.8586 2.62355 11.8586 2.49293C11.8586 2.36231 11.9104 2.23703 12.0027 2.14461Z" fill="#2196F3"/>
</svg>
