<svg width="11" height="11" viewBox="0 0 11 11" fill="none" xmlns="http://www.w3.org/2000/svg">
<path d="M3.90177 7.19234L3.46231 8.9243C3.43568 9.03888 3.37797 9.13143 3.28919 9.20194C3.20042 9.27245 3.09388 9.30771 2.96959 9.30771C2.80091 9.30771 2.6633 9.24161 2.55677 9.1094C2.45024 8.97718 2.41916 8.83175 2.46355 8.6731L2.83642 7.19234H1.38489C1.20734 7.19234 1.06529 7.12394 0.958757 6.98715C0.852222 6.85035 0.82115 6.6984 0.865539 6.53128C0.892173 6.40789 0.954318 6.31093 1.05197 6.24042C1.14963 6.16991 1.2606 6.13465 1.38489 6.13465H3.10276L3.63543 4.01928H2.1839C2.00634 4.01928 1.8643 3.95088 1.75776 3.81408C1.65123 3.67729 1.62016 3.52534 1.66455 3.35822C1.69118 3.23482 1.75332 3.13787 1.85098 3.06736C1.94864 2.99684 2.05961 2.96159 2.1839 2.96159H3.90177L4.34122 1.22962C4.36785 1.11504 4.42556 1.02249 4.51434 0.951982C4.60312 0.881469 4.70965 0.846213 4.83394 0.846213C5.00262 0.846213 5.14023 0.912319 5.24676 1.04453C5.35329 1.17674 5.38437 1.32217 5.33998 1.48083L4.96711 2.96159H7.09779L7.53725 1.22962C7.56388 1.11504 7.62159 1.02249 7.71037 0.951982C7.79914 0.881469 7.90568 0.846213 8.02997 0.846213C8.19865 0.846213 8.33625 0.912319 8.44279 1.04453C8.54932 1.17674 8.5804 1.32217 8.53601 1.48083L8.16314 2.96159H9.61467C9.79222 2.96159 9.93427 3.02981 10.0408 3.16625C10.1473 3.30269 10.1784 3.45482 10.134 3.62264C10.1074 3.74604 10.0452 3.84299 9.94759 3.91351C9.84993 3.98402 9.73896 4.01928 9.61467 4.01928H7.8968L7.36413 6.13465H8.81566C8.99322 6.13465 9.13526 6.20305 9.2418 6.33984C9.34833 6.47663 9.3794 6.62859 9.33501 6.7957C9.30838 6.9191 9.24624 7.01606 9.14858 7.08657C9.05092 7.15708 8.93995 7.19234 8.81566 7.19234H7.09779L6.65834 8.9243C6.63171 9.03888 6.574 9.13143 6.48522 9.20194C6.39644 9.27245 6.28991 9.30771 6.16562 9.30771C5.99694 9.30771 5.85933 9.24161 5.7528 9.1094C5.64626 8.97718 5.61519 8.83175 5.65958 8.6731L6.03245 7.19234H3.90177ZM4.1681 6.13465H6.29879L6.83146 4.01928H4.70077L4.1681 6.13465Z" fill="#2196F3"/>
</svg>
