<svg width="18" height="18" viewBox="0 0 18 18" fill="none" xmlns="http://www.w3.org/2000/svg">
<path fill-rule="evenodd" clip-rule="evenodd" d="M11.3532 2.60249C11.2478 2.49716 11.1048 2.43799 10.9557 2.43799C10.8067 2.43799 10.6637 2.49716 10.5582 2.60249L3.66348 9.49649C3.59299 9.56703 3.54252 9.65503 3.51723 9.75149L2.76723 12.624C2.74247 12.7189 2.74297 12.8187 2.76868 12.9133C2.79439 13.008 2.84441 13.0943 2.91378 13.1637C2.98315 13.2331 3.06945 13.2831 3.16413 13.3088C3.2588 13.3345 3.35855 13.335 3.45348 13.3102L6.32448 12.5602C6.42129 12.5349 6.50958 12.4841 6.58023 12.4132L13.4742 5.51924C13.5796 5.41377 13.6387 5.27081 13.6387 5.12174C13.6387 4.97268 13.5796 4.82971 13.4742 4.72424L11.3532 2.60249ZM4.56648 10.1842L10.9557 3.79574L12.281 5.12099L5.89248 11.5102L4.09773 11.979L4.56648 10.1842Z" fill="#22945E"/>
<path d="M3 14.4375C2.85082 14.4375 2.70774 14.4968 2.60225 14.6023C2.49676 14.7077 2.4375 14.8508 2.4375 15C2.4375 15.1492 2.49676 15.2923 2.60225 15.3977C2.70774 15.5032 2.85082 15.5625 3 15.5625H14.25C14.3992 15.5625 14.5423 15.5032 14.6477 15.3977C14.7532 15.2923 14.8125 15.1492 14.8125 15C14.8125 14.8508 14.7532 14.7077 14.6477 14.6023C14.5423 14.4968 14.3992 14.4375 14.25 14.4375H3Z" fill="#22945E"/>
</svg>
