<svg width="10" height="10" viewBox="0 0 10 10" fill="none" xmlns="http://www.w3.org/2000/svg">
<g clip-path="url(#clip0_25_5392)">
<path d="M3.33347 5.83325C3.21542 5.83325 3.1164 5.79326 3.0364 5.71326C2.9564 5.63326 2.91654 5.53437 2.91682 5.4166C2.91682 5.29855 2.95682 5.19952 3.03681 5.11952C3.11681 5.03952 3.2157 4.99966 3.33347 4.99994C3.45153 4.99994 3.55055 5.03994 3.63055 5.11994C3.71055 5.19994 3.75041 5.29882 3.75013 5.4166C3.75013 5.53465 3.71013 5.63368 3.63013 5.71367C3.55014 5.79367 3.45125 5.83353 3.33347 5.83325ZM5.0001 5.83325C4.88205 5.83325 4.78302 5.79326 4.70302 5.71326C4.62303 5.63326 4.58317 5.53437 4.58344 5.4166C4.58344 5.29855 4.62344 5.19952 4.70344 5.11952C4.78344 5.03952 4.88232 4.99966 5.0001 4.99994C5.11815 4.99994 5.21718 5.03994 5.29718 5.11994C5.37717 5.19994 5.41703 5.29882 5.41676 5.4166C5.41676 5.53465 5.37676 5.63368 5.29676 5.71367C5.21676 5.79367 5.11787 5.83353 5.0001 5.83325ZM6.66673 5.83325C6.54867 5.83325 6.44965 5.79326 6.36965 5.71326C6.28965 5.63326 6.24979 5.53437 6.25007 5.4166C6.25007 5.29855 6.29007 5.19952 6.37007 5.11952C6.45006 5.03952 6.54895 4.99966 6.66673 4.99994C6.78478 4.99994 6.8838 5.03994 6.9638 5.11994C7.0438 5.19994 7.08366 5.29882 7.08338 5.4166C7.08338 5.53465 7.04338 5.63368 6.96339 5.71367C6.88339 5.79367 6.7845 5.83353 6.66673 5.83325ZM2.0835 9.16651C1.85434 9.16651 1.6581 9.08484 1.49477 8.92151C1.33144 8.75818 1.24991 8.56208 1.25019 8.33319V2.5C1.25019 2.27084 1.33186 2.0746 1.49519 1.91127C1.65851 1.74794 1.85462 1.66641 2.0835 1.66669H2.50016V1.23962C2.50016 1.12156 2.54016 1.02434 2.62016 0.947956C2.70016 0.871569 2.79904 0.833376 2.91682 0.833376C3.03487 0.833376 3.1339 0.873375 3.21389 0.953373C3.29389 1.03337 3.33375 1.13226 3.33347 1.25003V1.66669H6.66673V1.23962C6.66673 1.12156 6.70672 1.02434 6.78672 0.947956C6.86672 0.871569 6.96561 0.833376 7.08338 0.833376C7.20144 0.833376 7.30046 0.873375 7.38046 0.953373C7.46046 1.03337 7.50032 1.13226 7.50004 1.25003V1.66669H7.9167C8.14586 1.66669 8.3421 1.74835 8.50543 1.91168C8.66876 2.07501 8.75029 2.27112 8.75001 2.5V8.33319C8.75001 8.56235 8.66834 8.7586 8.50502 8.92193C8.34169 9.08526 8.14558 9.16678 7.9167 9.16651H2.0835ZM2.0835 8.33319H7.9167V4.16663H2.0835V8.33319ZM2.0835 3.33331H7.9167V2.5H2.0835V3.33331Z" fill="#2196F3"/>
</g>
<defs>
<clipPath id="clip0_25_5392">
<rect width="9.6233" height="9.6233" fill="white" transform="scale(1.03912)"/>
</clipPath>
</defs>
</svg>
