<svg width="29" height="27" viewBox="0 0 29 27" fill="none" xmlns="http://www.w3.org/2000/svg">
<path d="M9.10093 13C8.4929 13 8 13.4929 8 14.1009C8 14.709 8.4929 15.2019 9.10093 15.2019C9.70897 15.2019 10.2019 14.709 10.2019 14.1009C10.2019 13.4929 9.70897 13 9.10093 13Z" fill="black"/>
<path d="M11.3027 14.1009C11.3027 13.4929 11.7956 13 12.4037 13C13.0117 13 13.5046 13.4929 13.5046 14.1009C13.5046 14.709 13.0117 15.2019 12.4037 15.2019C11.7956 15.2019 11.3027 14.709 11.3027 14.1009Z" fill="black"/>
<path d="M15.7064 13C15.0984 13 14.6055 13.4929 14.6055 14.1009C14.6055 14.709 15.0984 15.2019 15.7064 15.2019C16.3144 15.2019 16.8073 14.709 16.8073 14.1009C16.8073 13.4929 16.3144 13 15.7064 13Z" fill="black"/>
<path fill-rule="evenodd" clip-rule="evenodd" d="M3.75 5C1.67894 5 0 6.65952 0 8.70665V19.0853C0 21.1324 1.67894 22.7919 3.75 22.7919H3.75908L3.76606 26.2601C3.76666 26.5633 3.95393 26.8355 4.2389 26.9475C4.52386 27.0595 4.84912 26.9888 5.06019 26.7688L8.87685 22.7919H20.25C22.3211 22.7919 24 21.1324 24 19.0853V8.70665C24 6.65952 22.3211 5 20.25 5H3.75ZM1.5 8.70665C1.5 7.47837 2.50736 6.48266 3.75 6.48266H20.25C21.4927 6.48266 22.5 7.47837 22.5 8.70665V19.0853C22.5 20.3136 21.4927 21.3092 20.25 21.3092H8.5545C8.3487 21.3092 8.15197 21.3928 8.01038 21.5404L5.26233 24.4038L5.25759 22.0491C5.25677 21.6402 4.92122 21.3092 4.5076 21.3092H3.75C2.50736 21.3092 1.5 20.3136 1.5 19.0853V8.70665Z" fill="#9E9E9E"/>
<path d="M22.5 13C26.0899 13 29 10.0899 29 6.5C29 2.91015 26.0899 0 22.5 0C18.9101 0 16 2.91015 16 6.5C16 10.0899 18.9101 13 22.5 13Z" fill="#FF7363"/>
<path d="M22.421 4.878C23.051 4.878 23.57 5.076 23.978 5.472C24.386 5.862 24.59 6.369 24.59 6.993C24.59 7.617 24.386 8.127 23.978 8.523C23.57 8.919 23.051 9.117 22.421 9.117C21.785 9.117 21.263 8.919 20.855 8.523C20.453 8.127 20.252 7.617 20.252 6.993C20.252 6.507 20.378 6.087 20.63 5.733L22.655 2.7H23.609L22.124 4.896C22.256 4.884 22.355 4.878 22.421 4.878ZM21.449 7.956C21.701 8.196 22.025 8.316 22.421 8.316C22.817 8.316 23.138 8.196 23.384 7.956C23.636 7.71 23.762 7.389 23.762 6.993C23.762 6.597 23.636 6.279 23.384 6.039C23.138 5.799 22.817 5.679 22.421 5.679C22.019 5.679 21.695 5.799 21.449 6.039C21.203 6.279 21.08 6.597 21.08 6.993C21.08 7.389 21.203 7.71 21.449 7.956Z" fill="white"/>
</svg>
