<svg width="8" height="10" viewBox="0 0 8 10" fill="none" xmlns="http://www.w3.org/2000/svg">
<path d="M6.75567 3.83534H3.94538V0.393193C3.94538 0.326922 3.91896 0.262605 3.87042 0.210729C3.82188 0.158852 3.75408 0.122475 3.67809 0.10753C3.60209 0.0925841 3.52238 0.0999506 3.45195 0.128429C3.38151 0.156907 3.32451 0.204817 3.29024 0.264347L0.13482 5.74323C0.109261 5.78791 0.0974807 5.83737 0.100584 5.88697C0.103688 5.93657 0.121574 5.98469 0.152564 6.02682C0.183553 6.06894 0.226631 6.10368 0.277755 6.12779C0.328878 6.15189 0.386372 6.16456 0.44484 6.16462H3.25513V9.6076C3.25529 9.67361 3.28167 9.73764 3.32998 9.78933C3.3783 9.84102 3.44573 9.87735 3.52137 9.89244C3.54725 9.89745 3.57371 9.89998 3.60025 9.89998C3.66482 9.89995 3.72809 9.88453 3.78286 9.85547C3.83763 9.82641 3.8817 9.78489 3.91008 9.73561L7.06549 4.25673C7.09099 4.21206 7.10272 4.16262 7.0996 4.11305C7.09648 4.06348 7.07861 4.01539 7.04765 3.97329C7.0167 3.93119 6.97367 3.89644 6.92261 3.87232C6.87154 3.84819 6.8141 3.83547 6.75567 3.83534ZM3.94538 8.34059V5.87124C3.94533 5.7935 3.90894 5.71897 3.84422 5.66401C3.77951 5.60906 3.69175 5.57819 3.60025 5.57819H0.997037L3.25493 1.65954V4.12872C3.25496 4.16722 3.26391 4.20535 3.28128 4.24091C3.29865 4.27648 3.32409 4.30879 3.35616 4.336C3.38822 4.36321 3.42628 4.38479 3.46817 4.39951C3.51005 4.41422 3.55493 4.42179 3.60025 4.42176H6.20347L3.94538 8.34059Z" fill="#2196F3" stroke="#2196F3" stroke-width="0.2"/>
</svg>
