<svg width="156" height="34" viewBox="0 0 156 34" fill="none" xmlns="http://www.w3.org/2000/svg">
<path d="M34.3209 0C35.9386 2.8333 37.5563 5.66661 39.174 8.47812C35.9386 8.49991 32.6814 8.49991 29.4461 8.52171C28.9651 8.52171 28.5061 8.49991 28.0251 8.49991C25.2488 8.47812 22.4507 8.47812 19.6744 8.47812C20.7456 6.64737 21.8167 4.83841 22.866 3.00766C23.4344 2.0269 23.9591 1.00255 24.4837 0C27.7628 0 31.0419 0 34.3209 0Z" fill="#019DD7"/>
<path d="M24.4836 0C23.9371 1.00255 23.4343 2.00511 22.8659 3.00766C21.8166 4.83841 20.7455 6.64737 19.6743 8.47812C19.6306 8.52171 19.565 8.5435 19.4994 8.5435C16.2859 8.52171 13.0724 8.49991 9.85895 8.49991C10.4929 7.323 11.1269 6.14609 11.7827 4.99097C12.7227 3.31279 13.6845 1.65639 14.6464 0C17.9255 0 21.2045 0 24.4836 0Z" fill="#02BAF0"/>
<path d="M0 25.0652C0.218605 24.7818 0.45907 24.5203 0.633954 24.237C1.96744 21.9485 3.30093 19.6601 4.63442 17.3499C4.65628 17.2845 4.74373 17.2627 4.78745 17.2191C4.96233 17.3281 5.18094 17.3934 5.26838 17.546C5.74931 18.3088 6.20838 19.0716 6.66745 19.8344C7.58559 21.4255 8.48187 23.0165 9.40001 24.5857C9.53117 24.7818 9.81536 24.8908 10.034 25.0434C9.85908 25.4139 9.6842 25.8062 9.48745 26.1767C8.26326 28.3344 7.03908 30.492 5.81489 32.6279C5.61815 32.9984 5.37768 33.3253 5.07163 33.783C4.21907 32.3446 3.41024 30.9715 2.62326 29.6202C1.88 28.3562 1.13675 27.0703 0.393489 25.8062C0.306047 25.6536 0.131163 25.5664 0 25.4575C0 25.3485 0 25.2177 0 25.0652Z" fill="#CDEAF2"/>
<path d="M155.012 10.702C154.859 10.8982 154.706 11.0943 154.51 11.3559C154.335 11.1597 154.182 10.9854 153.985 10.7674C153.919 11.1161 153.854 11.4212 153.744 11.9007C153.176 11.2469 153.591 10.593 153.307 9.9828C153.132 10.0046 152.892 10.0046 152.63 10.0482C152.608 10.6366 152.564 11.1815 152.542 11.7482C151.952 11.3123 152.214 10.7456 152.083 10.2007C151.93 10.0918 151.711 9.961 151.493 9.83023C151.515 9.78664 151.537 9.72126 151.537 9.67767C152.302 9.67767 153.045 9.67767 153.897 9.67767C154.05 9.89562 154.247 10.1789 154.444 10.4623C154.925 10.3533 154.772 9.50331 155.45 9.65588C155.515 10.2225 155.581 10.811 155.646 11.3777C155.646 11.5302 155.646 11.661 155.646 11.8135C155.493 11.77 155.318 11.7482 155.1 11.7046C155.122 11.3994 155.122 11.0943 155.143 10.811C155.143 10.7456 155.143 10.6802 155.122 10.6148C155.1 10.593 155.056 10.6584 155.012 10.702Z" fill="#273887"/>
<path d="M24.4839 34C24.4839 33.9346 24.4839 33.8692 24.4839 33.8039C24.5495 33.7821 24.637 33.7603 24.7025 33.7385C27.916 33.7603 31.1077 33.7603 34.3212 33.7821C34.3212 33.8474 34.3212 33.9128 34.3212 34C31.0421 34 27.763 34 24.4839 34Z" fill="#CDEAF2"/>
<path d="M155.647 11.3332C155.581 10.7665 155.516 10.1781 155.45 9.61141C155.516 9.52424 155.581 9.45885 155.647 9.37167C155.647 10.0255 155.647 10.6794 155.647 11.3332Z" fill="#0D6EAF"/>
<path d="M53.2958 23.3864C53.2958 26.2197 53.2958 28.8133 53.2958 31.494C52.0935 31.494 50.9349 31.494 49.7107 31.494C49.6889 31.2979 49.6233 31.0581 49.6233 30.8184C49.6233 26.2415 49.5577 21.6646 49.6451 17.1095C49.7107 13.5134 51.547 10.0699 55.6786 9.04553C59.3075 8.15195 62.5865 8.78399 65.0568 11.7917C68.4889 15.9762 67.1991 23.8441 60.641 25.3697C58.2363 25.9364 55.941 25.5877 53.9735 23.9531C53.8205 23.8223 53.6456 23.6915 53.2958 23.3864ZM63.0456 17.1749C63.0238 16.848 63.0019 16.5211 62.9582 16.1942C62.674 13.9493 61.0345 12.3583 58.5642 12.075C56.7935 11.8788 54.5637 12.7724 53.6675 14.9519C53.2521 15.9544 53.2084 17.0006 53.3177 18.0467C53.7112 21.3595 57.2307 23.2774 60.2475 21.839C62.2149 20.9018 62.98 19.2236 63.0456 17.1749Z" fill="#223484"/>
<path d="M111.926 25.1503C110.964 25.2593 110.111 25.4118 109.237 25.4336C107.029 25.4772 104.799 25.5644 102.591 25.4554C101.52 25.4118 100.449 25.0849 99.4434 24.6708C97.2792 23.799 96.6016 22.208 96.7327 19.9632C96.9295 16.7376 98.8751 15.6042 102.001 15.2773C103.794 15.0812 105.63 15.2337 107.444 15.2337C107.685 15.2337 107.947 15.2337 108.188 15.2337C108.275 13.512 107.51 12.3568 105.914 11.9863C103.903 11.5286 101.87 11.5069 99.9244 12.3786C99.662 12.4876 99.3997 12.6184 99.1374 12.7274C97.7383 11.6594 97.8476 10.0902 99.4216 9.37098C100.143 9.04406 100.952 8.84791 101.717 8.78252C103.575 8.60816 105.411 8.65175 107.248 9.15303C110.264 9.95943 111.926 12.0517 111.948 15.1248C111.969 18.2414 111.948 21.358 111.948 24.4965C111.969 24.6708 111.948 24.8452 111.926 25.1503ZM108.319 18.0452C107.619 17.9581 106.985 17.8273 106.329 17.7837C104.887 17.6965 103.422 17.6094 102.023 18.0888C100.952 18.4593 100.405 19.3093 100.427 20.4209C100.449 21.4888 100.974 22.2734 102.067 22.5785C104.122 23.1234 106.198 22.9926 108.297 22.6221C108.319 21.0965 108.319 19.6581 108.319 18.0452Z" fill="#223484"/>
<path d="M86.8299 17.1735C86.9829 21.5324 83.4415 25.5862 78.0857 25.6298C73.0797 25.6734 69.2322 21.9247 69.2759 17.1081C69.2978 12.2697 73.0578 8.71713 78.0857 8.71713C83.2448 8.69533 87.0048 12.6838 86.8299 17.1735ZM78.042 11.9645C75.2001 11.9645 73.1015 14.1876 73.1015 17.1952C73.1015 20.0939 75.2438 22.3606 77.9983 22.3606C80.9057 22.3606 83.0043 20.2247 82.9825 17.1735C82.9825 13.5555 80.4685 11.9427 78.042 11.9645Z" fill="#223484"/>
<path d="M149.11 13.0986C147.055 11.7909 144.76 11.3986 142.355 11.573C141.809 11.6166 141.262 11.7256 140.76 11.9217C139.951 12.205 139.579 12.7499 139.601 13.4691C139.623 14.2319 140.082 14.7114 140.76 14.864C141.918 15.1255 143.099 15.2999 144.279 15.496C145.394 15.6922 146.487 15.8883 147.602 16.1063C147.886 16.1717 148.148 16.2806 148.433 16.3896C151.428 17.7191 152.083 21.4678 149.744 23.7562C148.826 24.6498 147.711 25.1293 146.465 25.3472C142.88 26.001 139.448 25.4998 136.169 23.9524C136.016 23.887 135.863 23.7562 135.644 23.6036C136.081 22.7972 136.519 22.0126 136.912 21.2934C138.421 21.7075 139.841 22.2088 141.328 22.5139C142.793 22.819 144.301 22.8408 145.766 22.4267C146.247 22.2742 146.793 21.969 147.077 21.5767C147.689 20.6832 147.143 19.5498 145.941 19.2447C144.935 18.9832 143.864 18.8742 142.815 18.7434C141.415 18.5473 139.995 18.4601 138.661 17.8716C137.175 17.2178 136.147 16.1499 135.95 14.4717C135.754 12.5973 136.3 11.0499 137.94 9.96019C138.989 9.26276 140.191 8.93584 141.415 8.80507C143.448 8.60892 145.482 8.65251 147.493 9.17558C148.017 9.30635 148.542 9.5025 149.001 9.76404C150.619 10.6576 150.662 11.9435 149.11 13.0986Z" fill="#223484"/>
<path d="M93.6503 25.1502C92.4043 25.1502 91.2894 25.1502 90.0871 25.1502C90.0652 24.8233 90.0215 24.4964 90.0215 24.1912C90.0215 17.3913 90.0215 10.6132 90.0215 3.81324C90.0215 2.13505 90.5899 1.59018 92.2731 1.72095C92.7322 1.74275 93.1913 1.89531 93.6503 1.98249C93.6503 9.74138 93.6503 17.3913 93.6503 25.1502Z" fill="#273887"/>
<path d="M43.9614 17.0002C43.6991 17.5015 43.4586 18.0245 43.1744 18.5258C41.7535 20.945 40.3326 23.3424 38.9116 25.7616C38.5837 25.6745 38.2558 25.5437 37.9279 25.5219C35.1079 25.5001 32.3098 25.5001 29.4898 25.5001C29.4898 25.4129 29.4898 25.3257 29.4679 25.2386C29.5991 24.977 29.7084 24.7155 29.8395 24.4757C31.2823 21.9912 32.7032 19.5066 34.146 17.0002C37.447 17.0002 40.7042 17.0002 43.9614 17.0002Z" fill="#0D6EAF"/>
<path d="M43.9613 16.9998C40.7041 16.9998 37.4468 16.9998 34.1678 16.9998C33.971 16.5857 33.7743 16.1498 33.5557 15.7575C32.2003 13.3383 30.8231 10.9408 29.4459 8.54344C32.6813 8.52164 35.9385 8.52164 39.1738 8.49985C40.7478 11.2024 42.3436 13.9049 43.9176 16.6075C43.9831 16.6946 43.9394 16.869 43.9613 16.9998Z" fill="#028DC0"/>
<path d="M119.358 25.1503C118.112 25.1503 116.954 25.1503 115.729 25.1503C115.708 24.8888 115.664 24.6055 115.642 24.3439C115.642 21.3363 115.642 18.3068 115.642 15.2992C115.642 14.7543 115.642 14.2094 115.751 13.6646C116.254 10.8313 118.003 9.19666 121.085 8.78256C122.528 8.58641 123.993 8.63 125.392 9.13127C127.206 9.76332 127.556 11.18 126.244 12.6184C125.501 12.4441 124.78 12.1607 124.036 12.0953C123.228 12.03 122.353 12.03 121.566 12.2261C120.058 12.6402 119.533 13.8607 119.38 15.2992C119.315 15.9094 119.358 16.5415 119.358 17.1517C119.358 19.4401 119.358 21.7286 119.358 24.017C119.358 24.3875 119.358 24.7362 119.358 25.1503Z" fill="#223484"/>
<path d="M29.5118 25.4983C32.3318 25.4983 35.1518 25.4983 37.9499 25.5201C38.2778 25.5201 38.6058 25.6727 38.9337 25.7599C37.5783 28.1355 36.223 30.5111 34.8895 32.8867C34.7146 33.1918 34.5178 33.497 34.343 33.8239C31.1295 33.8021 27.9378 33.8021 24.7243 33.7803C24.7899 33.5841 24.8336 33.3662 24.9429 33.17C25.7518 31.7752 26.5388 30.3585 27.3695 28.9637C28.0471 27.7868 28.7904 26.6534 29.5118 25.4983Z" fill="#0167B2"/>
<path d="M132.693 9.48064C132.693 14.7331 132.693 19.8985 132.693 25.151C131.513 25.151 130.354 25.151 129.108 25.151C129.086 24.7587 129.064 24.41 129.064 24.0613C129.064 19.8767 129.13 15.7139 129.043 11.5293C128.999 9.15372 130.376 8.97936 131.972 9.26269C132.169 9.28449 132.387 9.37167 132.693 9.48064Z" fill="#273887"/>
<path d="M133.13 4.20722C133.13 5.5149 132.169 6.49566 130.901 6.47387C129.655 6.45207 128.736 5.5149 128.715 4.25081C128.715 2.94313 129.676 1.96237 130.944 1.98417C132.19 2.00596 133.13 2.96493 133.13 4.20722Z" fill="#273887"/>
<path d="M155.013 10.7007C155.057 10.6571 155.078 10.6135 155.122 10.5699C155.122 10.6353 155.122 10.7007 155.144 10.7661C155.1 10.7443 155.057 10.7225 155.013 10.7007Z" fill="#0D6EAF"/>
<path d="M29.5117 25.4997C28.7903 26.6549 28.0471 27.7882 27.3475 28.9651C26.5168 30.3599 25.7299 31.7548 24.921 33.1715C24.8117 33.3458 24.768 33.5638 24.7024 33.7817C24.6368 33.8035 24.5494 33.8253 24.4838 33.8471C22.8224 31.0138 21.1829 28.1587 19.5215 25.3254C19.6308 25.3254 19.7619 25.3036 19.8712 25.3036C23.0192 25.3036 26.1889 25.3036 29.3368 25.3036C29.3806 25.2818 29.4243 25.2818 29.4899 25.26C29.4899 25.3254 29.4899 25.4126 29.5117 25.4997Z" fill="#134A9E"/>
<path d="M10.0555 25.063C9.83694 24.9104 9.5309 24.8232 9.42159 24.6053C8.48159 23.0361 7.60717 21.445 6.68903 19.854C6.25182 19.0694 5.77089 18.3066 5.28996 17.5656C5.20252 17.413 4.96205 17.3476 4.80903 17.2387C4.89647 17.0861 4.96205 16.9553 5.0495 16.8028C8.26299 16.8028 11.4546 16.8028 14.6681 16.8028C14.7556 16.8246 14.843 16.8246 14.9304 16.8464H14.9086C14.8867 16.9771 14.8649 17.1079 14.843 17.2387C14.5369 17.6092 14.1653 17.9361 13.9249 18.3502C12.5914 20.5515 11.3235 22.8181 10.0555 25.063Z" fill="#9AD9F0"/>
<path d="M14.8214 17.2185C14.8433 17.0878 14.8651 16.957 14.887 16.8262C15.2805 16.848 15.674 16.8916 16.0675 16.8916C18.8 16.9134 21.5544 16.9134 24.287 16.9352C24.1777 17.2403 24.1121 17.5673 23.9591 17.8288C23.041 19.4198 22.101 20.9672 21.2047 22.58C20.7237 23.4518 19.9805 24.1928 19.893 25.2608C19.7837 25.2608 19.6526 25.2826 19.5433 25.2826C17.9475 22.6018 16.3735 19.8993 14.8214 17.2185Z" fill="#1B1F64"/>
<path d="M14.6466 16.7817C11.4331 16.7817 8.24143 16.7817 5.02793 16.7817C5.88049 15.2342 6.73305 13.7086 7.60747 12.1612C8.06654 11.3548 8.52561 10.5266 9.00654 9.72019C9.22515 9.34968 9.50934 9.02276 9.77166 8.67404C9.96841 8.87019 10.187 9.04455 10.34 9.28429C10.7991 10.0253 11.2363 10.7663 11.6735 11.5073C12.6572 13.2727 13.641 15.0381 14.6466 16.7817Z" fill="#80D0EE"/>
<path d="M14.6467 16.7818C13.663 15.0382 12.6574 13.2729 11.6519 11.5293C11.2146 10.7883 10.7774 10.0255 10.3184 9.30625C10.1653 9.0883 9.94673 8.91395 9.74999 8.696C9.77185 8.63062 9.81557 8.56523 9.83743 8.49985C13.0509 8.52164 16.2644 8.52164 19.4998 8.54344C18.7565 9.8947 17.9914 11.246 17.2481 12.5754C16.4612 13.9921 15.696 15.4087 14.9091 16.8036C14.8216 16.8036 14.7342 16.8036 14.6467 16.7818Z" fill="#53C5ED"/>
<path d="M24.2868 16.9572C24.4617 17.1097 24.7021 17.2187 24.8114 17.3931C26.3417 20.0084 27.8501 22.6456 29.3584 25.2609C26.2105 25.2609 23.0407 25.2609 19.8928 25.2609C19.9803 24.193 20.7235 23.452 21.2045 22.5802C22.1007 20.9892 23.0407 19.42 23.9589 17.829C24.09 17.5674 24.1775 17.2405 24.2868 16.9572Z" fill="#223484"/>
</svg>
