<svg width="18" height="18" viewBox="0 0 18 18" fill="none" xmlns="http://www.w3.org/2000/svg">
<path d="M12.3793 4.64319H6.10035C5.8605 4.64319 5.66602 4.83767 5.66602 5.07752C5.66602 5.31737 5.8605 5.51185 6.10035 5.51185H12.3798C12.6197 5.51185 12.8142 5.31737 12.8142 5.07752C12.8142 4.83767 12.6192 4.64319 12.3793 4.64319Z" fill="#2196F3"/>
<path d="M12.8137 7.52613C12.8137 7.28628 12.6192 7.0918 12.3793 7.0918H6.10035C5.8605 7.0918 5.66602 7.28628 5.66602 7.52613C5.66602 7.76598 5.8605 7.96046 6.10035 7.96046H12.3798C12.6192 7.96046 12.8137 7.76598 12.8137 7.52613Z" fill="#2196F3"/>
<path d="M6.10035 9.54102C5.8605 9.54102 5.66602 9.7355 5.66602 9.97535C5.66602 10.2152 5.8605 10.4097 6.10035 10.4097H9.26325C9.5031 10.4097 9.69758 10.2152 9.69758 9.97535C9.69758 9.7355 9.5031 9.54102 9.26325 9.54102H6.10035Z" fill="#2196F3"/>
<path d="M7.22798 15.5126H4.54043C4.1698 15.5126 3.86866 15.2109 3.86866 14.8408V3.54043C3.86866 3.1698 4.17028 2.86866 4.54043 2.86866H13.9394C14.3095 2.86866 14.6111 3.17028 14.6111 3.54043V7.66418C14.6111 7.90402 14.8056 8.09851 15.0455 8.09851C15.2853 8.09851 15.4798 7.90402 15.4798 7.66418V3.54043C15.4798 2.69107 14.7887 2 13.9399 2H4.54043C3.69107 2 3 2.69107 3 3.54043V14.8408C3 15.6902 3.69107 16.3812 4.54043 16.3812H7.22798C7.46783 16.3812 7.66232 16.1867 7.66232 15.9469C7.66232 15.707 7.46783 15.5126 7.22798 15.5126Z" fill="#2196F3"/>
<path d="M15.5063 9.63175C14.8761 9.001 13.8496 9.001 13.2198 9.63175L9.22635 13.6252C9.09992 13.7516 9.01691 13.9119 8.98699 14.088L8.76886 15.3828C8.72253 15.6555 8.81181 15.9349 9.00726 16.1303C9.16844 16.292 9.38802 16.3813 9.61291 16.3813C9.6602 16.3813 9.7075 16.3774 9.75479 16.3692L11.0486 16.1506C11.2252 16.1212 11.386 16.0386 11.5124 15.9117L15.5058 11.9183C16.1366 11.288 16.1366 10.262 15.5063 9.63175ZM10.9053 15.294L9.62546 15.5271L9.84021 14.2391L12.714 11.3652L13.7728 12.424L10.9053 15.294ZM14.892 11.3039L14.3867 11.8097L13.3279 10.7509L13.8337 10.2451C13.9794 10.0994 14.1715 10.0265 14.3631 10.0265C14.5546 10.0265 14.7462 10.0994 14.8925 10.2451C15.1839 10.5376 15.1839 11.012 14.892 11.3039Z" fill="#2196F3"/>
</svg>
