<svg width="20" height="20" viewBox="0 0 20 20" fill="none" xmlns="http://www.w3.org/2000/svg">
<path d="M9.53105 1.26779C9.6921 0.832403 10.3079 0.832402 10.4689 1.26779L12.3354 6.31364C12.4054 6.50302 12.5825 6.63168 12.7843 6.63978L18.1599 6.8556C18.6238 6.87423 18.814 7.45989 18.4497 7.74759L14.2276 11.0819C14.0691 11.2071 14.0015 11.4152 14.0561 11.6096L15.5121 16.7889C15.6377 17.2358 15.1395 17.5977 14.7533 17.3401L10.2774 14.355C10.1094 14.243 9.89056 14.243 9.72257 14.355L5.24672 17.3401C4.86052 17.5977 4.36232 17.2358 4.48795 16.7889L5.94385 11.6096C5.99849 11.4152 5.93086 11.2071 5.77239 11.0819L1.55026 7.74759C1.18595 7.45989 1.37624 6.87423 1.84009 6.8556L7.21573 6.63978C7.41749 6.63168 7.59457 6.50302 7.66462 6.31364L9.53105 1.26779Z" fill="#FFC700"/>
<path d="M10 1.44125L11.8664 6.4871C12.0065 6.86586 12.3607 7.12317 12.7642 7.13937L18.1399 7.3552L13.9177 10.6895C13.6008 10.9398 13.4655 11.3562 13.5748 11.7449L15.0307 16.9242L10.5549 13.9391C10.2189 13.715 9.78111 13.715 9.44514 13.9391L4.96929 16.9242L6.4252 11.7449C6.53448 11.3562 6.3992 10.9398 6.08228 10.6895L1.86014 7.3552L7.23579 7.13937C7.63931 7.12317 7.99347 6.86586 8.13357 6.4871L10 1.44125Z" stroke="black" stroke-opacity="0.25"/>
</svg>
