<svg width="127" height="22" viewBox="0 0 127 22" fill="none" xmlns="http://www.w3.org/2000/svg">
<rect x="0.5" y="0.5" width="21" height="21" rx="10.5" fill="#2196F3" stroke="white"/>
<path d="M11.612 15.156C10.828 15.156 10.156 14.972 9.596 14.604C9.044 14.236 8.656 13.732 8.432 13.092L9.392 12.54C9.72 13.556 10.468 14.064 11.636 14.064C12.212 14.064 12.652 13.948 12.956 13.716C13.26 13.476 13.412 13.16 13.412 12.768C13.412 12.368 13.26 12.068 12.956 11.868C12.652 11.668 12.144 11.456 11.432 11.232C11.08 11.12 10.812 11.032 10.628 10.968C10.444 10.896 10.212 10.792 9.932 10.656C9.66 10.512 9.456 10.368 9.32 10.224C9.184 10.072 9.06 9.876 8.948 9.636C8.844 9.396 8.792 9.124 8.792 8.82C8.792 8.092 9.048 7.516 9.56 7.092C10.072 6.66 10.696 6.444 11.432 6.444C12.096 6.444 12.672 6.612 13.16 6.948C13.656 7.284 14.028 7.728 14.276 8.28L13.34 8.82C12.98 7.956 12.344 7.524 11.432 7.524C10.976 7.524 10.608 7.636 10.328 7.86C10.048 8.084 9.908 8.388 9.908 8.772C9.908 9.14 10.04 9.42 10.304 9.612C10.568 9.804 11.024 10.004 11.672 10.212C11.904 10.284 12.068 10.336 12.164 10.368C12.26 10.4 12.408 10.456 12.608 10.536C12.816 10.616 12.968 10.68 13.064 10.728C13.16 10.776 13.288 10.844 13.448 10.932C13.616 11.02 13.74 11.104 13.82 11.184C13.9 11.264 13.992 11.364 14.096 11.484C14.208 11.596 14.288 11.712 14.336 11.832C14.384 11.952 14.424 12.092 14.456 12.252C14.496 12.404 14.516 12.568 14.516 12.744C14.516 13.48 14.248 14.068 13.712 14.508C13.176 14.94 12.476 15.156 11.612 15.156Z" fill="white"/>
<rect x="16.5" y="0.5" width="20" height="21" rx="10" fill="#2196F3" stroke="white"/>
<path d="M26.176 6.6C27.32 6.6 28.268 7.008 29.02 7.824C29.78 8.632 30.16 9.624 30.16 10.8C30.16 11.976 29.78 12.972 29.02 13.788C28.268 14.596 27.32 15 26.176 15H22.9V6.6H26.176ZM26.176 13.944C27.032 13.944 27.732 13.644 28.276 13.044C28.82 12.444 29.092 11.696 29.092 10.8C29.092 9.904 28.82 9.156 28.276 8.556C27.732 7.956 27.032 7.656 26.176 7.656H24.016V13.944H26.176Z" fill="white"/>
<rect x="31.5" y="0.5" width="21" height="21" rx="10.5" fill="#2196F3" stroke="white"/>
<path d="M44.096 6.6H45.2V15H44.096V11.22H40.016V15H38.9V6.6H40.016V10.164H44.096V6.6Z" fill="white"/>
<rect x="56" width="71" height="22" rx="4" fill="#D5E7F5"/>
<path d="M66.94 10.188V11.412H64.912V13.44H63.688V11.412H61.66V10.188H63.688V8.16H64.912V10.188H66.94ZM71.6057 10.032C72.2137 10.176 72.7057 10.46 73.0817 10.884C73.4657 11.3 73.6577 11.824 73.6577 12.456C73.6577 13.296 73.3737 13.956 72.8057 14.436C72.2377 14.916 71.5417 15.156 70.7177 15.156C70.0777 15.156 69.5017 15.008 68.9897 14.712C68.4857 14.416 68.1217 13.984 67.8977 13.416L69.0737 12.732C69.3217 13.452 69.8697 13.812 70.7177 13.812C71.1977 13.812 71.5777 13.692 71.8577 13.452C72.1377 13.204 72.2777 12.872 72.2777 12.456C72.2777 12.04 72.1377 11.712 71.8577 11.472C71.5777 11.232 71.1977 11.112 70.7177 11.112H70.4057L69.8537 10.284L71.6657 7.896H68.1497V6.6H73.3097V7.776L71.6057 10.032Z" fill="#2196F3"/>
<path d="M83.856 11.096C84.1013 11.224 84.2933 11.4 84.432 11.624C84.5707 11.848 84.64 12.1067 84.64 12.4C84.64 12.8587 84.4773 13.24 84.152 13.544C83.8267 13.848 83.4293 14 82.96 14H80.56V8.4H82.784C83.2427 8.4 83.6293 8.54933 83.944 8.848C84.264 9.14133 84.424 9.50933 84.424 9.952C84.424 10.4373 84.2347 10.8187 83.856 11.096ZM82.784 9.264H81.48V10.736H82.784C82.9867 10.736 83.1573 10.6667 83.296 10.528C83.4347 10.384 83.504 10.208 83.504 10C83.504 9.792 83.4347 9.61867 83.296 9.48C83.1573 9.336 82.9867 9.264 82.784 9.264ZM82.96 13.136C83.1733 13.136 83.352 13.0613 83.496 12.912C83.6453 12.7573 83.72 12.5707 83.72 12.352C83.72 12.1333 83.6453 11.9493 83.496 11.8C83.352 11.6453 83.1733 11.568 82.96 11.568H81.48V13.136H82.96ZM88.5939 10H89.4579V14H88.5939V13.424C88.2685 13.8773 87.8019 14.104 87.1939 14.104C86.6445 14.104 86.1752 13.9013 85.7859 13.496C85.3965 13.0853 85.2019 12.5867 85.2019 12C85.2019 11.408 85.3965 10.9093 85.7859 10.504C86.1752 10.0987 86.6445 9.896 87.1939 9.896C87.8019 9.896 88.2685 10.12 88.5939 10.568V10ZM86.4259 12.92C86.6659 13.16 86.9672 13.28 87.3299 13.28C87.6925 13.28 87.9939 13.16 88.2339 12.92C88.4739 12.6747 88.5939 12.368 88.5939 12C88.5939 11.632 88.4739 11.328 88.2339 11.088C87.9939 10.8427 87.6925 10.72 87.3299 10.72C86.9672 10.72 86.6659 10.8427 86.4259 11.088C86.1859 11.328 86.0659 11.632 86.0659 12C86.0659 12.368 86.1859 12.6747 86.4259 12.92ZM91.2175 11.104C91.2175 11.2373 91.2895 11.344 91.4335 11.424C91.5828 11.4987 91.7615 11.5653 91.9695 11.624C92.1828 11.6773 92.3962 11.7413 92.6095 11.816C92.8228 11.8907 93.0015 12.0187 93.1455 12.2C93.2948 12.376 93.3695 12.6 93.3695 12.872C93.3695 13.256 93.2202 13.5573 92.9215 13.776C92.6282 13.9947 92.2575 14.104 91.8095 14.104C91.4148 14.104 91.0762 14.0213 90.7935 13.856C90.5108 13.6907 90.3055 13.4613 90.1775 13.168L90.9215 12.736C91.0602 13.12 91.3562 13.312 91.8095 13.312C92.2628 13.312 92.4895 13.1627 92.4895 12.864C92.4895 12.736 92.4148 12.632 92.2655 12.552C92.1215 12.472 91.9428 12.4053 91.7295 12.352C91.5215 12.2933 91.3108 12.2267 91.0975 12.152C90.8842 12.0773 90.7028 11.9547 90.5535 11.784C90.4095 11.608 90.3375 11.3867 90.3375 11.12C90.3375 10.752 90.4762 10.456 90.7535 10.232C91.0362 10.008 91.3855 9.896 91.8015 9.896C92.1322 9.896 92.4255 9.97067 92.6815 10.12C92.9428 10.264 93.1428 10.4667 93.2815 10.728L92.5535 11.136C92.4148 10.832 92.1642 10.68 91.8015 10.68C91.6362 10.68 91.4975 10.7173 91.3855 10.792C91.2735 10.8613 91.2175 10.9653 91.2175 11.104ZM94.7074 12.368C94.7714 12.672 94.9181 12.9067 95.1474 13.072C95.3768 13.232 95.6568 13.312 95.9874 13.312C96.4461 13.312 96.7901 13.1467 97.0194 12.816L97.7314 13.232C97.3368 13.8133 96.7528 14.104 95.9794 14.104C95.3288 14.104 94.8034 13.9067 94.4034 13.512C94.0034 13.112 93.8034 12.608 93.8034 12C93.8034 11.4027 94.0008 10.904 94.3954 10.504C94.7901 10.0987 95.2968 9.896 95.9154 9.896C96.5021 9.896 96.9821 10.1013 97.3554 10.512C97.7341 10.9227 97.9234 11.4213 97.9234 12.008C97.9234 12.0987 97.9128 12.2187 97.8914 12.368H94.7074ZM94.6994 11.664H97.0514C96.9928 11.3387 96.8568 11.0933 96.6434 10.928C96.4354 10.7627 96.1901 10.68 95.9074 10.68C95.5874 10.68 95.3208 10.768 95.1074 10.944C94.8941 11.12 94.7581 11.36 94.6994 11.664ZM101.66 13.12H103.94V14H100.74V8.4H101.66V13.12ZM105.383 9.24C105.276 9.34667 105.148 9.4 104.999 9.4C104.849 9.4 104.719 9.34667 104.607 9.24C104.5 9.128 104.447 8.99733 104.447 8.848C104.447 8.69867 104.5 8.57067 104.607 8.464C104.713 8.352 104.844 8.296 104.999 8.296C105.153 8.296 105.284 8.352 105.391 8.464C105.497 8.57067 105.551 8.69867 105.551 8.848C105.551 8.99733 105.495 9.128 105.383 9.24ZM104.567 14V10H105.431V14H104.567ZM108.538 9.896C108.996 9.896 109.367 10.0427 109.65 10.336C109.932 10.6293 110.074 11.032 110.074 11.544V14H109.21V11.632C109.21 11.3333 109.13 11.104 108.97 10.944C108.81 10.784 108.591 10.704 108.314 10.704C108.01 10.704 107.764 10.8 107.578 10.992C107.391 11.1787 107.298 11.4667 107.298 11.856V14H106.434V10H107.298V10.512C107.559 10.1013 107.972 9.896 108.538 9.896ZM111.684 12.368C111.748 12.672 111.895 12.9067 112.124 13.072C112.353 13.232 112.633 13.312 112.964 13.312C113.423 13.312 113.767 13.1467 113.996 12.816L114.708 13.232C114.313 13.8133 113.729 14.104 112.956 14.104C112.305 14.104 111.78 13.9067 111.38 13.512C110.98 13.112 110.78 12.608 110.78 12C110.78 11.4027 110.977 10.904 111.372 10.504C111.767 10.0987 112.273 9.896 112.892 9.896C113.479 9.896 113.959 10.1013 114.332 10.512C114.711 10.9227 114.9 11.4213 114.9 12.008C114.9 12.0987 114.889 12.2187 114.868 12.368H111.684ZM111.676 11.664H114.028C113.969 11.3387 113.833 11.0933 113.62 10.928C113.412 10.7627 113.167 10.68 112.884 10.68C112.564 10.68 112.297 10.768 112.084 10.944C111.871 11.12 111.735 11.36 111.676 11.664ZM116.28 11.104C116.28 11.2373 116.352 11.344 116.496 11.424C116.645 11.4987 116.824 11.5653 117.032 11.624C117.245 11.6773 117.459 11.7413 117.672 11.816C117.885 11.8907 118.064 12.0187 118.208 12.2C118.357 12.376 118.432 12.6 118.432 12.872C118.432 13.256 118.283 13.5573 117.984 13.776C117.691 13.9947 117.32 14.104 116.872 14.104C116.477 14.104 116.139 14.0213 115.856 13.856C115.573 13.6907 115.368 13.4613 115.24 13.168L115.984 12.736C116.123 13.12 116.419 13.312 116.872 13.312C117.325 13.312 117.552 13.1627 117.552 12.864C117.552 12.736 117.477 12.632 117.328 12.552C117.184 12.472 117.005 12.4053 116.792 12.352C116.584 12.2933 116.373 12.2267 116.16 12.152C115.947 12.0773 115.765 11.9547 115.616 11.784C115.472 11.608 115.4 11.3867 115.4 11.12C115.4 10.752 115.539 10.456 115.816 10.232C116.099 10.008 116.448 9.896 116.864 9.896C117.195 9.896 117.488 9.97067 117.744 10.12C118.005 10.264 118.205 10.4667 118.344 10.728L117.616 11.136C117.477 10.832 117.227 10.68 116.864 10.68C116.699 10.68 116.56 10.7173 116.448 10.792C116.336 10.8613 116.28 10.9653 116.28 11.104Z" fill="#2196F3"/>
</svg>
