<svg width="14" height="14" viewBox="0 0 14 14" fill="none" xmlns="http://www.w3.org/2000/svg">
<g clip-path="url(#clip0_25_5463)">
<rect x="-5" y="-5" width="24" height="24" rx="4" fill="#2196F3"/>
<path d="M7.54688 6.28906H6.45312V7.38281H7.54688V6.28906Z" fill="white"/>
<path d="M12.3594 1.09375H11.7031V0H10.6094V1.09375H3.39062V0H2.29688V1.09375H1.64062C0.735984 1.09375 0 1.82973 0 2.73438V12.3594C0 13.264 0.735984 14 1.64062 14H5.27734H5.35938H7.26693C6.88882 13.6879 6.55949 13.3188 6.29177 12.9062H5.35938H5.27734H1.64062C1.33908 12.9062 1.09375 12.6609 1.09375 12.3594V5.14062H12.9062V6.23438V6.28906V6.29177C13.3188 6.55949 13.6879 6.88885 14 7.26693V6.28906V6.23438V2.73438C14 1.82973 13.264 1.09375 12.3594 1.09375ZM12.9062 4.04688H1.09375V2.73438C1.09375 2.43283 1.33908 2.1875 1.64062 2.1875H2.29688V3.28125H3.39062V2.1875H10.6094V3.28125H11.7031V2.1875H12.3594C12.6609 2.1875 12.9062 2.43283 12.9062 2.73438V4.04688Z" fill="white"/>
<path d="M10.3086 6.61719C8.27315 6.61719 6.61719 8.27315 6.61719 10.3086C6.61719 12.344 8.27315 14 10.3086 14C12.344 14 14 12.344 14 10.3086C14 8.27315 12.344 6.61719 10.3086 6.61719ZM10.3086 12.9062C8.87625 12.9062 7.71094 11.7409 7.71094 10.3086C7.71094 8.87625 8.87625 7.71094 10.3086 7.71094C11.7409 7.71094 12.9062 8.87625 12.9062 10.3086C12.9062 11.7409 11.7409 12.9062 10.3086 12.9062Z" fill="white"/>
<path d="M10.8281 8.47656H9.73438V10.8555H11.7578V9.76172H10.8281V8.47656Z" fill="white"/>
<path d="M5.35938 8.47656H4.26562V9.57031H5.35938V8.47656Z" fill="white"/>
<path d="M3.17188 8.47656H2.07812V9.57031H3.17188V8.47656Z" fill="white"/>
<path d="M3.17188 6.28906H2.07812V7.38281H3.17188V6.28906Z" fill="white"/>
<path d="M3.17188 10.6641H2.07812V11.7578H3.17188V10.6641Z" fill="white"/>
<path d="M5.35938 6.28906H4.26562V7.38281H5.35938V6.28906Z" fill="white"/>
<path d="M5.35938 10.6641H4.26562V11.7578H5.35938V10.6641Z" fill="white"/>
</g>
<defs>
<clipPath id="clip0_25_5463">
<rect width="14" height="14" fill="white"/>
</clipPath>
</defs>
</svg>
