<svg width="18" height="18" viewBox="0 0 18 18" fill="none" xmlns="http://www.w3.org/2000/svg">
<path d="M8.52683 13.4958L8.52696 13.4957L12.202 9.82069L12.3727 9.64998H12.1313H3.75C3.56274 9.64998 3.41032 9.58762 3.28596 9.46326C3.16162 9.33892 3.09956 9.18683 3.1 9.00021V8.99998C3.1 8.81271 3.16236 8.66029 3.28671 8.53594C3.41106 8.41159 3.56315 8.34953 3.74977 8.34998H3.75H12.1313H12.3727L12.202 8.17926L8.52696 4.50426C8.41084 4.38814 8.35366 4.24065 8.35896 4.0528C8.36431 3.86334 8.42746 3.71352 8.54559 3.59581L8.54571 3.59569C8.66263 3.47877 8.81132 3.41873 9 3.41873C9.18869 3.41873 9.33738 3.47877 9.45429 3.59569L14.4043 8.54569L14.404 8.54598L14.411 8.5518C14.4715 8.60224 14.5142 8.66479 14.5399 8.7415C14.5679 8.82506 14.5817 8.9109 14.5813 8.99947V8.99998C14.5813 9.08948 14.5674 9.17185 14.5405 9.24783C14.5152 9.31925 14.4709 9.38805 14.4045 9.45403L14.4043 9.45426L9.45429 14.4043C9.33738 14.5212 9.18869 14.5812 9 14.5812C8.81132 14.5812 8.66263 14.5212 8.54571 14.4043C8.42797 14.2865 8.36476 14.1366 8.35896 13.9469C8.35322 13.7592 8.41032 13.6119 8.52683 13.4958Z" fill="#2196F3" stroke="#D3EAFD" stroke-width="0.2"/>
</svg>
