<svg width="127" height="22" viewBox="0 0 127 22" fill="none" xmlns="http://www.w3.org/2000/svg">
<rect x="0.5" y="0.5" width="21" height="21" rx="10.5" fill="#22945E" stroke="white"/>
<path d="M11.612 15.156C10.828 15.156 10.156 14.972 9.596 14.604C9.044 14.236 8.656 13.732 8.432 13.092L9.392 12.54C9.72 13.556 10.468 14.064 11.636 14.064C12.212 14.064 12.652 13.948 12.956 13.716C13.26 13.476 13.412 13.16 13.412 12.768C13.412 12.368 13.26 12.068 12.956 11.868C12.652 11.668 12.144 11.456 11.432 11.232C11.08 11.12 10.812 11.032 10.628 10.968C10.444 10.896 10.212 10.792 9.932 10.656C9.66 10.512 9.456 10.368 9.32 10.224C9.184 10.072 9.06 9.876 8.948 9.636C8.844 9.396 8.792 9.124 8.792 8.82C8.792 8.092 9.048 7.516 9.56 7.092C10.072 6.66 10.696 6.444 11.432 6.444C12.096 6.444 12.672 6.612 13.16 6.948C13.656 7.284 14.028 7.728 14.276 8.28L13.34 8.82C12.98 7.956 12.344 7.524 11.432 7.524C10.976 7.524 10.608 7.636 10.328 7.86C10.048 8.084 9.908 8.388 9.908 8.772C9.908 9.14 10.04 9.42 10.304 9.612C10.568 9.804 11.024 10.004 11.672 10.212C11.904 10.284 12.068 10.336 12.164 10.368C12.26 10.4 12.408 10.456 12.608 10.536C12.816 10.616 12.968 10.68 13.064 10.728C13.16 10.776 13.288 10.844 13.448 10.932C13.616 11.02 13.74 11.104 13.82 11.184C13.9 11.264 13.992 11.364 14.096 11.484C14.208 11.596 14.288 11.712 14.336 11.832C14.384 11.952 14.424 12.092 14.456 12.252C14.496 12.404 14.516 12.568 14.516 12.744C14.516 13.48 14.248 14.068 13.712 14.508C13.176 14.94 12.476 15.156 11.612 15.156Z" fill="white"/>
<rect x="16.5" y="0.5" width="20" height="21" rx="10" fill="#22945E" stroke="white"/>
<path d="M26.176 6.6C27.32 6.6 28.268 7.008 29.02 7.824C29.78 8.632 30.16 9.624 30.16 10.8C30.16 11.976 29.78 12.972 29.02 13.788C28.268 14.596 27.32 15 26.176 15H22.9V6.6H26.176ZM26.176 13.944C27.032 13.944 27.732 13.644 28.276 13.044C28.82 12.444 29.092 11.696 29.092 10.8C29.092 9.904 28.82 9.156 28.276 8.556C27.732 7.956 27.032 7.656 26.176 7.656H24.016V13.944H26.176Z" fill="white"/>
<rect x="31.5" y="0.5" width="21" height="21" rx="10.5" fill="#22945E" stroke="white"/>
<path d="M44.096 6.6H45.2V15H44.096V11.22H40.016V15H38.9V6.6H40.016V10.164H44.096V6.6Z" fill="white"/>
<rect x="56" width="71" height="22" rx="4" fill="#B6D8C8"/>
<path d="M66.94 10.188V11.412H64.912V13.44H63.688V11.412H61.66V10.188H63.688V8.16H64.912V10.188H66.94ZM70.8737 9.42C71.7457 9.42 72.4577 9.688 73.0097 10.224C73.5617 10.752 73.8377 11.44 73.8377 12.288C73.8377 13.136 73.5617 13.828 73.0097 14.364C72.4577 14.892 71.7457 15.156 70.8737 15.156C69.9937 15.156 69.2777 14.892 68.7257 14.364C68.1737 13.828 67.8977 13.136 67.8977 12.288C67.8977 11.648 68.0657 11.084 68.4017 10.596L71.0657 6.6H72.6377L70.7177 9.42H70.8737ZM70.8737 13.848C71.3377 13.848 71.7177 13.708 72.0137 13.428C72.3097 13.14 72.4577 12.76 72.4577 12.288C72.4577 11.816 72.3097 11.44 72.0137 11.16C71.7177 10.872 71.3377 10.728 70.8737 10.728C70.4017 10.728 70.0177 10.872 69.7217 11.16C69.4257 11.44 69.2777 11.816 69.2777 12.288C69.2777 12.76 69.4257 13.14 69.7217 13.428C70.0177 13.708 70.4017 13.848 70.8737 13.848Z" fill="#22945E"/>
<path d="M81.744 14L80.16 8.4H81.128L82.304 12.776L83.576 8.4H84.424L85.688 12.776L86.864 8.4H87.832L86.248 14H85.184L84 9.912L82.808 14H81.744ZM90.4439 9.896C90.9026 9.896 91.2733 10.0427 91.5559 10.336C91.8386 10.6293 91.9799 11.032 91.9799 11.544V14H91.1159V11.632C91.1159 11.3333 91.0359 11.104 90.8759 10.944C90.7159 10.784 90.4973 10.704 90.2199 10.704C89.9159 10.704 89.6706 10.8 89.4839 10.992C89.2973 11.1787 89.2039 11.4667 89.2039 11.856V14H88.3399V8.4H89.2039V10.512C89.4653 10.1013 89.8786 9.896 90.4439 9.896ZM96.0783 10H96.9423V14H96.0783V13.424C95.7529 13.8773 95.2863 14.104 94.6783 14.104C94.1289 14.104 93.6596 13.9013 93.2703 13.496C92.8809 13.0853 92.6863 12.5867 92.6863 12C92.6863 11.408 92.8809 10.9093 93.2703 10.504C93.6596 10.0987 94.1289 9.896 94.6783 9.896C95.2863 9.896 95.7529 10.12 96.0783 10.568V10ZM93.9103 12.92C94.1503 13.16 94.4516 13.28 94.8143 13.28C95.1769 13.28 95.4783 13.16 95.7183 12.92C95.9583 12.6747 96.0783 12.368 96.0783 12C96.0783 11.632 95.9583 11.328 95.7183 11.088C95.4783 10.8427 95.1769 10.72 94.8143 10.72C94.4516 10.72 94.1503 10.8427 93.9103 11.088C93.6703 11.328 93.5503 11.632 93.5503 12C93.5503 12.368 93.6703 12.6747 93.9103 12.92ZM100.181 10.832H99.1893V12.752C99.1893 12.9173 99.2266 13.0373 99.3013 13.112C99.376 13.1813 99.4853 13.2213 99.6293 13.232C99.7786 13.2373 99.9626 13.2347 100.181 13.224V14C99.52 14.08 99.0453 14.024 98.7573 13.832C98.4693 13.6347 98.3253 13.2747 98.3253 12.752V10.832H97.5893V10H98.3253V9.136L99.1893 8.88V10H100.181V10.832ZM100.982 11.984V11.152H103.942V11.984H100.982ZM105.06 8.4H105.98V14H105.06V8.4ZM109.139 9.128C108.51 9.06933 108.195 9.33333 108.195 9.92V10H109.139V10.832H108.195V14H107.331V10.832H106.723V10H107.331V9.92C107.331 9.37067 107.483 8.95467 107.787 8.672C108.096 8.384 108.547 8.25867 109.139 8.296V9.128ZM111.087 8.4L110.527 10.48H109.807L110.127 8.4H111.087ZM112.139 11.104C112.139 11.2373 112.211 11.344 112.355 11.424C112.505 11.4987 112.683 11.5653 112.891 11.624C113.105 11.6773 113.318 11.7413 113.531 11.816C113.745 11.8907 113.923 12.0187 114.067 12.2C114.217 12.376 114.291 12.6 114.291 12.872C114.291 13.256 114.142 13.5573 113.843 13.776C113.55 13.9947 113.179 14.104 112.731 14.104C112.337 14.104 111.998 14.0213 111.715 13.856C111.433 13.6907 111.227 13.4613 111.099 13.168L111.843 12.736C111.982 13.12 112.278 13.312 112.731 13.312C113.185 13.312 113.411 13.1627 113.411 12.864C113.411 12.736 113.337 12.632 113.187 12.552C113.043 12.472 112.865 12.4053 112.651 12.352C112.443 12.2933 112.233 12.2267 112.019 12.152C111.806 12.0773 111.625 11.9547 111.475 11.784C111.331 11.608 111.259 11.3867 111.259 11.12C111.259 10.752 111.398 10.456 111.675 10.232C111.958 10.008 112.307 9.896 112.723 9.896C113.054 9.896 113.347 9.97067 113.603 10.12C113.865 10.264 114.065 10.4667 114.203 10.728L113.475 11.136C113.337 10.832 113.086 10.68 112.723 10.68C112.558 10.68 112.419 10.7173 112.307 10.792C112.195 10.8613 112.139 10.9653 112.139 11.104Z" fill="#22945E"/>
</svg>
