<svg width="11" height="11" viewBox="0 0 11 11" fill="none" xmlns="http://www.w3.org/2000/svg">
<g clip-path="url(#clip0_25_5368)">
<path d="M3.90177 7.19221L3.46231 8.92417C3.43568 9.03875 3.37797 9.1313 3.28919 9.20181C3.20042 9.27233 3.09388 9.30758 2.96959 9.30758C2.80091 9.30758 2.6633 9.24148 2.55677 9.10927C2.45024 8.97706 2.41916 8.83162 2.46355 8.67297L2.83642 7.19221H1.38489C1.20734 7.19221 1.06529 7.12381 0.958757 6.98702C0.852222 6.85022 0.82115 6.69827 0.865539 6.53115C0.892173 6.40776 0.954318 6.3108 1.05197 6.24029C1.14963 6.16978 1.2606 6.13452 1.38489 6.13452H3.10276L3.63543 4.01915H2.1839C2.00634 4.01915 1.8643 3.95075 1.75776 3.81396C1.65123 3.67716 1.62016 3.52521 1.66455 3.35809C1.69118 3.23469 1.75332 3.13774 1.85098 3.06723C1.94864 2.99672 2.05961 2.96146 2.1839 2.96146H3.90177L4.34122 1.2295C4.36785 1.11491 4.42556 1.02237 4.51434 0.951853C4.60312 0.881341 4.70965 0.846084 4.83394 0.846084C5.00262 0.846084 5.14023 0.91219 5.24676 1.0444C5.35329 1.17661 5.38437 1.32204 5.33998 1.4807L4.96711 2.96146H7.09779L7.53725 1.2295C7.56388 1.11491 7.62159 1.02237 7.71037 0.951853C7.79914 0.881341 7.90568 0.846084 8.02997 0.846084C8.19865 0.846084 8.33625 0.91219 8.44279 1.0444C8.54932 1.17661 8.5804 1.32204 8.53601 1.4807L8.16314 2.96146H9.61467C9.79222 2.96146 9.93427 3.02968 10.0408 3.16612C10.1473 3.30256 10.1784 3.45469 10.134 3.62251C10.1074 3.74591 10.0452 3.84287 9.94759 3.91338C9.84993 3.98389 9.73896 4.01915 9.61467 4.01915H7.8968L7.36413 6.13452H8.81566C8.99322 6.13452 9.13526 6.20292 9.2418 6.33971C9.34833 6.47651 9.3794 6.62846 9.33501 6.79558C9.30838 6.91897 9.24624 7.01593 9.14858 7.08644C9.05092 7.15695 8.93995 7.19221 8.81566 7.19221H7.09779L6.65834 8.92417C6.63171 9.03875 6.574 9.1313 6.48522 9.20181C6.39644 9.27233 6.28991 9.30758 6.16562 9.30758C5.99694 9.30758 5.85933 9.24148 5.7528 9.10927C5.64626 8.97706 5.61519 8.83162 5.65958 8.67297L6.03245 7.19221H3.90177ZM4.1681 6.13452H6.29879L6.83146 4.01915H4.70077L4.1681 6.13452Z" fill="#2196F3"/>
</g>
<defs>
<clipPath id="clip0_25_5368">
<rect width="10.4252" height="10.4252" fill="white" transform="scale(1.05513)"/>
</clipPath>
</defs>
</svg>
